<?xml version="1.0" encoding="utf-8"?>
<!-- Generator: Adobe Illustrator 19.0.0, SVG Export Plug-In . SVG Version: 6.00 Build 0)  -->
<svg version="1.0" id="Calque_1" xmlns="http://www.w3.org/2000/svg" xmlns:xlink="http://www.w3.org/1999/xlink" x="0px" y="0px"
	 width="499.6px" height="302px" viewBox="0 0 499.6 302" style="enable-background:new 0 0 499.6 302;" xml:space="preserve">
<style type="text/css">
	.st0{fill:#1D1D1B;}
	.st1{fill:#FFFFFF;}
	.st2{fill:#1D1D1B;stroke:#1D1D1B;}
	.st3{fill:#B17F4A;}
</style>
<g>
	<path id="XMLID_690_" class="st0" d="M89.2-310.5l-3.8,10.1H56.7v-3.8c4-1.6,6.5-4.4,6.5-9.2v-2.5c0-6.3-3.9-8.4-6.5-9.1v-3.8h29.1
		l1.4,9.3l-2,1.2c-2.4-2.8-5.1-5.7-9.3-5.7h-0.5c-5.3,0-7.6,2.3-7.6,7.5H72c3.6,0,4.8-2.3,5.3-3.7l0.2-0.6H80v12.3h-2.5l-0.2-0.6
		c-0.5-1.4-1.6-3.7-5.3-3.7h-4.2c0,5.1,1.9,7.4,8.2,7.4h0.4c4.4,0,7.7-3.3,10.7-6.8L89.2-310.5z M71-331.4l4.1-6.4h8v0.9l-8.2,5.5
		H71z"/>
	<path id="XMLID_688_" class="st0" d="M106.6-299.7c-8.8,0-15.6-6.5-15.6-14.8c0-8.9,6.8-14.8,15-14.8c4,0,6.3,0.8,8.4,2.1l0.5-2.1
		h4.4l1.3,10.4h-3c-2.4-2.5-5.7-4.7-10.2-4.7c-5.8,0-10.4,3.7-10.4,8.9c0,5.2,4.6,9.3,10.9,9.3c4.2,0,9-1.8,11.3-5.7l3.2,1.1
		C119.5-303,112.8-299.7,106.6-299.7z"/>
	<path id="XMLID_685_" class="st0" d="M139.1-329.4c8.5,0,15.1,6.5,15.1,14.8c0,8.3-6.6,14.8-15.1,14.8c-8.5,0-15.1-6.5-15.1-14.8
		C124-322.9,130.6-329.4,139.1-329.4z M139.1-305.6c5.2,0,9.1-3.9,9.1-9c0-5.1-4-9-9.1-9c-5.2,0-9.1,3.9-9.1,9
		C129.9-309.4,133.9-305.6,139.1-305.6z"/>
	<path id="XMLID_683_" class="st0" d="M187.8-310l-3,9.6h-29.4v-3.7c4-1.7,6.5-4.5,6.5-9.3v-2.5c0-6.3-3.9-8.3-6.5-9v-3.7H173v3.7
		c-2.6,0.7-6.5,2.8-6.5,8.8v2.6c0,4.8,1.6,8.7,8.5,8.7h0.5c4.6,0,7.7-3.1,10-6.7L187.8-310z"/>
	<path id="XMLID_681_" class="st0" d="M221.7-310.5l-3.8,10.1h-28.7v-3.8c4-1.6,6.5-4.4,6.5-9.2v-2.5c0-6.3-3.9-8.4-6.5-9.1v-3.8
		h29.1l1.4,9.3l-2,1.2c-2.4-2.8-5.1-5.7-9.3-5.7H208c-5.3,0-7.6,2.3-7.6,7.5h4.2c3.6,0,4.8-2.3,5.3-3.7l0.2-0.6h2.5v12.3H210
		l-0.2-0.6c-0.5-1.4-1.6-3.7-5.3-3.7h-4.2c0,5.1,1.9,7.4,8.2,7.4h0.4c4.4,0,7.7-3.3,10.7-6.8L221.7-310.5z"/>
	<path id="XMLID_679_" class="st0" d="M82.3-289.3l1,9.1l-3.4,0.8c-2.2-2.8-6-4.3-10.2-4.3c-3.5,0-6.3,1-6.3,3.1
		c0,1.7,2,2.5,6.3,3.1l4.1,0.5c6.3,0.8,11.3,2.6,11.3,8.2c0,5.7-5.1,9.1-11.9,9.1c-3.6,0-6.7-1-10-2.8l-1,2.1h-3.8l-2-10.8l3.4-1.2
		c2.9,4.3,7.5,7.3,13.2,7.3c3.4,0,6.2-1,6.2-3.4c0-2.2-2.7-2.8-6.3-3.2l-4.9-0.6c-2.8-0.3-10.5-1.6-10.5-8.3c0-5.7,5.6-8.6,11.7-8.6
		c3.3,0,5.8,0.8,7.8,2l0.6-2.2H82.3z"/>
	<path id="XMLID_677_" class="st0" d="M115.7-276c0,3.4,0.6,6.3,2.9,8.6c-0.4,0.2-0.7,0.4-1.1,0.6c-1.8,0.9-3.3,2-4.8,3.5
		c-2.7,2.6-5.8,4-9.4,4c-3.6,0-6.8-1.4-9.4-4c-1.8-1.8-3.6-2.9-5.9-4.1c2.3-2.2,2.9-5.1,2.9-8.4c0-4.7-1-7.2-5.4-9v-3.7h15.4v3.7
		c-4.4,1.7-5.3,4.4-5.3,9.1v1.1c0,5.1,2.2,9.8,7.8,9.8s7.8-4.7,7.8-9.8v-1.1c0-4.5-1-7.6-5.3-9.1v-3.7h15.4v3.7
		C116.7-283.1,115.7-280.7,115.7-276z"/>
	<path id="XMLID_674_" class="st0" d="M154.9-279.9c0,5.3-3.9,8.8-9.5,8.8h-11v0.1c0,3.2,2.6,5.6,6.6,6.9v3.7h-17.2v-3.7
		c2.3-0.9,6-2.6,6-10.1v-0.8c0-7.4-3.7-9-6-9.9v-3.7h20.9C151.7-288.6,154.9-284.3,154.9-279.9z M150.2-279.7c0-2.7-2.4-4.1-5.6-4.1
		h-1.9c-6,0-8.4,1.8-8.4,7.8v0.3h10.4C148-275.7,150.2-277,150.2-279.7z"/>
	<path id="XMLID_671_" class="st0" d="M189.3-270.4l-3.8,10.1h-28.7v-3.8c4-1.6,6.5-4.4,6.5-9.2v-2.5c0-6.3-3.9-8.4-6.5-9.1v-3.8
		h29.1l1.4,9.3l-2,1.2c-2.4-2.8-5.1-5.7-9.3-5.7h-0.5c-5.3,0-7.6,2.3-7.6,7.5h4.2c3.6,0,4.8-2.3,5.3-3.7l0.2-0.6h2.5v12.3h-2.5
		l-0.2-0.6c-0.5-1.4-1.6-3.7-5.3-3.7H168c0,5.1,1.9,7.4,8.2,7.4h0.4c4.4,0,7.7-3.3,10.7-6.8L189.3-270.4z M171.1-291.3l4.1-6.4h8
		v0.9l-8.2,5.5H171.1z"/>
	<path id="XMLID_668_" class="st0" d="M207.4-271.8h-6.4v0.2c0,4,2.5,6.5,6.5,7.6v3.7h-17.2v-3.7c2.3-0.9,6-2.5,6-10.1v-0.8
		c0-7.4-3.7-9-6-9.9v-3.7h20.3c7.3,0,10.8,4.2,10.8,8.6c0,4.3-3.1,8-9.4,8.2c1.7,3,3.1,4.9,6.2,4.9c1.8,0,2.7-0.7,3.2-1.2
		c0.2-0.2,0.5-0.5,0.7-0.5c0.3,0,0.5,0.8,0.6,2c0.2,3.3-1.5,6.9-5.3,6.9C212-259.7,209-267.6,207.4-271.8z M201.1-276.2h10.5
		c3.5,0,5.3-1.4,5.3-3.7s-2-3.9-6.4-3.9h-1.7C203.2-283.8,201.1-281.9,201.1-276.2z"/>
	<path id="XMLID_666_" class="st0" d="M224.6-284.9v-3.7h16.9v3.7c-4.4,1.2-6.2,4.1-6.2,8.9v3c0,4.9,1.7,7.7,6.2,8.9v3.7h-16.9v-3.7
		c4.4-1.2,6.2-4,6.2-8.9v-3C230.8-280.8,229.1-283.7,224.6-284.9z"/>
	<path id="XMLID_664_" class="st0" d="M277-270.4l-3.8,10.1h-28.7v-3.8c4-1.6,6.5-4.4,6.5-9.2v-2.5c0-6.3-3.9-8.4-6.5-9.1v-3.8h29.1
		l1.4,9.3l-2,1.2c-2.4-2.8-5.1-5.7-9.3-5.7h-0.5c-5.3,0-7.6,2.3-7.6,7.5h4.2c3.6,0,4.8-2.3,5.3-3.7l0.2-0.6h2.5v12.3h-2.5l-0.2-0.6
		c-0.5-1.4-1.6-3.7-5.3-3.7h-4.2c0,5.1,1.9,7.4,8.2,7.4h0.4c4.4,0,7.7-3.3,10.7-6.8L277-270.4z"/>
	<path id="XMLID_662_" class="st0" d="M308.1-276c0,3.4,0.6,6.3,2.9,8.6c-0.4,0.2-0.7,0.4-1.1,0.6c-1.8,0.9-3.3,2-4.8,3.5
		c-2.7,2.6-5.8,4-9.4,4c-3.6,0-6.8-1.4-9.4-4c-1.8-1.8-3.6-2.9-5.9-4.1c2.3-2.2,2.9-5.1,2.9-8.4c0-4.7-1-7.2-5.4-9v-3.7h15.4v3.7
		c-4.4,1.7-5.3,4.4-5.3,9.1v1.1c0,5.1,2.2,9.8,7.8,9.8c5.6,0,7.8-4.7,7.8-9.8v-1.1c0-4.5-1-7.6-5.3-9.1v-3.7h15.4v3.7
		C309.1-283.1,308.1-280.7,308.1-276z"/>
	<path id="XMLID_659_" class="st0" d="M333.2-271.8h-6.4v0.2c0,4,2.5,6.5,6.5,7.6v3.7h-17.2v-3.7c2.3-0.9,6-2.5,6-10.1v-0.8
		c0-7.4-3.7-9-6-9.9v-3.7h20.3c7.3,0,10.8,4.2,10.8,8.6c0,4.3-3.1,8-9.4,8.2c1.7,3,3.1,4.9,6.2,4.9c1.8,0,2.7-0.7,3.2-1.2
		c0.2-0.2,0.5-0.5,0.7-0.5c0.3,0,0.5,0.8,0.6,2c0.2,3.3-1.5,6.9-5.3,6.9C337.7-259.7,334.8-267.6,333.2-271.8z M326.8-276.2h10.5
		c3.5,0,5.3-1.4,5.3-3.7s-2-3.9-6.4-3.9h-1.7C329-283.8,326.8-281.9,326.8-276.2z"/>
	<path id="XMLID_657_" class="st0" d="M382.9-270.4l-3.8,10.1h-28.7v-3.8c4-1.6,6.5-4.4,6.5-9.2v-2.5c0-6.3-3.9-8.4-6.5-9.1v-3.8
		h29.1l1.4,9.3l-2,1.2c-2.4-2.8-5.1-5.7-9.3-5.7h-0.5c-5.3,0-7.6,2.3-7.6,7.5h4.2c3.6,0,4.8-2.3,5.3-3.7l0.2-0.6h2.5v12.3h-2.5
		l-0.2-0.6c-0.5-1.4-1.6-3.7-5.3-3.7h-4.2c0,5.1,1.9,7.4,8.2,7.4h0.4c4.4,0,7.7-3.3,10.7-6.8L382.9-270.4z"/>
	<path id="XMLID_654_" class="st0" d="M90.3-234.6c0,7.1-5,14.3-15.4,14.3H56.7v-3.8c4.2-1.4,6-4.6,6-8.8v-3c0-5.5-1.9-7.9-6-9v-3.7
		h19.1C85.5-248.5,90.3-241.6,90.3-234.6z M67.3-236v3.1c0,6.3,2.9,7.9,8.8,7.9c6.2,0,9.3-5.3,9.3-9.5c0-4.2-2.9-9.2-9.1-9.2
		C70.6-243.7,67.3-242.2,67.3-236z"/>
	<path id="XMLID_652_" class="st0" d="M94.1-235.7l-0.7-1.1c1.7-0.7,2.6-1.5,2.6-2.8c0-1.2-0.5-2.1-1.4-3.1
		c-0.7-0.8-1.4-1.5-1.4-2.9c0-1.6,1.4-3.4,3.5-3.4c2.2,0,3.3,1.8,3.3,3.5C100.1-243,99-237.3,94.1-235.7z"/>
	<path id="XMLID_649_" class="st0" d="M127.7-248.5v3.7c-3.7,1.1-5,4.1-3.2,7.4l3.8,7.3c2.1,4.1,4.1,5.1,7.3,6.1v3.7h-16.3v-3.7
		l1.2-0.4c2.8-1,4-2.6,2.7-4.7l-0.3-0.5h-11.9l-0.3,0.5c-1.3,2.2-0.2,3.8,2.7,4.7l1.2,0.4v3.7H98.2v-3.7c3.2-1,5.2-2.1,7.3-6.1
		l3.8-7.5c1.6-3.2,0.3-6.2-3.3-7.2v-3.7H127.7z M121-233.3l-4.1-9.3l-4.3,9.3H121z"/>
	<path id="XMLID_646_" class="st0" d="M154.7-231.7h-6.4v0.2c0,4,2.5,6.5,6.5,7.6v3.7h-17.2v-3.7c2.3-0.9,6-2.5,6-10.1v-0.8
		c0-7.4-3.7-9-6-9.9v-3.7H158c7.3,0,10.8,4.2,10.8,8.6c0,4.3-3.1,8-9.4,8.2c1.7,3,3.1,4.9,6.2,4.9c1.8,0,2.7-0.7,3.2-1.2
		c0.2-0.2,0.5-0.5,0.7-0.5c0.3,0,0.5,0.8,0.6,2c0.2,3.3-1.5,6.9-5.3,6.9C159.3-219.6,156.3-227.5,154.7-231.7z M148.4-236.1h10.5
		c3.5,0,5.3-1.4,5.3-3.7s-2-3.9-6.4-3.9h-1.7C150.5-243.7,148.4-241.8,148.4-236.1z"/>
	<path id="XMLID_644_" class="st0" d="M180.6-220.2v-3.8c4.4-1.4,6.1-4.2,6.1-8.9v-1.9c0-3.9-1.1-8.4-4.9-8.4
		c-3.4,0-5.6,3.2-6.9,7.3l-2.6-0.9l2.2-12.6h3.6c0.5,1.1,1.1,1.3,2.5,1.3h17c1.4,0,2-0.2,2.5-1.3h3.6l2.2,12.6
		c-1,0.4-2.3,0.8-2.6,0.9c-1.4-4.1-3.5-7.3-6.9-7.3c-3.8,0-4.9,4.5-4.9,8.4v1.9c0,4.7,1.8,7.7,6.2,8.9v3.8H180.6z"/>
	<path id="XMLID_642_" class="st0" d="M254.8-230.3l-3.8,10.1h-28.7v-3.8c4-1.6,6.5-4.4,6.5-9.2v-2.5c0-6.3-3.9-8.4-6.5-9.1v-3.8
		h29.1l1.4,9.3l-2,1.2c-2.4-2.8-5.1-5.7-9.3-5.7h-0.5c-5.3,0-7.6,2.3-7.6,7.5h4.2c3.6,0,4.8-2.3,5.3-3.7l0.2-0.6h2.5v12.3h-2.5
		l-0.2-0.6c-0.5-1.4-1.6-3.7-5.3-3.7h-4.2c0,5.1,1.9,7.4,8.2,7.4h0.4c4.4,0,7.7-3.3,10.7-6.8L254.8-230.3z"/>
	<path id="XMLID_640_" class="st0" d="M263.3-220.2v-3.8c4.4-1.4,6.1-4.2,6.1-8.9v-1.9c0-3.9-1.1-8.4-4.9-8.4
		c-3.4,0-5.6,3.2-6.9,7.3l-2.6-0.9l2.2-12.6h3.6c0.5,1.1,1.1,1.3,2.5,1.3h17c1.4,0,2-0.2,2.5-1.3h3.6l2.2,12.6
		c-1,0.4-2.3,0.8-2.6,0.9c-1.4-4.1-3.5-7.3-6.9-7.3c-3.8,0-4.9,4.5-4.9,8.4v1.9c0,4.7,1.8,7.7,6.2,8.9v3.8H263.3z"/>
	<path id="XMLID_638_" class="st0" d="M216-238.4c2.2,0,3.9,1.8,3.9,4s-1.7,4-3.9,4c-2.2,0-3.9-1.7-3.9-4S213.8-238.4,216-238.4z"/>
	<path id="XMLID_635_" class="st0" d="M90.3-194.5c0,7.1-5,14.3-15.4,14.3H56.7v-3.8c4.2-1.4,6-4.6,6-8.8v-3c0-5.5-1.9-7.9-6-9v-3.7
		h19.1C85.5-208.5,90.3-201.5,90.3-194.5z M67.3-195.9v3.1c0,6.3,2.9,7.9,8.8,7.9c6.2,0,9.3-5.3,9.3-9.5c0-4.2-2.9-9.2-9.1-9.2
		C70.6-203.6,67.3-202.1,67.3-195.9z"/>
	<path id="XMLID_633_" class="st0" d="M123.5-190.2l-3.8,10.1H91.1v-3.8c4-1.6,6.5-4.4,6.5-9.2v-2.5c0-6.3-3.9-8.4-6.5-9.1v-3.8
		h29.1l1.4,9.3l-2,1.2c-2.4-2.8-5.1-5.7-9.3-5.7h-0.5c-5.3,0-7.6,2.3-7.6,7.5h4.2c3.6,0,4.8-2.3,5.3-3.7l0.2-0.6h2.5v12.3h-2.5
		l-0.2-0.6c-0.5-1.4-1.6-3.7-5.3-3.7h-4.2c0,5.1,1.9,7.4,8.2,7.4h0.4c4.4,0,7.7-3.3,10.7-6.8L123.5-190.2z"/>
	<path id="XMLID_631_" class="st0" d="M132.1-198.3c2.2,0,3.9,1.8,3.9,4c0,2.2-1.7,4-3.9,4c-2.2,0-3.9-1.7-3.9-4
		C128.3-196.5,130-198.3,132.1-198.3z"/>
	<path id="XMLID_628_" class="st0" d="M172.8-194.5c0,7.1-5,14.3-15.4,14.3h-18.2v-3.8c4.2-1.4,6-4.6,6-8.8v-3c0-5.5-1.9-7.9-6-9
		v-3.7h19.1C168-208.5,172.8-201.5,172.8-194.5z M149.8-195.9v3.1c0,6.3,2.9,7.9,8.8,7.9c6.2,0,9.3-5.3,9.3-9.5
		c0-4.2-2.9-9.2-9.1-9.2C153.1-203.6,149.8-202.1,149.8-195.9z"/>
	<path id="XMLID_626_" class="st0" d="M206-190.2l-3.8,10.1h-28.7v-3.8c4-1.6,6.5-4.4,6.5-9.2v-2.5c0-6.3-3.9-8.4-6.5-9.1v-3.8h29.1
		l1.4,9.3l-2,1.2c-2.4-2.8-5.1-5.7-9.3-5.7h-0.5c-5.3,0-7.6,2.3-7.6,7.5h4.2c3.6,0,4.8-2.3,5.3-3.7l0.2-0.6h2.5v12.3h-2.5l-0.2-0.6
		c-0.5-1.4-1.6-3.7-5.3-3.7h-4.2c0,5.1,1.9,7.4,8.2,7.4h0.4c4.4,0,7.7-3.3,10.7-6.8L206-190.2z"/>
	<path id="XMLID_624_" class="st0" d="M233.4-209.1l1,9.1l-3.4,0.8c-2.2-2.8-6-4.3-10.2-4.3c-3.5,0-6.3,1-6.3,3.1
		c0,1.7,2,2.5,6.3,3.1l4.1,0.5c6.3,0.8,11.3,2.6,11.3,8.2c0,5.7-5.1,9.1-11.9,9.1c-3.6,0-6.7-1-10-2.8l-1,2.1h-3.8l-2-10.8l3.4-1.2
		c2.9,4.3,7.5,7.3,13.2,7.3c3.4,0,6.2-1,6.2-3.4c0-2.2-2.7-2.8-6.3-3.2l-4.9-0.6c-2.8-0.3-10.5-1.6-10.5-8.3c0-5.7,5.6-8.6,11.7-8.6
		c3.3,0,5.8,0.8,7.8,2l0.6-2.2H233.4z"/>
	<path id="XMLID_622_" class="st0" d="M238.3-204.7v-3.7h16.9v3.7c-4.4,1.2-6.2,4.1-6.2,8.9v3c0,4.9,1.7,7.7,6.2,8.9v3.7h-16.9v-3.7
		c4.4-1.2,6.2-4,6.2-8.9v-3C244.4-200.6,242.7-203.5,238.3-204.7z"/>
	<path id="XMLID_620_" class="st0" d="M285.9-188.5c0,1.7,0.8,2.6,2.1,4.1c-2,0.1-3.3,1-4.8,2.1c-2.3,1.7-6.1,2.8-9.4,2.8
		c-10.5,0-16.7-6-16.7-14.6c0-9.4,7.3-15,15.1-15c2.8,0,5.7,0.7,8.4,2.1l0.6-2.1h4.4l1.2,10.4h-3c-2.6-3.2-6.4-4.7-9.9-4.7
		c-7.1,0-10.9,4.1-10.9,9.3c0,5.3,3.9,8.9,10.3,8.9c4.5,0,8-1.8,8-4.3c0-2.2-2.6-2.9-5.6-3.2v-3.5h15.7v3.5
		C287.8-192.4,285.9-191.1,285.9-188.5z"/>
	<path id="XMLID_618_" class="st0" d="M317.8-193.8v-1c0-3.8-0.3-7.7-5.7-10v-3.6h16.4v3.7c-4.6,1.7-6,4.4-6,9.2v2.4
		c0,4.6,1.1,9.1,3.3,13H316v-1.8c0-5.2-3.9-9.3-7.3-12.9c-1.7-1.7-3.5-3.6-5.4-6.2v7.3c0,5.5,1.2,7.9,5.8,9.9v3.7h-16.2v-3.7
		c4.6-1.8,5.8-4.4,5.8-9.3v-2.4c0-4.5-1.2-7.7-5.8-9.2v-3.7h13.5c0.6,3.6,2.6,6.6,5.2,9.5c1.7,2,3.5,4,5.2,6
		c0.1,0.1,0.1,0.2,0.2,0.3c0.3,0.4,0.7,0.7,0.9,1.2v-0.1C317.8-192.3,317.8-193.1,317.8-193.8z"/>
	<path id="XMLID_132_" class="st0" d="M90.3-154.4c0,7.1-5,14.3-15.4,14.3H56.7v-3.8c4.2-1.4,6-4.6,6-8.8v-3c0-5.5-1.9-7.9-6-9v-3.7
		h19.1C85.5-168.4,90.3-161.4,90.3-154.4z M67.3-155.9v3.1c0,6.3,2.9,7.9,8.8,7.9c6.2,0,9.3-5.3,9.3-9.5c0-4.2-2.9-9.2-9.1-9.2
		C70.6-163.5,67.3-162,67.3-155.9z"/>
	<path id="XMLID_130_" class="st0" d="M123.2-150.1l-3.8,10.1H90.7v-3.8c4-1.6,6.5-4.4,6.5-9.2v-2.5c0-6.3-3.9-8.4-6.5-9.1v-3.8
		h29.1l1.4,9.3l-2,1.2c-2.4-2.8-5.1-5.7-9.3-5.7h-0.5c-5.3,0-7.6,2.3-7.6,7.5h4.2c3.6,0,4.8-2.3,5.3-3.7l0.2-0.6h2.5v12.3h-2.5
		l-0.2-0.6c-0.5-1.4-1.6-3.7-5.3-3.7h-4.2c0,5.1,1.9,7.4,8.2,7.4h0.4c4.4,0,7.7-3.3,10.7-6.8L123.2-150.1z"/>
	<path id="XMLID_128_" class="st0" d="M150.5-169l1,9.1l-3.4,0.8c-2.2-2.8-6-4.3-10.2-4.3c-3.5,0-6.3,1-6.3,3.1c0,1.7,2,2.5,6.3,3.1
		l4.1,0.5c6.3,0.8,11.3,2.6,11.3,8.2c0,5.7-5.1,9.1-11.9,9.1c-3.6,0-6.7-1-10-2.8l-1,2.1h-3.8l-2-10.8l3.4-1.2
		c2.9,4.3,7.5,7.3,13.2,7.3c3.4,0,6.2-1,6.2-3.4c0-2.2-2.7-2.8-6.3-3.2l-4.9-0.6c-2.8-0.3-10.5-1.6-10.5-8.3c0-5.7,5.6-8.6,11.7-8.6
		c3.3,0,5.8,0.8,7.8,2l0.6-2.2H150.5z"/>
	<path id="XMLID_126_" class="st0" d="M162.1-158.2c2.2,0,3.9,1.8,3.9,4s-1.7,4-3.9,4s-3.9-1.7-3.9-4S160-158.2,162.1-158.2z"/>
	<path id="XMLID_123_" class="st0" d="M200.9-159.6c0,5.3-3.9,8.8-9.5,8.8h-11v0.1c0,3.2,2.6,5.6,6.6,6.9v3.7h-17.2v-3.7
		c2.3-0.9,6-2.6,6-10.1v-0.8c0-7.4-3.7-9-6-9.9v-3.7h20.9C197.7-168.4,200.9-164,200.9-159.6z M196.2-159.5c0-2.7-2.4-4.1-5.6-4.1
		h-1.9c-6,0-8.4,1.8-8.4,7.8v0.3h10.4C194-155.4,196.2-156.7,196.2-159.5z"/>
	<path id="XMLID_121_" class="st0" d="M218.6-164.6c-1.2,0.3-2.3,1.1-2.3,2.5c0,1,0.3,1.6,1.6,3.1l2.2,2.7c0.7-0.9,1.4-1.8,2.1-2.7
		c0.1-0.1,0.2-0.2,0.3-0.3c1-1.3,1.4-1.9,1.4-2.8c0-1.4-1.1-2.2-2.3-2.5v-3.7h16.7v3.7c-6.5,1.1-9.7,5.1-13.4,9.9l-2.5,3.3v1.5
		c0,3.6,3.7,5.4,6.2,6.1v3.7h-17.1v-3.7c2.5-0.7,6.2-2.6,6.2-6.1v-1.6l-2.6-3.3c-3.8-4.8-6.9-8.8-13.3-9.9v-3.7h16.6V-164.6z"/>
	<path id="XMLID_40_" class="st0" d="M257.8-151.5h-6.4v0.2c0,4,2.5,6.5,6.5,7.6v3.7h-17.2v-3.7c2.3-0.9,6-2.5,6-10.1v-0.8
		c0-7.4-3.7-9-6-9.9v-3.7h20.3c7.3,0,10.8,4.2,10.8,8.6c0,4.3-3.1,8-9.4,8.2c1.7,3,3.1,4.9,6.2,4.9c1.8,0,2.7-0.7,3.2-1.2
		c0.2-0.2,0.5-0.5,0.7-0.5c0.3,0,0.5,0.8,0.6,2c0.2,3.3-1.5,6.9-5.3,6.9C262.3-139.5,259.4-147.4,257.8-151.5z M251.4-156h10.5
		c3.5,0,5.3-1.4,5.3-3.7c0-2.2-2-3.9-6.4-3.9h-1.7C253.6-163.5,251.4-161.6,251.4-156z"/>
	<path id="XMLID_37_" class="st0" d="M307.5-150.1l-3.8,10.1H275v-3.8c4-1.6,6.5-4.4,6.5-9.2v-2.5c0-6.3-3.9-8.4-6.5-9.1v-3.8h29.1
		l1.4,9.3l-2,1.2c-2.4-2.8-5.1-5.7-9.3-5.7h-0.5c-5.3,0-7.6,2.3-7.6,7.5h4.2c3.6,0,4.8-2.3,5.3-3.7l0.2-0.6h2.5v12.3h-2.5l-0.2-0.6
		c-0.5-1.4-1.6-3.7-5.3-3.7h-4.2c0,5.1,1.9,7.4,8.2,7.4h0.4c4.4,0,7.7-3.3,10.7-6.8L307.5-150.1z M289.3-171.1l4.1-6.4h8v0.9
		l-8.2,5.5H289.3z"/>
	<path id="XMLID_35_" class="st0" d="M333.5-153.7v-1c0-3.8-0.3-7.7-5.7-10v-3.6h16.4v3.7c-4.6,1.7-6,4.4-6,9.2v2.4
		c0,4.6,1.1,9.1,3.3,13h-9.7v-1.8c0-5.2-3.9-9.3-7.3-12.9c-1.7-1.7-3.5-3.6-5.4-6.2v7.3c0,5.5,1.2,7.9,5.8,9.9v3.7h-16.2v-3.7
		c4.6-1.8,5.8-4.4,5.8-9.3v-2.4c0-4.5-1.2-7.7-5.8-9.2v-3.7h13.5c0.6,3.6,2.6,6.6,5.2,9.5c1.7,2,3.5,4,5.2,6
		c0.1,0.1,0.1,0.2,0.2,0.3c0.3,0.4,0.7,0.7,0.9,1.2v-0.1C333.6-152.2,333.5-153.1,333.5-153.7z"/>
	<path id="XMLID_32_" class="st0" d="M379.3-150.1l-3.8,10.1h-28.7v-3.8c4-1.6,6.5-4.4,6.5-9.2v-2.5c0-6.3-3.9-8.4-6.5-9.1v-3.8
		h29.1l1.4,9.3l-2,1.2c-2.4-2.8-5.1-5.7-9.3-5.7h-0.5c-5.3,0-7.6,2.3-7.6,7.5h4.2c3.6,0,4.8-2.3,5.3-3.7l0.2-0.6h2.5v12.3h-2.5
		l-0.2-0.6c-0.5-1.4-1.6-3.7-5.3-3.7H358c0,5.1,1.9,7.4,8.2,7.4h0.4c4.4,0,7.7-3.3,10.7-6.8L379.3-150.1z M361.1-171.1l4.1-6.4h8
		v0.9l-8.2,5.5H361.1z"/>
	<path id="XMLID_30_" class="st0" d="M412.9-150.1l-3.8,10.1h-28.7v-3.8c4-1.6,6.5-4.4,6.5-9.2v-2.5c0-6.3-3.9-8.4-6.5-9.1v-3.8
		h29.1l1.4,9.3l-2,1.2c-2.4-2.8-5.1-5.7-9.3-5.7h-0.5c-5.3,0-7.6,2.3-7.6,7.5h4.2c3.6,0,4.8-2.3,5.3-3.7l0.2-0.6h2.5v12.3h-2.5
		l-0.2-0.6c-0.5-1.4-1.6-3.7-5.3-3.7h-4.2c0,5.1,1.9,7.4,8.2,7.4h0.4c4.4,0,7.7-3.3,10.7-6.8L412.9-150.1z"/>
	<path id="XMLID_28_" class="st0" d="M440.3-169l1,9.1l-3.4,0.8c-2.2-2.8-6-4.3-10.2-4.3c-3.5,0-6.3,1-6.3,3.1c0,1.7,2,2.5,6.3,3.1
		l4.1,0.5c6.3,0.8,11.3,2.6,11.3,8.2c0,5.7-5.1,9.1-11.9,9.1c-3.6,0-6.7-1-10-2.8l-1,2.1h-3.8l-2-10.8l3.4-1.2
		c2.9,4.3,7.5,7.3,13.2,7.3c3.4,0,6.2-1,6.2-3.4c0-2.2-2.7-2.8-6.3-3.2L426-152c-2.8-0.3-10.5-1.6-10.5-8.3c0-5.7,5.6-8.6,11.7-8.6
		c3.3,0,5.8,0.8,7.8,2l0.6-2.2H440.3z"/>
</g>
<g>
	<path id="XMLID_117_" class="st1" d="M89.2,74.9L85.4,85H56.7v-3.8c4-1.6,6.5-4.4,6.5-9.2v-2.5c0-6.3-3.9-8.4-6.5-9.1v-3.8h29.1
		l1.4,9.3l-2,1.2c-2.4-2.8-5.1-5.7-9.3-5.7h-0.5c-5.3,0-7.6,2.3-7.6,7.5H72c3.6,0,4.8-2.3,5.3-3.7l0.2-0.6H80V77h-2.5l-0.2-0.6
		c-0.5-1.4-1.6-3.7-5.3-3.7h-4.2c0,5.1,1.9,7.4,8.2,7.4h0.4c4.4,0,7.7-3.3,10.7-6.8L89.2,74.9z M71,54l4.1-6.4h8v0.9L74.9,54H71z"/>
	<path id="XMLID_115_" class="st1" d="M106.6,85.7c-8.8,0-15.6-6.5-15.6-14.8C91,62,97.8,56,106,56c4,0,6.3,0.8,8.4,2.1l0.5-2.1h4.4
		l1.3,10.4h-3c-2.4-2.5-5.7-4.7-10.2-4.7c-5.8,0-10.4,3.7-10.4,8.9c0,5.2,4.6,9.3,10.9,9.3c4.2,0,9-1.8,11.3-5.7l3.2,1.1
		C119.5,82.4,112.8,85.7,106.6,85.7z"/>
	<path id="XMLID_112_" class="st1" d="M139.1,56c8.5,0,15.1,6.5,15.1,14.8s-6.6,14.8-15.1,14.8c-8.5,0-15.1-6.5-15.1-14.8
		S130.6,56,139.1,56z M139.1,79.8c5.2,0,9.1-3.9,9.1-9c0-5.1-4-9-9.1-9c-5.2,0-9.1,3.9-9.1,9C129.9,75.9,133.9,79.8,139.1,79.8z"/>
	<path id="XMLID_110_" class="st1" d="M187.8,75.4l-3,9.6h-29.4v-3.7c4-1.7,6.5-4.5,6.5-9.3v-2.5c0-6.3-3.9-8.3-6.5-9v-3.7H173v3.7
		c-2.6,0.7-6.5,2.8-6.5,8.8v2.6c0,4.8,1.6,8.7,8.5,8.7h0.5c4.6,0,7.7-3.1,10-6.7L187.8,75.4z"/>
	<path id="XMLID_108_" class="st1" d="M221.7,74.9L217.9,85h-28.7v-3.8c4-1.6,6.5-4.4,6.5-9.2v-2.5c0-6.3-3.9-8.4-6.5-9.1v-3.8h29.1
		l1.4,9.3l-2,1.2c-2.4-2.8-5.1-5.7-9.3-5.7H208c-5.3,0-7.6,2.3-7.6,7.5h4.2c3.6,0,4.8-2.3,5.3-3.7l0.2-0.6h2.5V77H210l-0.2-0.6
		c-0.5-1.4-1.6-3.7-5.3-3.7h-4.2c0,5.1,1.9,7.4,8.2,7.4h0.4c4.4,0,7.7-3.3,10.7-6.8L221.7,74.9z"/>
	<path id="XMLID_106_" class="st1" d="M82.3,96.1l1,9.1l-3.4,0.8c-2.2-2.8-6-4.3-10.2-4.3c-3.5,0-6.3,1-6.3,3.1c0,1.7,2,2.5,6.3,3.1
		l4.1,0.5c6.3,0.8,11.3,2.6,11.3,8.2c0,5.7-5.1,9.1-11.9,9.1c-3.6,0-6.7-1-10-2.8l-1,2.1h-3.8l-2-10.8l3.4-1.2
		c2.9,4.3,7.5,7.3,13.2,7.3c3.4,0,6.2-1,6.2-3.4c0-2.2-2.7-2.8-6.3-3.2l-4.9-0.6c-2.8-0.3-10.5-1.6-10.5-8.3c0-5.7,5.6-8.6,11.7-8.6
		c3.3,0,5.8,0.8,7.8,2l0.6-2.2H82.3z"/>
	<path id="XMLID_104_" class="st1" d="M115.7,109.4c0,3.4,0.6,6.3,2.9,8.6c-0.4,0.2-0.7,0.4-1.1,0.6c-1.8,0.9-3.3,2-4.8,3.5
		c-2.7,2.6-5.8,4-9.4,4c-3.6,0-6.8-1.4-9.4-4c-1.8-1.8-3.6-2.9-5.9-4.1c2.3-2.2,2.9-5.1,2.9-8.4c0-4.7-1-7.2-5.4-9v-3.7h15.4v3.7
		c-4.4,1.7-5.3,4.4-5.3,9.1v1.1c0,5.1,2.2,9.8,7.8,9.8s7.8-4.7,7.8-9.8v-1.1c0-4.5-1-7.6-5.3-9.1v-3.7h15.4v3.7
		C116.7,102.3,115.7,104.7,115.7,109.4z"/>
	<path id="XMLID_101_" class="st1" d="M154.9,105.5c0,5.3-3.9,8.8-9.5,8.8h-11v0.1c0,3.2,2.6,5.6,6.6,6.9v3.7h-17.2v-3.7
		c2.3-0.9,6-2.6,6-10.1v-0.8c0-7.4-3.7-9-6-9.9v-3.7h20.9C151.7,96.8,154.9,101.1,154.9,105.5z M150.2,105.7c0-2.7-2.4-4.1-5.6-4.1
		h-1.9c-6,0-8.4,1.8-8.4,7.8v0.3h10.4C148,109.7,150.2,108.4,150.2,105.7z"/>
	<path id="XMLID_98_" class="st1" d="M189.3,115l-3.8,10.1h-28.7v-3.8c4-1.6,6.5-4.4,6.5-9.2v-2.5c0-6.3-3.9-8.4-6.5-9.1v-3.8h29.1
		l1.4,9.3l-2,1.2c-2.4-2.8-5.1-5.7-9.3-5.7h-0.5c-5.3,0-7.6,2.3-7.6,7.5h4.2c3.6,0,4.8-2.3,5.3-3.7l0.2-0.6h2.5v12.3h-2.5l-0.2-0.6
		c-0.5-1.4-1.6-3.7-5.3-3.7H168c0,5.1,1.9,7.4,8.2,7.4h0.4c4.4,0,7.7-3.3,10.7-6.8L189.3,115z M171.1,94.1l4.1-6.4h8v0.9l-8.2,5.5
		H171.1z"/>
	<path id="XMLID_95_" class="st1" d="M207.4,113.6h-6.4v0.2c0,4,2.5,6.5,6.5,7.6v3.7h-17.2v-3.7c2.3-0.9,6-2.5,6-10.1v-0.8
		c0-7.4-3.7-9-6-9.9v-3.7h20.3c7.3,0,10.8,4.2,10.8,8.6c0,4.3-3.1,8-9.4,8.2c1.7,3,3.1,4.9,6.2,4.9c1.8,0,2.7-0.7,3.2-1.2
		c0.2-0.2,0.5-0.5,0.7-0.5c0.3,0,0.5,0.8,0.6,2c0.2,3.3-1.5,6.9-5.3,6.9C212,125.7,209,117.8,207.4,113.6z M201.1,109.2h10.5
		c3.5,0,5.3-1.4,5.3-3.7s-2-3.9-6.4-3.9h-1.7C203.2,101.6,201.1,103.5,201.1,109.2z"/>
	<path id="XMLID_93_" class="st1" d="M224.6,100.5v-3.7h16.9v3.7c-4.4,1.2-6.2,4.1-6.2,8.9v3c0,4.9,1.7,7.7,6.2,8.9v3.7h-16.9v-3.7
		c4.4-1.2,6.2-4,6.2-8.9v-3C230.8,104.6,229.1,101.7,224.6,100.5z"/>
	<path id="XMLID_91_" class="st1" d="M277,115l-3.8,10.1h-28.7v-3.8c4-1.6,6.5-4.4,6.5-9.2v-2.5c0-6.3-3.9-8.4-6.5-9.1v-3.8h29.1
		l1.4,9.3l-2,1.2c-2.4-2.8-5.1-5.7-9.3-5.7h-0.5c-5.3,0-7.6,2.3-7.6,7.5h4.2c3.6,0,4.8-2.3,5.3-3.7l0.2-0.6h2.5v12.3h-2.5l-0.2-0.6
		c-0.5-1.4-1.6-3.7-5.3-3.7h-4.2c0,5.1,1.9,7.4,8.2,7.4h0.4c4.4,0,7.7-3.3,10.7-6.8L277,115z"/>
	<path id="XMLID_89_" class="st1" d="M308.1,109.4c0,3.4,0.6,6.3,2.9,8.6c-0.4,0.2-0.7,0.4-1.1,0.6c-1.8,0.9-3.3,2-4.8,3.5
		c-2.7,2.6-5.8,4-9.4,4c-3.6,0-6.8-1.4-9.4-4c-1.8-1.8-3.6-2.9-5.9-4.1c2.3-2.2,2.9-5.1,2.9-8.4c0-4.7-1-7.2-5.4-9v-3.7h15.4v3.7
		c-4.4,1.7-5.3,4.4-5.3,9.1v1.1c0,5.1,2.2,9.8,7.8,9.8c5.6,0,7.8-4.7,7.8-9.8v-1.1c0-4.5-1-7.6-5.3-9.1v-3.7h15.4v3.7
		C309.1,102.3,308.1,104.7,308.1,109.4z"/>
	<path id="XMLID_86_" class="st1" d="M333.2,113.6h-6.4v0.2c0,4,2.5,6.5,6.5,7.6v3.7h-17.2v-3.7c2.3-0.9,6-2.5,6-10.1v-0.8
		c0-7.4-3.7-9-6-9.9v-3.7h20.3c7.3,0,10.8,4.2,10.8,8.6c0,4.3-3.1,8-9.4,8.2c1.7,3,3.1,4.9,6.2,4.9c1.8,0,2.7-0.7,3.2-1.2
		c0.2-0.2,0.5-0.5,0.7-0.5c0.3,0,0.5,0.8,0.6,2c0.2,3.3-1.5,6.9-5.3,6.9C337.7,125.7,334.8,117.8,333.2,113.6z M326.8,109.2h10.5
		c3.5,0,5.3-1.4,5.3-3.7s-2-3.9-6.4-3.9h-1.7C329,101.6,326.8,103.5,326.8,109.2z"/>
	<path id="XMLID_84_" class="st1" d="M382.9,115l-3.8,10.1h-28.7v-3.8c4-1.6,6.5-4.4,6.5-9.2v-2.5c0-6.3-3.9-8.4-6.5-9.1v-3.8h29.1
		l1.4,9.3l-2,1.2c-2.4-2.8-5.1-5.7-9.3-5.7h-0.5c-5.3,0-7.6,2.3-7.6,7.5h4.2c3.6,0,4.8-2.3,5.3-3.7l0.2-0.6h2.5v12.3h-2.5l-0.2-0.6
		c-0.5-1.4-1.6-3.7-5.3-3.7h-4.2c0,5.1,1.9,7.4,8.2,7.4h0.4c4.4,0,7.7-3.3,10.7-6.8L382.9,115z"/>
	<path id="XMLID_81_" class="st1" d="M90.3,150.8c0,7.1-5,14.3-15.4,14.3H56.7v-3.8c4.2-1.4,6-4.6,6-8.8v-3c0-5.5-1.9-7.9-6-9v-3.7
		h19.1C85.5,136.9,90.3,143.8,90.3,150.8z M67.3,149.4v3.1c0,6.3,2.9,7.9,8.8,7.9c6.2,0,9.3-5.3,9.3-9.5c0-4.2-2.9-9.2-9.1-9.2
		C70.6,141.7,67.3,143.2,67.3,149.4z"/>
	<path id="XMLID_79_" class="st1" d="M94.1,149.7l-0.7-1.1c1.7-0.7,2.6-1.5,2.6-2.8c0-1.2-0.5-2.1-1.4-3.1c-0.7-0.8-1.4-1.5-1.4-2.9
		c0-1.6,1.4-3.4,3.5-3.4c2.2,0,3.3,1.8,3.3,3.5C100.1,142.4,99,148.1,94.1,149.7z"/>
	<path id="XMLID_76_" class="st1" d="M127.7,136.9v3.7c-3.7,1.1-5,4.1-3.2,7.4l3.8,7.3c2.1,4.1,4.1,5.1,7.3,6.1v3.7h-16.3v-3.7
		l1.2-0.4c2.8-1,4-2.6,2.7-4.7l-0.3-0.5h-11.9l-0.3,0.5c-1.3,2.2-0.2,3.8,2.7,4.7l1.2,0.4v3.7H98.2v-3.7c3.2-1,5.2-2.1,7.3-6.1
		l3.8-7.5c1.6-3.2,0.3-6.2-3.3-7.2v-3.7H127.7z M121,152.1l-4.1-9.3l-4.3,9.3H121z"/>
	<path id="XMLID_73_" class="st1" d="M154.7,153.7h-6.4v0.2c0,4,2.5,6.5,6.5,7.6v3.7h-17.2v-3.7c2.3-0.9,6-2.5,6-10.1v-0.8
		c0-7.4-3.7-9-6-9.9v-3.7H158c7.3,0,10.8,4.2,10.8,8.6c0,4.3-3.1,8-9.4,8.2c1.7,3,3.1,4.9,6.2,4.9c1.8,0,2.7-0.7,3.2-1.2
		c0.2-0.2,0.5-0.5,0.7-0.5c0.3,0,0.5,0.8,0.6,2c0.2,3.3-1.5,6.9-5.3,6.9C159.3,165.8,156.3,157.9,154.7,153.7z M148.4,149.3h10.5
		c3.5,0,5.3-1.4,5.3-3.7c0-2.2-2-3.9-6.4-3.9h-1.7C150.5,141.7,148.4,143.6,148.4,149.3z"/>
	<path id="XMLID_71_" class="st1" d="M180.6,165.2v-3.8c4.4-1.4,6.1-4.2,6.1-8.9v-1.9c0-3.9-1.1-8.4-4.9-8.4c-3.4,0-5.6,3.2-6.9,7.3
		l-2.6-0.9l2.2-12.6h3.6c0.5,1.1,1.1,1.3,2.5,1.3h17c1.4,0,2-0.2,2.5-1.3h3.6l2.2,12.6c-1,0.4-2.3,0.8-2.6,0.9
		c-1.4-4.1-3.5-7.3-6.9-7.3c-3.8,0-4.9,4.5-4.9,8.4v1.9c0,4.7,1.8,7.7,6.2,8.9v3.8H180.6z"/>
	<path id="XMLID_69_" class="st1" d="M254.8,155.1l-3.8,10.1h-28.7v-3.8c4-1.6,6.5-4.4,6.5-9.2v-2.5c0-6.3-3.9-8.4-6.5-9.1v-3.8
		h29.1l1.4,9.3l-2,1.2c-2.4-2.8-5.1-5.7-9.3-5.7h-0.5c-5.3,0-7.6,2.3-7.6,7.5h4.2c3.6,0,4.8-2.3,5.3-3.7l0.2-0.6h2.5v12.3h-2.5
		l-0.2-0.6c-0.5-1.4-1.6-3.7-5.3-3.7h-4.2c0,5.1,1.9,7.4,8.2,7.4h0.4c4.4,0,7.7-3.3,10.7-6.8L254.8,155.1z"/>
	<path id="XMLID_67_" class="st1" d="M263.3,165.2v-3.8c4.4-1.4,6.1-4.2,6.1-8.9v-1.9c0-3.9-1.1-8.4-4.9-8.4c-3.4,0-5.6,3.2-6.9,7.3
		l-2.6-0.9l2.2-12.6h3.6c0.5,1.1,1.1,1.3,2.5,1.3h17c1.4,0,2-0.2,2.5-1.3h3.6l2.2,12.6c-1,0.4-2.3,0.8-2.6,0.9
		c-1.4-4.1-3.5-7.3-6.9-7.3c-3.8,0-4.9,4.5-4.9,8.4v1.9c0,4.7,1.8,7.7,6.2,8.9v3.8H263.3z"/>
	<path id="XMLID_65_" class="st1" d="M216,147c2.2,0,3.9,1.8,3.9,4s-1.7,4-3.9,4c-2.2,0-3.9-1.7-3.9-4S213.8,147,216,147z"/>
	<path id="XMLID_62_" class="st1" d="M90.3,190.9c0,7.1-5,14.3-15.4,14.3H56.7v-3.8c4.2-1.4,6-4.6,6-8.8v-3c0-5.5-1.9-7.9-6-9v-3.7
		h19.1C85.5,176.9,90.3,183.9,90.3,190.9z M67.3,189.5v3.1c0,6.3,2.9,7.9,8.8,7.9c6.2,0,9.3-5.3,9.3-9.5c0-4.2-2.9-9.2-9.1-9.2
		C70.6,181.8,67.3,183.3,67.3,189.5z"/>
	<path id="XMLID_60_" class="st1" d="M123.5,195.2l-3.8,10.1H91.1v-3.8c4-1.6,6.5-4.4,6.5-9.2v-2.5c0-6.3-3.9-8.4-6.5-9.1v-3.8h29.1
		l1.4,9.3l-2,1.2c-2.4-2.8-5.1-5.7-9.3-5.7h-0.5c-5.3,0-7.6,2.3-7.6,7.5h4.2c3.6,0,4.8-2.3,5.3-3.7l0.2-0.6h2.5v12.3h-2.5l-0.2-0.6
		c-0.5-1.4-1.6-3.7-5.3-3.7h-4.2c0,5.1,1.9,7.4,8.2,7.4h0.4c4.4,0,7.7-3.3,10.7-6.8L123.5,195.2z"/>
	<path id="XMLID_58_" class="st1" d="M132.1,187.1c2.2,0,3.9,1.8,3.9,4s-1.7,4-3.9,4c-2.2,0-3.9-1.7-3.9-4S130,187.1,132.1,187.1z"
		/>
	<path id="XMLID_55_" class="st1" d="M172.8,190.9c0,7.1-5,14.3-15.4,14.3h-18.2v-3.8c4.2-1.4,6-4.6,6-8.8v-3c0-5.5-1.9-7.9-6-9
		v-3.7h19.1C168,176.9,172.8,183.9,172.8,190.9z M149.8,189.5v3.1c0,6.3,2.9,7.9,8.8,7.9c6.2,0,9.3-5.3,9.3-9.5
		c0-4.2-2.9-9.2-9.1-9.2C153.1,181.8,149.8,183.3,149.8,189.5z"/>
	<path id="XMLID_53_" class="st1" d="M206,195.2l-3.8,10.1h-28.7v-3.8c4-1.6,6.5-4.4,6.5-9.2v-2.5c0-6.3-3.9-8.4-6.5-9.1v-3.8h29.1
		l1.4,9.3l-2,1.2c-2.4-2.8-5.1-5.7-9.3-5.7h-0.5c-5.3,0-7.6,2.3-7.6,7.5h4.2c3.6,0,4.8-2.3,5.3-3.7l0.2-0.6h2.5v12.3h-2.5l-0.2-0.6
		c-0.5-1.4-1.6-3.7-5.3-3.7h-4.2c0,5.1,1.9,7.4,8.2,7.4h0.4c4.4,0,7.7-3.3,10.7-6.8L206,195.2z"/>
	<path id="XMLID_51_" class="st1" d="M233.4,176.3l1,9.1l-3.4,0.8c-2.2-2.8-6-4.3-10.2-4.3c-3.5,0-6.3,1-6.3,3.1
		c0,1.7,2,2.5,6.3,3.1l4.1,0.5c6.3,0.8,11.3,2.6,11.3,8.2c0,5.7-5.1,9.1-11.9,9.1c-3.6,0-6.7-1-10-2.8l-1,2.1h-3.8l-2-10.8l3.4-1.2
		c2.9,4.3,7.5,7.3,13.2,7.3c3.4,0,6.2-1,6.2-3.4c0-2.2-2.7-2.8-6.3-3.2l-4.9-0.6c-2.8-0.3-10.5-1.6-10.5-8.3c0-5.7,5.6-8.6,11.7-8.6
		c3.3,0,5.8,0.8,7.8,2l0.6-2.2H233.4z"/>
	<path id="XMLID_49_" class="st1" d="M238.3,180.7v-3.7h16.9v3.7c-4.4,1.2-6.2,4.1-6.2,8.9v3c0,4.9,1.7,7.7,6.2,8.9v3.7h-16.9v-3.7
		c4.4-1.2,6.2-4,6.2-8.9v-3C244.4,184.8,242.7,181.9,238.3,180.7z"/>
	<path id="XMLID_47_" class="st1" d="M285.9,196.9c0,1.7,0.8,2.6,2.1,4.1c-2,0.1-3.3,1-4.8,2.1c-2.3,1.7-6.1,2.8-9.4,2.8
		c-10.5,0-16.7-6-16.7-14.6c0-9.4,7.3-15,15.1-15c2.8,0,5.7,0.7,8.4,2.1l0.6-2.1h4.4l1.2,10.4h-3c-2.6-3.2-6.4-4.7-9.9-4.7
		c-7.1,0-10.9,4.1-10.9,9.3s3.9,8.9,10.3,8.9c4.5,0,8-1.8,8-4.3c0-2.2-2.6-2.9-5.6-3.2v-3.5h15.7v3.5
		C287.8,193,285.9,194.3,285.9,196.9z"/>
	<path id="XMLID_45_" class="st1" d="M317.8,191.6v-1c0-3.8-0.3-7.7-5.7-10V177h16.4v3.7c-4.6,1.7-6,4.4-6,9.2v2.4
		c0,4.6,1.1,9.1,3.3,13H316v-1.8c0-5.2-3.9-9.3-7.3-12.9c-1.7-1.7-3.5-3.6-5.4-6.2v7.3c0,5.5,1.2,7.9,5.8,9.9v3.7h-16.2v-3.7
		c4.6-1.8,5.8-4.4,5.8-9.3v-2.4c0-4.5-1.2-7.7-5.8-9.2v-3.7h13.5c0.6,3.6,2.6,6.6,5.2,9.5c1.7,2,3.5,4,5.2,6
		c0.1,0.1,0.1,0.2,0.2,0.3c0.3,0.4,0.7,0.7,0.9,1.2v-0.1C317.8,193.1,317.8,192.3,317.8,191.6z"/>
	<path id="XMLID_27_" class="st1" d="M90.3,231c0,7.1-5,14.3-15.4,14.3H56.7v-3.8c4.2-1.4,6-4.6,6-8.8v-3c0-5.5-1.9-7.9-6-9V217
		h19.1C85.5,217,90.3,224,90.3,231z M67.3,229.5v3.1c0,6.3,2.9,7.9,8.8,7.9c6.2,0,9.3-5.3,9.3-9.5c0-4.2-2.9-9.2-9.1-9.2
		C70.6,221.9,67.3,223.4,67.3,229.5z"/>
	<path id="XMLID_25_" class="st1" d="M123.2,235.3l-3.8,10.1H90.7v-3.8c4-1.6,6.5-4.4,6.5-9.2v-2.5c0-6.3-3.9-8.4-6.5-9.1V217h29.1
		l1.4,9.3l-2,1.2c-2.4-2.8-5.1-5.7-9.3-5.7h-0.5c-5.3,0-7.6,2.3-7.6,7.5h4.2c3.6,0,4.8-2.3,5.3-3.7l0.2-0.6h2.5v12.3h-2.5l-0.2-0.6
		c-0.5-1.4-1.6-3.7-5.3-3.7h-4.2c0,5.1,1.9,7.4,8.2,7.4h0.4c4.4,0,7.7-3.3,10.7-6.8L123.2,235.3z"/>
	<path id="XMLID_23_" class="st1" d="M150.5,216.4l1,9.1l-3.4,0.8c-2.2-2.8-6-4.3-10.2-4.3c-3.5,0-6.3,1-6.3,3.1
		c0,1.7,2,2.5,6.3,3.1l4.1,0.5c6.3,0.8,11.3,2.6,11.3,8.2c0,5.7-5.1,9.1-11.9,9.1c-3.6,0-6.7-1-10-2.8l-1,2.1h-3.8l-2-10.8l3.4-1.2
		c2.9,4.3,7.5,7.3,13.2,7.3c3.4,0,6.2-1,6.2-3.4c0-2.2-2.7-2.8-6.3-3.2l-4.9-0.6c-2.8-0.3-10.5-1.6-10.5-8.3c0-5.7,5.6-8.6,11.7-8.6
		c3.3,0,5.8,0.8,7.8,2l0.6-2.2H150.5z"/>
	<path id="XMLID_21_" class="st1" d="M162.1,227.2c2.2,0,3.9,1.8,3.9,4s-1.7,4-3.9,4s-3.9-1.7-3.9-4S160,227.2,162.1,227.2z"/>
	<path id="XMLID_18_" class="st1" d="M200.9,225.8c0,5.3-3.9,8.8-9.5,8.8h-11v0.1c0,3.2,2.6,5.6,6.6,6.9v3.7h-17.2v-3.7
		c2.3-0.9,6-2.6,6-10.1v-0.8c0-7.4-3.7-9-6-9.9V217h20.9C197.7,217,200.9,221.4,200.9,225.8z M196.2,225.9c0-2.7-2.4-4.1-5.6-4.1
		h-1.9c-6,0-8.4,1.8-8.4,7.8v0.3h10.4C194,229.9,196.2,228.6,196.2,225.9z"/>
	<path id="XMLID_16_" class="st1" d="M218.6,220.8c-1.2,0.3-2.3,1.1-2.3,2.5c0,1,0.3,1.6,1.6,3.1l2.2,2.7c0.7-0.9,1.4-1.8,2.1-2.7
		c0.1-0.1,0.2-0.2,0.3-0.3c1-1.3,1.4-1.9,1.4-2.8c0-1.4-1.1-2.2-2.3-2.5V217h16.7v3.7c-6.5,1.1-9.7,5.1-13.4,9.9l-2.5,3.3v1.5
		c0,3.6,3.7,5.4,6.2,6.1v3.7h-17.1v-3.7c2.5-0.7,6.2-2.6,6.2-6.1v-1.6l-2.6-3.3c-3.8-4.8-6.9-8.8-13.3-9.9V217h16.6V220.8z"/>
	<path id="XMLID_13_" class="st1" d="M257.8,233.9h-6.4v0.2c0,4,2.5,6.5,6.5,7.6v3.7h-17.2v-3.7c2.3-0.9,6-2.5,6-10.1v-0.8
		c0-7.4-3.7-9-6-9.9V217h20.3c7.3,0,10.8,4.2,10.8,8.6c0,4.3-3.1,8-9.4,8.2c1.7,3,3.1,4.9,6.2,4.9c1.8,0,2.7-0.7,3.2-1.2
		c0.2-0.2,0.5-0.5,0.7-0.5c0.3,0,0.5,0.8,0.6,2c0.2,3.3-1.5,6.9-5.3,6.9C262.3,245.9,259.4,238,257.8,233.9z M251.4,229.4h10.5
		c3.5,0,5.3-1.4,5.3-3.7c0-2.2-2-3.9-6.4-3.9h-1.7C253.6,221.9,251.4,223.8,251.4,229.4z"/>
	<path id="XMLID_10_" class="st1" d="M307.5,235.3l-3.8,10.1H275v-3.8c4-1.6,6.5-4.4,6.5-9.2v-2.5c0-6.3-3.9-8.4-6.5-9.1V217h29.1
		l1.4,9.3l-2,1.2c-2.4-2.8-5.1-5.7-9.3-5.7h-0.5c-5.3,0-7.6,2.3-7.6,7.5h4.2c3.6,0,4.8-2.3,5.3-3.7l0.2-0.6h2.5v12.3h-2.5l-0.2-0.6
		c-0.5-1.4-1.6-3.7-5.3-3.7h-4.2c0,5.1,1.9,7.4,8.2,7.4h0.4c4.4,0,7.7-3.3,10.7-6.8L307.5,235.3z M289.3,214.3l4.1-6.4h8v0.9
		l-8.2,5.5H289.3z"/>
	<path id="XMLID_8_" class="st1" d="M333.5,231.7v-1c0-3.8-0.3-7.7-5.7-10v-3.6h16.4v3.7c-4.6,1.7-6,4.4-6,9.2v2.4
		c0,4.6,1.1,9.1,3.3,13h-9.7v-1.8c0-5.2-3.9-9.3-7.3-12.9c-1.7-1.7-3.5-3.6-5.4-6.2v7.3c0,5.5,1.2,7.9,5.8,9.9v3.7h-16.2v-3.7
		c4.6-1.8,5.8-4.4,5.8-9.3v-2.4c0-4.5-1.2-7.7-5.8-9.2V217h13.5c0.6,3.6,2.6,6.6,5.2,9.5c1.7,2,3.5,4,5.2,6c0.1,0.1,0.1,0.2,0.2,0.3
		c0.3,0.4,0.7,0.7,0.9,1.2v-0.1C333.6,233.2,333.5,232.3,333.5,231.7z"/>
	<path id="XMLID_5_" class="st1" d="M379.3,235.3l-3.8,10.1h-28.7v-3.8c4-1.6,6.5-4.4,6.5-9.2v-2.5c0-6.3-3.9-8.4-6.5-9.1V217h29.1
		l1.4,9.3l-2,1.2c-2.4-2.8-5.1-5.7-9.3-5.7h-0.5c-5.3,0-7.6,2.3-7.6,7.5h4.2c3.6,0,4.8-2.3,5.3-3.7l0.2-0.6h2.5v12.3h-2.5l-0.2-0.6
		c-0.5-1.4-1.6-3.7-5.3-3.7H358c0,5.1,1.9,7.4,8.2,7.4h0.4c4.4,0,7.7-3.3,10.7-6.8L379.3,235.3z M361.1,214.3l4.1-6.4h8v0.9
		l-8.2,5.5H361.1z"/>
	<path id="XMLID_3_" class="st1" d="M412.9,235.3l-3.8,10.1h-28.7v-3.8c4-1.6,6.5-4.4,6.5-9.2v-2.5c0-6.3-3.9-8.4-6.5-9.1V217h29.1
		l1.4,9.3l-2,1.2c-2.4-2.8-5.1-5.7-9.3-5.7h-0.5c-5.3,0-7.6,2.3-7.6,7.5h4.2c3.6,0,4.8-2.3,5.3-3.7l0.2-0.6h2.5v12.3h-2.5l-0.2-0.6
		c-0.5-1.4-1.6-3.7-5.3-3.7h-4.2c0,5.1,1.9,7.4,8.2,7.4h0.4c4.4,0,7.7-3.3,10.7-6.8L412.9,235.3z"/>
	<path id="XMLID_2_" class="st1" d="M440.3,216.4l1,9.1l-3.4,0.8c-2.2-2.8-6-4.3-10.2-4.3c-3.5,0-6.3,1-6.3,3.1c0,1.7,2,2.5,6.3,3.1
		l4.1,0.5c6.3,0.8,11.3,2.6,11.3,8.2c0,5.7-5.1,9.1-11.9,9.1c-3.6,0-6.7-1-10-2.8l-1,2.1h-3.8l-2-10.8l3.4-1.2
		c2.9,4.3,7.5,7.3,13.2,7.3c3.4,0,6.2-1,6.2-3.4c0-2.2-2.7-2.8-6.3-3.2l-4.9-0.6c-2.8-0.3-10.5-1.6-10.5-8.3c0-5.7,5.6-8.6,11.7-8.6
		c3.3,0,5.8,0.8,7.8,2l0.6-2.2H440.3z"/>
</g>
<text id="XMLID_1_" transform="matrix(1 0 0 1 56.693 -538.9506)"><tspan x="0" y="0" class="st0" style="font-family:'Pyrenees8-Bold'; font-size:39.3521px;">École </tspan><tspan x="0" y="32.8" class="st0" style="font-family:'Pyrenees8-Bold'; font-size:39.3521px;">supérieure </tspan><tspan x="0" y="65.6" class="st0" style="font-family:'Pyrenees8-Bold'; font-size:39.3521px;">d’art</tspan><tspan x="121.3" y="65.6" class="st2" style="font-family:'Pyrenees8-Bold'; font-size:39.3521px;">•</tspan><tspan x="131.1" y="65.6" class="st0" style="font-family:'Pyrenees8-Bold'; font-size:39.3521px;">et  </tspan><tspan x="0" y="98.4" class="st0" style="font-family:'Pyrenees8-Bold'; font-size:39.3521px;">d</tspan><tspan x="28.3" y="98.4" class="st0" style="font-family:'Pyrenees8-Bold'; font-size:39.3521px; letter-spacing:3;">e</tspan><tspan x="58.1" y="98.4" class="st2" style="font-family:'Pyrenees8-Bold'; font-size:39.3521px;">•</tspan><tspan x="68" y="98.4" class="st0" style="font-family:'Pyrenees8-Bold'; font-size:39.3521px;">design </tspan><tspan x="0" y="131.2" class="st0" style="font-family:'Pyrenees8-Bold'; font-size:39.3521px;">des</tspan><tspan x="79.2" y="131.2" class="st2" style="font-family:'Pyrenees8-Bold'; font-size:39.3521px;">•</tspan><tspan x="89.1" y="131.2" class="st0" style="font-family:'Pyrenees8-Bold'; font-size:39.3521px;">Pyrénées</tspan></text>
<text id="XMLID_135_" transform="matrix(1 0 0 1 -270.7635 -388.4729)"><tspan x="0" y="0" class="st0" style="font-family:'Pyrenees8-Bold'; font-size:12px;">École </tspan><tspan x="-19.9" y="9.7" class="st0" style="font-family:'Pyrenees8-Bold'; font-size:12px;">supérieure </tspan><tspan x="-8.3" y="19.5" class="st0" style="font-family:'Pyrenees8-Bold'; font-size:12px;">d’ar</tspan><tspan x="20.3" y="19.5" class="st0" style="font-family:'Pyrenees8-Bold'; font-size:12px;">t</tspan><tspan x="28.9" y="19.5" class="st0" style="font-family:'Pyrenees8-Bold'; font-size:12px;">•</tspan><tspan x="31.7" y="19.5" class="st0" style="font-family:'Pyrenees8-Bold'; font-size:12px;">et  </tspan><tspan x="-13.3" y="29.2" class="st0" style="font-family:'Pyrenees8-Bold'; font-size:12px;">d</tspan><tspan x="-4.7" y="29.2" class="st0" style="font-family:'Pyrenees8-Bold'; font-size:12px;">e</tspan><tspan x="3.7" y="29.2" class="st0" style="font-family:'Pyrenees8-Bold'; font-size:12px;">•</tspan><tspan x="6.5" y="29.2" class="st0" style="font-family:'Pyrenees8-Bold'; font-size:12px;">design </tspan><tspan x="-25.3" y="39" class="st0" style="font-family:'Pyrenees8-Bold'; font-size:12px;">des•Pyrénées</tspan></text>
<rect x="-831.2" y="-385.4" class="st3" width="288.9" height="56.7"/>
<rect x="-895.3" y="-326.8" class="st3" width="56.7" height="146.7"/>
<rect x="-452.4" y="-288.6" class="st3" width="56.7" height="155.3"/>
<rect x="-644.4" y="-140.1" class="st3" width="160.8" height="56.7"/>
</svg>
