<?xml version="1.0" encoding="utf-8"?>
<!-- Generator: Adobe Illustrator 16.0.0, SVG Export Plug-In . SVG Version: 6.00 Build 0)  -->
<!DOCTYPE svg PUBLIC "-//W3C//DTD SVG 1.1//EN" "http://www.w3.org/Graphics/SVG/1.1/DTD/svg11.dtd">
<svg version="1.1" xmlns="http://www.w3.org/2000/svg" xmlns:xlink="http://www.w3.org/1999/xlink" x="0px" y="0px" width="2315px"
	 height="1424px" viewBox="0 0 2315 1424" enable-background="new 0 0 2315 1424" xml:space="preserve">
<g id="Calque_1">
	<g>
		<polygon fill="#0F0F0F" points="647,1096 645,1096 645,1093 644,1093 644,1092 642,1092 642,1090 641,1090 641,1089 638,1089 
			638,1088 630,1088 630,1089 627,1089 627,1090 624,1090 624,1093 623,1093 623,1095 621,1095 621,1097 620,1097 620,1103 
			618,1103 618,1107 648,1107 648,1102 647,1102 		"/>
		<polygon fill="#0F0F0F" points="906,845 904,845 904,840 903,840 903,837 901,837 901,835 900,835 900,834 899,834 899,832 
			896,832 896,831 887,831 887,832 884,832 884,834 881,834 881,837 880,837 880,838 879,838 879,841 877,841 877,847 876,847 
			876,851 906,851 		"/>
		<polygon fill="#0F0F0F" points="597,333 598,333 598,334 599,334 599,335 603,335 603,337 609,337 609,335 611,335 611,334 
			614,334 614,333 616,333 616,331 617,331 617,330 618,330 618,329 620,329 620,326 620.946,326 620.949,307 620,307 620,308 
			616,308 616,310 611,310 611,311 607,311 607,312 605,312 605,314 602,314 602,315 599,315 599,316 598,316 598,318 597,318 
			597,320 595.182,320 595.181,330 597,330 		"/>
		<polygon fill="#0F0F0F" points="744,322 746,322 746,325 747,325 747,327 748,327 748,329 750,329 750,330 751,330 751,331 
			752,331 752,333 755,333 755,334 759,334 759,335 765,335 765,334 767,334 767,333 770,333 770,331 773,331 773,330 774,330 
			774,329 776,329 776,327 776.894,327 776.9,288 776,288 776,287 774,287 774,285 771,285 771,284 767,284 767,282.491 
			758,282.489 758,284 755,284 755,285 752,285 752,287 751,287 751,288 750,288 750,289 748,289 748,291 747,291 747,293 746,293 
			746,296 744,296 744,301 743,301 742.997,316 744,316 		"/>
		<rect x="1427" y="926" fill="#0F0F0F" width="4" height="5"/>
		<rect x="1535" y="926" fill="#0F0F0F" width="4" height="5"/>
		<rect x="1431" y="917" fill="#0F0F0F" width="4" height="9"/>
		<polygon fill="#0F0F0F" points="701,986 697,986 697,988 692,988 692,989 688,989 688,991 685,991 685,992 682,992 682,993 
			679,993 679,995 678,995 678,996 677,996 677,999 675,999 675,1009 677,1009 677,1012 678,1012 678,1013 679,1013 679,1015 
			684,1015 684,1016 689,1016 689,1015 692,1015 692,1013 695,1013 695,1012 697,1012 697,1011 698,1011 698,1009 699,1009 
			699,1008 701,1008 701,1005 702,1005 702,985 701,985 		"/>
		<polygon fill="#0F0F0F" points="498,848 497,848 497,844 495,844 495,841 494,841 494,838 492,838 492,837 491,837 491,835 
			490,835 490,834 488,834 488,832 484,832 484,831 477,831 477,832 473,832 473,834 471,834 471,835 470,835 470,837 468,837 
			468,838 467,838 467,840 466,840 466,844 464,844 464,849 463,849 463,866 464,866 464,874 466,874 466,878 467,878 467,881 
			468,881 468,882 470,882 470,884 471,884 471,885 473,885 473,886 474,886 474,888 477,888 477,889 485,889 485,888 490,888 
			490,886 491,886 491,885 492,885 492,884 494,884 494,882 495,882 495,879 497,879 497,875 498,875 498,869 500,869 500,855 
			498,855 		"/>
		<polygon fill="#0F0F0F" points="561,973 559,973 559,968 558,968 558,965 557,965 557,963 555,963 555,962 554,962 554,961 
			551,961 551,959 542,959 542,961 539,961 539,962 537,962 537,965 535,965 535,966 534,966 534,969 532,969 532,975 531,975 
			531,979 561,979 		"/>
		<polygon fill="#0F0F0F" points="572,1092 571,1092 571,1090 568,1090 568,1089 564,1089 564,1088 554,1088 554,1089 551,1089 
			551,1090 548,1090 548,1092 547,1092 547,1093 545,1093 545,1095 544,1095 544,1096 542,1096 542,1099 541,1099 541,1102 
			540,1102 540,1107 538,1107 538,1123 540,1123 540,1128 541,1128 541,1131 542,1131 542,1134 544,1134 544,1135 545,1135 
			545,1137 547,1137 547,1138 548,1138 548,1140 551,1140 551,1141 555,1141 555,1142 561,1142 561,1141 564,1141 564,1140 
			566,1140 566,1138 569,1138 569,1137 571,1137 571,1135 572,1135 572,1134 573,1134 573,1093 572,1093 		"/>
		<polygon fill="#0F0F0F" points="576,615 596,615 596,609 608,609 608,603 615,603 615,598 623,598 623,592 627,592 627,587 
			631,587 631,581 635,581 635,576 639,576 639,536 635,536 635,531 631,531 631,525 623,525 623,520 612,520 612,525 600,525 
			600,531 596,531 596,536 592,536 592,542 584,542 584,553 580,553 580,559 576,559 576,564 573,564 573,576 569,576 569,587 
			565,587 565,598 561,598 561,615 557,615 557,620 576,620 		"/>
		<polygon fill="#0F0F0F" points="731,845 730,845 730,840 728,840 728,837 727,837 727,835 725,835 725,834 724,834 724,832 
			721,832 721,831 713,831 713,832 710,832 710,834 707,834 707,837 705,837 705,838 704,838 704,841 703,841 703,847 701,847 
			701,851 731,851 		"/>
		<polygon fill="#0F0F0F" points="422.96,310 424,310 424,315 426,315 426,319 427,319 427,322 428,322 428,324 430,324 430,326 
			431,326 431,324 432,324 432,322 434,322 434,320 435,320 435,319 437,319 437,318 438,318 438,316 441,316 441,314.984 
			454,314.986 454,316 457,316 457,318 458,318 458,319 460,319 460,320 461,320 461,322 462,322 462,324 464,324 464,326 465,326 
			465,329 466,329 466,331 469,331 469,330 470,330 470,329 472,329 472,327 473,327 473,324 474,324 474,323 476,323 476,319 
			477,319 477,316 479,316 479,310 479.91,310 479.914,284 479,284 479,277 477,277 477,273 476,273 476,270 474,270 474,268 
			473,268 473,265 472,265 472,262 470,262 470,261 469,261 469,259 468,259 468,258 466,258 466,257 465,257 465,255 462,255 
			462,254 461,254 461,253 456,253 456,251.257 445,251.255 445,253 441,253 441,254 438,254 438,255 437,255 437,257 434,257 
			434,258 432,258 432,259 431,259 431,261 430,261 430,263 428,263 428,265 427,265 427,268 426,268 426,270 424.322,270 
			424.32,276 423,276 423,281 421.608,281 421.604,303 422.961,303 		"/>
		<rect x="1281" y="494" fill="#0F0F0F" width="3" height="11"/>
		<rect x="1277" y="505" fill="#0F0F0F" width="4" height="6"/>
		<rect x="1066" y="494" fill="#0F0F0F" width="4" height="5"/>
		<path fill="#0F0F0F" d="M0,0v1424h2315V0H0z M1433,539h4v-17h3v-17h4v-11h4v-6h4v-11h4v-5h4v-12h4v-5h4v-6h4v-5h4v-6h7v-6h4v-5h4
			v-6h8v-5h12v-6h11v-5h35v5h12v6h8v5h4v6h4v5h4v6h4v11h3v11h4v17h4v56h-4v22h-4v17h-3v11h-4v11h-4v6h-4v11h-4v6h-4v5h-4v6h-4v5h-4
			v6h-4v6h-3v5h-4v6h-8v5h-8v6h-8v5h-11v6h-36v-6h-11v-5h-8v-6h-4v-5h-4v-6h-4v-5h-4v-6h-4v-11h-3v-17h-4V539z M1210,656h4v-11h4
			v-17h4v-17h4v-11h4v-17h4v-11h4v-17h4v-16h3v-12h4v-16h4v-12h4v-16h4v-11h4v-17h4v-11h4v-17h4v-11h4v-17h3v-17h4v-11h4v-17h4v-11
			h4v-22h4v-6h-4v-11h-4v-5h-8v-6h-7v-6h19v-5h23v-6h24v-5h4v11h-4v17h-4v11h-4v16h-4v12h-4v16h-4v12h-4v16h-3v11h-4v17h-4v11h-4v17
			h-4v11h-4v11h-4v6h-4v11h-4v6h-4v11h4v-6h4v-5h4v-6h4v-11h4v-6h4v-5h4v-6h4v-5h4v-6h7v-6h4v-5h4v-6h8v-5h8v-6h11v-5h24v5h11v6h4v5
			h4v17h4v17h-4v22h-4v11h-4v17h-3v11h-4v17h-4v11h-4v11h-4v17h-4v11h-4v11h-4v17h-4v34h12v-6h8v-6h8v-5h4v-6h3v-5h4v-6h8v-6h4v6h-4
			v6h-4v5h-4v6h-4v5h-3v6h-4v6h-4v5h-4v6h-4v5h-4v6h-8v5h-15v6h-8v-6h-12v-5h-4v-11h-4v-23h4v-16h4v-17h4v-11h4v-17h4v-11h4v-17h4
			v-11h4v-11h4v-17h3v-11h4v-17h4v-11h4v-17h-4v-11h-23v6h-8v5h-8v6h-4v5h-4v6h-3v6h-4v5h-4v6h-4v5h-4v6h-4v5h-4v6h-4v11h-4v6h-4v5
			h-3v12h-4v11h-4v16h-4v17h-4v11h-4v17h-4v11h-4v17h-4v11h-4v17h-3v5h-32V656z M1271,746v10h-4v10h-3v7h-4v14h-4v6h-40v-6h4v-7h4
			v-10h3v-14h4v-10H1271z M953,778h8v-5h4v-6h4v-5h3v-17h4v-11h4v-17h4v-17h4v-11h4v-17h4v-11h4v-16h4v-17h4v-11h3v-17h4v-11h4v-17
			h4v-11h4v-17h4v-17h4v-11h4v-17h4v-11h3v-16h4v-34h-4v-6h-7v-5h-8v-6h12v-5h19v-6h20v-5h19v5h-4v17h-4v11h-4v11h-4v6h-3v5h-4v12
			h-4v11h4v-6h4v-5h3v-6h4v-6h4v-11h4v-5h4v-6h8v-6h4v-5h4v-6h7v-5h8v-6h8v-5h23v5h12v6h4v5h8v6h4v11h4v11h4v17h3v45h-3v28h-4v16h-4
			v11h-4v12h-4v11h-4v5h-4v11h-4v6h-4v6h-4v5h-3v6h-4v5h-4v6h-4v6h-8v5h-4v6h-8v5h-7v6h-16v5h-39v-5h-12v-6h-8v-5h-7v-6h-4v11h-4v11
			h-4v17h-4v11h-4v17h-4v11h-4v17h-3v33h3v6h20v11h-4v6h-94v-11h4v-6h16V778z M879.958,303.366l1.355,0.028l0.085-4.068l1.356,0.028
			l0.085-4.067l1.354,0.028l0.057-2.71l1.355,0.028l0.028-1.356l1.356,0.029l0.057-2.71l1.357,0.028l0.029-1.356l1.355,0.028
			l0.028-1.355l1.355,0.028l0.029-1.355l1.356,0.028l0.028-1.356l2.711,0.057l0.028-1.355l1.356,0.028l0.029-1.357l2.71,0.057
			l0.028-1.355l4.067,0.085l0.028-1.356l12.2,0.256l-0.028,1.356l4.068,0.085l-0.029,1.355l2.71,0.057l-0.028,1.357l2.712,0.057
			l-0.029,1.355l1.355,0.029l-0.028,1.356l1.355,0.028l-0.028,1.355l1.355,0.029l-0.028,1.355l1.355,0.028l-0.057,2.712l1.359,0.028
			l-0.028,1.354l1.355,0.028L933,296.338l1.355,0.028l-0.142,6.779l1.355,0.028l-0.085,4.067l-47.447-0.994l-0.057,2.711
			l5.422,0.113l-0.199,9.491l1.356,0.028l-0.085,4.065l1.356,0.029l-0.057,2.711l1.355,0.029l-0.057,2.711l1.355,0.028l-0.028,1.356
			l1.355,0.028l-0.028,1.355l1.357,0.029l-0.029,1.357l1.355,0.028l-0.028,1.354l2.71,0.057l-0.029,1.356l4.07,0.085l-0.028,1.354
			l8.133,0.17l0.028-1.354l5.422,0.113l0.029-1.356l2.71,0.057l0.028-1.354l1.355,0.028l0.028-1.357l1.355,0.028l0.029-1.355
			l1.355,0.028l0.028-1.356l1.359,0.028l0.028-1.355l1.355,0.028l0.057-2.712l1.355,0.028l-0.057,2.712l-1.355-0.028l-0.085,4.066
			l-1.355-0.028l-0.057,2.711l-1.359-0.029l-0.029,1.356l-1.355-0.028l-0.028,1.354l-1.355-0.028l-0.029,1.356l-1.355-0.028
			l-0.028,1.355l-1.355-0.029l-0.028,1.358l-1.355-0.028l-0.028,1.355l-2.712-0.057l-0.028,1.354l-4.065-0.085l-0.029,1.355
			l-12.202-0.255l0.028-1.355l-5.423-0.113l0.029-1.354l-2.71-0.057l0.028-1.355l-2.712-0.057l0.028-1.358l-2.711-0.057l0.028-1.355
			l-1.355-0.028l0.029-1.356l-1.355-0.028l0.028-1.354l-1.357-0.028l0.028-1.356l-1.356-0.029l0.057-2.711l-1.355-0.028l0.057-2.711
			l-1.354-0.028l0.057-2.711l-1.356-0.028l0.085-4.066l-1.355-0.029L879.958,303.366z M874,453h4v-6h4v-5h4v-12h4v-5h4v-6h3v-5h4v-6
			h4v-5h4v-12h4v-5h4v-6h4v-5h8v-6h15v6h8v28h-4v11h-4v5h-8v6h-7v5h-8v6h-8v6h-8v5h-8v6h-7v5h-8v6h-8v5h-8v-5h4v-6h4V453z
			 M838.544,337.76l6.779,0.142l0.028-1.355l1.357,0.028l0.028-1.356l1.355,0.028l0.028-1.354l1.355,0.028l1.647-78.628
			l-1.355-0.028l0.028-1.354l-1.355-0.028l0.029-1.356l-2.713-0.057l0.028-1.357l-2.709-0.057l0.028-1.356l-2.713-0.057l0.028-1.355
			l5.422,0.114l0.028-1.355l6.779,0.142l0.028-1.354l5.423,0.113l0.028-1.356l5.424,0.113l-1.846,88.117l1.355,0.028l-0.057,2.71
			l1.355,0.028l-0.028,1.356l1.356,0.028l-0.028,1.355l6.777,0.142l-0.085,4.067l-33.892-0.71L838.544,337.76z M807,581h4v-11h3v-6
			h4v-5h4v-6h4v-5h4v-6h4v-6h4v-5h4v-6h8v-5h7v-6h8v-5h12v-6h39v6h8v5h7v6h4v5h4v6h4v45h-4v5h-4v6h-4v5h-4v6h-3v5h-4v6h-8v6h-8v5
			h-12v6h-11v5h-20v6h-43v5h-4v6h12v45h4v16h4v6h4v6h4v5h4v6h4v5h15v6h12v-6h15v-5h8v-6h4v-5h4v-6h8v-6h4v-5h4v5h-4v6h-4v11h-4v6h-4
			v5h-4v6h-4v6h-4v5h-4v6h-7v5h-8v6h-12v5h-31v-5h-8v-6h-8v-5h-7v-6h-4v-5h-4v-6h-4v-11h-4v-11h-4v-17h-4v-62h4v-16h4v-17h4v-11h4
			v-11h4V581z M908,793v1h2v7h-2v2h-1v1h-3v1h-1v2h-3v1h-3v2h-3v1h-3v2h-3v1h-1v1h-3v2h-3v-2h2v-2h1v-2h2v-1h1v-3h1v-2h2v-2h1v-2h2
			v-3h1v-1h2v-1h1v-2h1v-1h2v-2h7v2H908z M729.441,308H731v-7h1v-4h2v-2h1v-3h1v-1h2v-3h1v-1h1v-2h2v-1h1v-2h3v-1h2v-1h3v-2h4
			v-0.936l15,0.002V278h6v2h0.901l0.004-25H776v-1h-2v-1h-3v-2h-2v-1h-3v-1h5v-2h7v-1h6v-1h5.111l-0.013,88H790v2h3v2h3v1h3v1h-2
			v1.802l-9-0.001v1.2h-10v2h-1.108l0.001-10H778v-3h2v-1h1v-4h-1v1h-2v3h-1v1h-1v2h-2v2h-1v2h-2v1h-2v1h-2v2h-2v1h-3v1.507
			l-11-0.002V342h-5v-1h-3v-2h-1v-1h-2v-1h-1v-2h-1v-1h-2v-1h-1v-3h-1v-3h-2v-2h-1v-7h-1.561L729.441,308z M725,542h4v-17h4v-11h3
			v-17h4v-11h4v-17h4v-11h4v-16h4v-17h4v-17h-4v-5h-4v-6h-8v-6h-8v-5h24v-6h19v-5h24v-6h4v11h-4v17h-4v11h-4v17h-4v17h-4v11h-4v16
			h-4v12h-4v16h-4v12h-3v16h-4v11h-4v17h-4v11h-4v17h-4v11h-4v17h-4v17h-4v11h-3v17h-4v11h-4v17h-4v11h-4v16h-4v28h4v6h8v-6h8v-5h7
			v-6h4v-5h4v-6h4v-6h4v-5h4v-6h4v11h-4v6h-4v6h-4v5h-4v6h-4v5h-4v6h-4v6h-3v5h-4v6h-4v5h-8v6h-16v5h-8v-5h-11v-6h-4v-11h-4v-28h4
			v-17h4v-11h4v-16h4v-17h3v-11h4v-17h4v-11h4v-17h4v-11h4v-17h4v-11h4v-17h4V542z M758,925v14h-14v-14H758z M649,338h7v-1h2v-2h1
			v-1h1.274l0.007-45H659v-1h-1v-1h-3v-2h-3v-1h-3v-2h6v-1h4v-1h5v-2h6v-1h2.489l-0.002,10H671v1h-1v3h-2v4h2v-2h1v-2h1v-2h2v-1h1
			v-3h2v-1h2v-2h2v-1h1v-1h3v-2h4v-0.946l12,0.002V278h3v2h2v1h2v1h1v2h1v3h2v4h1.163l-0.007,43H715v1h1v2h1v1h7v4.145l-34-0.005
			V338h7v-1h1v-2h2v-4h0.954l0.005-35H700v-5h-2v-2h-1v-1h-1v-1h-5v-2h-6v2h-4v1h-3v1h-1v2h-2v1h-1v1h-1.514l-0.006,41H674v1h1v2h2
			v1h5v4.139l-33-0.005V338z M648,375h8v-6h15v6h8v28h-4v11h-4v5h-8v6h-7v5h-8v6h-8v6h-8v5h-8v6h-7v5h-8v6h-8v5h-8v-5h4v-6h4v-5h4
			v-6h4v-5h4v-12h4v-5h4v-6h3v-5h4v-6h4v-5h4v-12h4v-5h4v-6h4V375z M583,324h1v-4h2v-2h1v-2h1v-1h2v-1h2v-2h3v-1h4v-1h3v-2h4v-1h4
			v-1h4v-2h4v-1h2.949l0.002-12H620v-3h-2v-1h-1v-2h-1v-1h-2v-1.532l-11-0.002V284h-4v1h-1v2h-1v1h-2v1h4v7h-1v3h-1v1h-7v-1h-2v-2
			h-1v-2h-1v-4h1v-3h1v-3h2v-1h1v-2h3v-1h1v-1h3v-2h5v-0.958l15,0.002V278h4v2h3v1h3v1h1v2h1v1h2v3h1v3h1.511l-0.006,43H636v1h7v-1
			h1v-1h1v1h-1v3h-1v1h-2v1h-1v2h-3v1h-4v1h-3v-1h-4v-1h-2v-3h-2v-5h2v-3h1v-3h-1v2h-2v1h-1v3h-1v1h-2v1h-1v2h-1v1h-2v1h-1v2h-3v1
			h-3v1.483l-10-0.002V342h-5v-1h-2v-2h-2v-1h-1v-1h-1v-2h-2v-5h-1V324z M503,282h4v-1h5v-1h6v-2h5v-1h3.029l-0.007,50H527v3h2v3h2
			v1h3v1h7v-1h4v-1h3v-2h1v-1h1v-1h2v-2h1.139l0.005-38H552v-1h-2v-1h-2v-2h-3v-1h-3v-2h4v-1h6v-1h5v-2h6v-1h2.351l-0.008,56H567v2
			h2v2h3v1h3v1h-2v2h-9v1.122l-10-0.001V343h-0.863l0.001-9H554v-1h2v-2h1v-4h-1v2h-2v1h-1v3h-1v1h-2v1h-1v2h-1v1h-3v1h-1v2h-3v1h-4
			v1.473l-11-0.001V342h-4v-1h-1v-2h-2v-1h-1v-1h-1v-2h-2v-2h-1.183l0.006-40H512v-5h-2v-1h-2v-2h-4v-1h-1V282z M405.336,288h1.356
			l0.001-7H408v-4h1v-4h2v-3h1v-2h1v-2h2v-3h1v-1h2v-1h1v-2h1v-1h2v-1h1v-2h1v-1h2v-1h2v-2h3v-1h3v-1h3v-2h5v-1.167l18,0.003V247h5
			v2h4v1h3v1h2v2h2v1h3v1h1v2h1v1h2v1h1v2h1v1h2v3h1v1h1v3h2v3h1v2h1v4h2v7h1.185l-0.003,18H495v7h-2v4h-1v2h-1v3h-2v3h-1v2h-1v2h-2
			v1h-1v3h-1v1h-2v2h-2v1h-2v1h-1v2h-3v1h-1v1h1v3h1v1h2v3h1v2h2v2h1v3h1v1h2v2h8v-2h2v2h-1v1h-1v1h-2v2h-1v1h-1v1h-4v2h-9v-2h-4v-1
			h-1v-1h-1v-2h-2v-1h-1v-3h-1v-2h-2v-3h-1v-3h-1v-3h-2v-1h-1v-3h-2v-2h-1v-3h-1v-3h-2v-2h-1v-3h-1v-2h-2v-1h-1v-1.235l-8-0.001V323
			h-1v3h-2v5h2v2h1v1h3v1h2v2h4v1h7v3h1v2.461l-12-0.002V342h-5v-1h-4v-2h-3v-1h-3v-1h-1v-2h-3v-1h-1v-1h-1v-2h-2v-1h-1v-1h-1v-2h-2
			v-1h-1v-2h-2v-2h-1v-3h-1v-3h-2v-2h-1v-4h-1v-7h-1.666L405.336,288z M441,876h-1v3h-1v3h-2v3h-1v1h-2v2h-1v1h-2v2h-1v1h-3v1h-4v2
			h-13v-2h-4v-1h-3v-1h-3v-2h-3v-1h-1v-2h-1v-1h-2v-3h-1v-1h-2v-3h-1v-3h-2v-6h-1v-17h1v-4h2v-4h1v-3h2v-1h1v-3h2v-2h1v-1h1v-2h2v-1
			h3v-1h1v-2h3v-1h6v-2h14v2h4v1h3v2h1v1h3v1h2v3h1v3h1v7h-1v2h-1v1h-2v1h-6v-1h-2v-1h-2v-7h3v-3h-1v-3h-3v-2h-3v-1h-10v1h-3v2h-3v1
			h-1v2h-2v3h-1v2h-1v5h-2v19h2v6h1v3h1v3h2v1h1v2h2v1h1v2h3v1h4v1h7v-1h6v-1h3v-2h1v-1h2v-2h1v-1h2v-2h1v-1h1V876z M448,760h-4v5
			h-8v6h-35v-6h-4v-5h-4v-6h-4v-17h-4v-11h4v-22h4v-17h4v-17h4v-11h4v-17h4v-16h4v-11h4v-17h3v-17h4v-11h4v-17h4v-17h4v-5h-35v-6h8
			v-5h8v-6h7v-5h4v-6h8v-6h4v-5h8v-6h4v-5h4v-6h3v-6h8v-5h4v-6h4v-5h4v-6h4v-5h4v-6h4v-6h4v-5h3v-6h4v6h-4v11h-3v17h-4v16h-4v12h-4
			v16h-4v12h51v5h-4v17h-67v11h12v6h-4v11h-4v17h-4v11h-3v16h-4v12h-4v16h-4v17h-4v11h-4v17h-4v11h-4v17h-4v22h4v6h8v5h4v-5h12v-6h7
			v-5h4v-6h4v-6h4v-5h4v-6h4v11h-4v6h-4v11h-4v6h-4v5h-4v6h-3v6h-4v5h-4V760z M508,1008h-1v4h-2v1h-1v3h-2v2h-1v1h-3v2h-3v1h-4v1
			h-10v-1h-4v-1h-3v-2h-3v-1h-2v-2h-1v-1h-1v-2h-2v-1h-1v4h1v2h2v1h1v2h-4v1h-3v1h-3v-25h6v3h1v2h2v3h1v3h1v2h2v1h1v1h3v2h2v1h15v-1
			h2v-2h1v-1h2v-3h1v-4h-1v-3h-2v-1h-1v-2h-2v-1h-3v-2h-4v-1h-4v-2h-3v-1h-4v-1h-3v-2h-3v-1h-1v-2h-3v-1h-2v-3h-1v-3h-2v-13h2v-3h1
			v-1h2v-3h1v-1h3v-2h1v-1h6v-2h9v2h4v1h3v2h3v1h1v2h2v1h1v1h1v-4h-1v-1h-1v-2h1v-1h3v-2h4v25h-6v-2h-1v-4h-1v-3h-2v-1h-1v-2h-2v-1
			h-1v-2h-2v-1h-1v-1h-4v-2h-6v2h-4v1h-2v1h-1v3h-2v5h2v2h1v3h3v2h2v1h4v2h3v1h4v1h3v2h4v1h3v2h3v1h1v2h2v1h1v1h2v5h1V1008z
			 M514,866h-2v6h-1v4h-1v3h-2v2h-1v1h-2v3h-1v1h-2v2h-1v1h-3v2h-3v1h-3v1h-4v2h-14v-2h-4v-1h-4v-1h-2v-2h-3v-1h-1v-2h-2v-1h-1v-1
			h-1v-2h-2v-3h-1v-3h-2v-4h-1v-6h-2v-11h2v-7h1v-3h2v-3h1v-2h2v-2h1v-3h1v-1h2v-2h1v-1h3v-1h3v-2h3v-1h4v-2h14v2h4v1h5v2h1v1h3v1h1
			v2h2v1h1v2h2v1h1v3h2v3h1v3h1v5h2V866z M514,642h4v-16h4v-17h4v-11h4v-11h4v-6h3v-11h4v-6h4v-5h4v-6h4v-5h4v-6h4v-6h4v-5h4v-6h7
			v-5h8v-6h8v-5h12v-6h39v6h8v5h7v6h4v5h4v6h4v45h-4v5h-4v6h-4v5h-4v6h-3v5h-4v6h-8v6h-8v5h-12v6h-11v5h-20v6h-43v5h-4v6h12v45h4v16
			h4v6h4v6h4v5h4v6h3v5h16v6h12v-6h15v-5h8v-6h4v-5h4v-6h8v-6h4v-5h4v5h-4v6h-4v11h-4v6h-4v5h-4v6h-4v6h-4v5h-4v6h-7v5h-8v6h-12v5
			h-31v-5h-8v-6h-8v-5h-8v-6h-3v-5h-4v-6h-4v-11h-4v-11h-4v-17h-4V642z M522,1012v-3h-1v-3h-2v-3h-1v-4h-1v-18h1v-5h1v-4h2v-3h1v-1
			h2v-3h1v-2h2v-1h1v-1h1v-2h3v-1h2v-2h3v-1h4v-2h13v2h4v1h3v2h3v1h1v2h2v1h1v1h1v3h2v2h1v4h2v7h1v4h-50v3h6v10h1v5h2v2h1v3h2v2h1v1
			h1v2h2v1h3v1h4v2h9v-2h5v-1h3v-1h2v-2h1v-1h1v-2h2v-1h1v-3h2v3h-2v4h-1v3h-2v1h-1v2h-1v1h-2v2h-1v1h-2v2h-3v1h-4v1h-13v-1h-5v-1
			h-3v-2h-3v-1h-3v-2h-1v-1h-2v-2h-1v-1H522z M596,1147h-1v1h-10v1h-10v2h-2v-10h2v-3h1v-1h2v-4h-2v1h-1v3h-2v1h-1v2h-1v2h-2v2h-1v1
			h-3v2h-1v1h-3v1h-3v2h-11v-2h-6v-1h-3v-1h-1v-2h-2v-1h-1v-2h-1v-1h-2v-1h-1v-3h-2v-3h-1v-3h-1v-7h-2v-10h2v-7h1v-4h1v-3h2v-3h1v-1
			h2v-3h1v-1h1v-2h2v-1h1v-1h3v-2h3v-1h3v-2h4v-1h15v1h6v2h1v-26h-1v-1h-1v-1h-3v-2h-3v-1h-3v-2h6v-1h7v-1h5v-2h6v92h1v2h3v2h3v1h3
			V1147z M599,893h-36v-4h8v-1h1v-2h1v-4h2v-37h-2v-5h-1v-2h-1v-1h-2v-2h-4v-1h-7v1h-4v2h-3v1h-2v2h-1v1h-2v1h-1v43h1v1h2v2h1v1h6v4
			h-34v-4h7v-1h1v-2h2v-1h1v-47h-1v-1h-2v-2h-2v-1h-3v-2h-3v-1h6v-1h4v-2h5v-1h6v-2h3v10h-1v2h-2v3h-1v4h1v-2h2v-2h1v-2h1v-1h2v-3h1
			v-2h3v-1h2v-1h1v-2h3v-1h4v-2h13v2h3v1h2v2h2v1h1v1h2v3h1v5h2v45h1v1h1v2h2v1h7V893z M603,889h7v-1h2v-2h1v-1h2v-47h-2v-1h-1v-2
			h-3v-1h-3v-2h-3v-1h6v-1h4v-2h6v-1h6v-2h2v10h-1v2h-1v3h-2v4h2v-2h1v-2h1v-2h2v-1h1v-3h2v-2h2v-1h2v-1h1v-2h3v-1h4v-2h13v2h3v1h3
			v2h1v1h2v1h1v3h2v5h1v45h1v1h2v2h1v1h7v4h-35v-4h7v-1h1v-2h2v-4h1v-37h-1v-5h-2v-2h-1v-1h-2v-2h-4v-1h-7v1h-4v2h-3v1h-1v2h-2v1h-1
			v1h-2v43h2v1h1v2h2v1h5v4h-34V889z M662,1111h-49v3h5v10h2v4h1v3h2v3h1v1h1v2h2v1h1v2h3v1h4v1h9v-1h5v-1h3v-2h2v-1h1v-2h1v-1h2v-1
			h1v-3h2v3h-2v4h-1v3h-2v1h-1v1h-1v2h-2v1h-1v2h-2v1h-2v1h-5v2h-12v-2h-6v-1h-3v-1h-3v-2h-2v-1h-2v-2h-1v-1h-2v-1h-1v-3h-1v-3h-2
			v-3h-1v-4h-2v-18h2v-5h1v-4h2v-3h1v-1h1v-3h2v-1h1v-2h2v-1h1v-1h3v-2h1v-1h3v-2h4v-1h13v1h4v2h3v1h3v2h1v1h2v1h1v2h1v3h2v1h1v4h2
			v7h1V1111z M661,936v-7h3v-3h-2v-1h-13v1h-2v2h-2v1h-1v2h-2v4h-1v20h18v6h-22v2h4v49h1v3h2v1h1v2h7v4h-34v-4h6v-2h3v-1h1v-54h-10
			v-6h10v-7h1v-9h2v-4h1v-3h2v-1h1v-2h2v-3h2v-1h2v-2h1v-1h5v-1h4v-2h10v2h6v1h2v1h2v2h1v1h2v3h1v3h-1v4h-2v2h-1v1h-6v-1h-3v-2H661z
			 M720,1135h-2v5h-1v1h-2v3h-1v1h-1v2h-3v1h-3v1h-4v2h-10v-2h-4v-1h-3v-1h-3v-2h-1v-1h-2v-2h-1v-1h-2v-1h-1v4h1v1h2v2h1v1h-4v1h-3
			v2h-3v-25h6v2h1v3h2v3h1v3h2v1h1v2h2v1h2v1h2v2h15v-2h2v-1h1v-1h1v-3h2v-4h-2v-3h-1v-2h-1v-1h-2v-1h-3v-2h-4v-1h-4v-2h-3v-1h-4v-2
			h-3v-1h-3v-1h-1v-2h-3v-1h-1v-3h-2v-3h-1v-12h1v-3h2v-2h1v-2h1v-2h3v-1h2v-2h5v-1h9v1h4v2h3v1h3v2h1v1h1v1h2v2h1v-4h-1v-2h-2v-1h2
			v-2h3v-1h4v24h-6v-2h-1v-4h-2v-3h-1v-1h-1v-1h-2v-2h-1v-1h-2v-2h-1v-1h-4v-1h-6v1h-4v1h-1v2h-2v3h-1v4h1v3h2v2h2v2h2v1h4v2h3v1h4
			v1h3v2h4v1h3v2h3v1h1v1h1v2h2v1h1v5h2V1135z M728,1013h-1v3h-2v2h-1v1h-2v2h-3v1h-4v1h-3v-1h-4v-1h-3v-3h-1v-6h1v-3h2v-3h-2v2h-1
			v1h-2v3h-1v1h-2v2h-1v1h-1v2h-2v1h-1v2h-3v1h-3v1h-11v-1h-5v-1h-3v-2h-1v-1h-1v-2h-2v-1h-1v-6h-2v-6h2v-4h1v-3h2v-1h1v-2h1v-1h3
			v-1h3v-2h4v-1h3v-2h5v-1h4v-2h4v-1h4v-1h3v-13h-1v-3h-2v-2h-1v-1h-1v-1h-2v-2h-11v2h-5v1h-1v1h-1v2h-2v1h4v7h-1v3h-1v2h-8v-2h-1
			v-1h-1v-3h-2v-4h2v-3h1v-3h1v-1h2v-2h3v-1h1v-2h3v-1h6v-2h15v2h5v1h3v2h2v1h2v2h1v1h2v3h1v3h2v45h1v2h7v-2h2v-1h1V1013z M732,892
			h-2v1h-5v2h-12v-2h-6v-1h-3v-1h-3v-2h-3v-1h-1v-2h-2v-1h-1v-1h-1v-3h-2v-3h-1v-3h-2v-4h-1v-19h1v-4h2v-4h1v-3h2v-1h1v-3h1v-2h2v-1
			h1v-2h2v-1h3v-1h1v-2h3v-1h4v-2h13v2h4v1h3v2h3v1h1v1h2v2h1v1h2v3h1v2h1v4h2v7h1v4h-50v3h6v10h2v4h1v3h1v3h2v1h1v2h2v1h1v2h3v1h4
			v1h9v-1h5v-1h3v-2h2v-1h1v-2h2v-1h1v-2h1v-2h2v2h-2v5h-1v3h-1v1h-2v1h-1v2h-2v1h-1v2h-2V892z M768,1022h-36v-4h7v-2h2v-1h1v-2h2
			v-47h-2v-1h-1v-2h-3v-1h-3v-1h-3v-2h6v-1h4v-2h6v-1h6v-2h3v59h1v3h1v1h2v2h7V1022z M768,891v-2h-3v-1h-1v-2h-2v-1h-1v-3h-2v-1h-1
			v-3h-1v-3h-2v-6h-1v-17h1v-4h2v-4h1v-3h1v-1h2v-3h1v-2h2v-1h1v-2h1v-1h3v-1h2v-2h3v-1h5v-2h14v2h5v1h3v2h1v1h3v1h1v3h2v3h1v7h-1v2
			h-2v1h-1v1h-6v-1h-3v-1h-1v-7h3v-3h-2v-3h-3v-2h-2v-1h-10v1h-3v2h-3v1h-1v2h-2v3h-1v2h-2v5h-1v19h1v6h2v3h1v3h2v1h1v2h1v1h2v2h3v1
			h4v1h7v-1h6v-1h3v-2h1v-1h1v-2h2v-1h1v-2h2v-1h1v1h-1v3h-2v3h-1v3h-2v1h-1v2h-1v1h-2v2h-1v1h-3v1h-4v2h-13v-2h-4v-1h-3v-1H768z
			 M815.217,1007.688h-1.429v-1.428h1.429V1007.688z M815,961h-24v2h4v46h2v3h1v1h10v-1h3v-1h1v-2h2v3h-2v3h-1v1h-2v3h-2v2h-2v1h-4
			v1h-9v-1h-3v-1h-2v-2h-2v-3h-1v-4h-2v-51h-10v-2h2v-1h1v-2h2v-1h1v-2h1v-1h2v-1h1v-2h2v-1h1v-2h2v-3h1v-1h1v-1h2v-3h1v-3h2v-3h1
			v23h20V961z M855.918,879.273h-1.42v-1.42h1.42V879.273z M856,832h-24v3h4v46h1v3h2v1h10v-1h3v-2h1v-1h1v3h-1v2h-1v2h-2v3h-3v1h-1
			v1h-4v2h-9v-2h-3v-1h-2v-1h-2v-3h-1v-4h-2v-52h-10v-1h2v-1h1v-2h2v-1h1v-2h1v-1h2v-2h1v-1h2v-1h1v-2h2v-3h1v-1h1v-1h2v-3h1v-3h2
			v-3h1v23h20V832z M911,888h-1v1h-2v2h-1v1h-3v1h-4v2h-13v-2h-6v-1h-2v-1h-3v-2h-3v-1h-1v-2h-2v-1h-1v-1h-2v-3h-1v-3h-2v-3h-1v-4
			h-1v-19h1v-4h1v-4h2v-3h1v-1h2v-3h1v-2h2v-1h1v-2h1v-1h3v-1h2v-2h2v-1h5v-2h13v2h4v1h3v2h2v1h2v1h1v2h2v1h1v3h2v2h1v4h1v7h2v4h-50
			v3h6v10h1v4h2v3h1v3h1v1h2v2h1v1h2v2h3v1h4v1h8v-1h6v-1h3v-2h1v-1h2v-2h1v-1h2v-2h1v-2h1v2h-1v5h-1v3h-2v1h-1v1h-2V888z M1104,868
			h-4v16h-4v9h-5v13h-4v15h-4v10h-4v13h-4v10h-3v15h-4v12h-4v11h-4v15h-5v10h-4v14h-4v14h-4v10h-4v14h-3v8h-4v15h-4v17h-4v5h-4v11
			h-5v11h-4v3h-4v10h-4v4h-4v6h-3v6h-8v3h-8v7h-9v3h-40v-3h-8v-7h-3v-3h-4v-6h-4v-23h4v-11h7v-4h18v4h3v4h4v10h-4v10h-9v16h25v-6h7
			v-6h4v-4h4v-7h5v-6h4v-11h4v-11h4v-11h4v-19h3v-15h4v-14h4v-10h4v-14h4v-10h5v-14h4v-15h4v-11h4v-12h4v-15h3v-10h4v-13h4v-10h4
			v-15h4v-13h5v-9h4v-16h4v-3h-32v-5h3v-10h4v-4h29v-6h3v-9h4v-10h4v-13h4v-9h4v-12h5v-3h4v-11h4v-3h4v-4h4v-7h3v-3h4v-7h4v-3h4v-4
			h9v-6h8v-6h44v6h7v6h4v4h4v3h4v31h-4v7h-8v6h-15v-6h-4v-3h-6v-18h6v-7h8v-10h-4v-3h-25v3h-7v7h-4v3h-4v7h-4v4h-5v10h-4v7h-4v15h-4
			v16h-4v13h-3v15h47v4h-4v15h-51V868z M1239,850h-4v10h-4v14h-4v10h-3v14h-4v8h-4v15h-6v10h-3v13h-4v10h-4v15h-4v10h-4v9h-3v14h-4
			v15h-4v23h4v5h7v-5h8v-5h8v-4h3v-6h6v-4h4v-4h4v-7h3v-3h4v10h-4v4h-3v4h-4v6h-4v4h-6v5h-3v5h-4v3h-4v7h-4v4h-7v5h-4v5h-17v5h-12
			v-5h-7v-5h-4v-5h-4v-28h4v-14h4v-15h3v-10h4v-13h4v-10h4v-15h4v-10h3v-13h6v-10h4v-8h4v-15h4v-14h3v-7h-3v-9h-4v-3h-8v-5h-9v-6h13
			v-4h23v-4h21v-6h15V850z M1351,846h-4v14h-4v8h-3v16h-4v9h-6v13h-4v11h-4v14h-3v13h-4v10h-4v15h-4v10h-4v13h-3v10h-4v15h-6v23h6v5
			h7v-5h8v-5h8v-4h3v-6h4v-4h4v-4h6v-7h4v-3h3v10h-3v4h-4v4h-6v6h-4v4h-4v5h-3v5h-4v3h-4v7h-4v4h-4v5h-7v5h-17v5h-8v-5h-11v-5h-4v-9
			h-6v-24h6v-14h4v-10h4v-15h3v-13h4v-10h4v-15h4v-10h4v-13h3v-10h4v-15h6v-8h4v-14h3v-10h4v-14h4v-10h4v-14h4v-11h3v-14h4v-9h4v-15
			h6v-14h4v-14h-4v-3h-6v-7h-8v-3h-7v-4h25v-6h19v-6h24v-3h4v9h-4v13h-4v10h-3v14h-6v14h-4v12h-4v12h-3v10h-4v15h-4V846z M1670,1010
			h-4v7h-3v4h-4v10h-4v4h-4v5h-6v5h-3v3h-4v7h-4v4h-8v5h-7v5h-13v5h-12v-5h-7v-5h-4v-5h-4v-34h4v-15h4v-8h3v-14h4v-9h4v-15h4v-10h4
			v-13h5v-10h4v-14h4v-14h4v-10h3v-19h-3v-6h-21v6h-8v3h-4v7h-7v4h-4v5h-4v5h-4v5h-5v3h-4v7h-4v4h-4v9h-4v5h-3v5h-4v8h-4v7h-4v7h-4
			v14h-5v9h-4v17h-4v12h-4v11h-3v14h-4v10h-4v14h-4v10h-36v-5h4v-16h4v-8h3v-15h4v-15h4v-8h4v-14h6v-9h3v-15h4v-13h4v-10h4v-15h4v-9
			h3v-14h4v-35h-23v6h-9v3h-4v7h-8v4h-3v5h-4v5h-4v5h-4v3h-4v7h-5v4h-4v9h-4v5h-4v5h-3v8h-4v7h-4v7h-4v14h-4v9h-3v17h-6v12h-4v15h-4
			v10h-4v13h-3v16h-4v5h-36v-5h4v-9h3v-15h4v-9h4v-14h6v-10h3v-15h4v-11h4v-12h4v-15h4v-10h3v-13h4v-10h4v-15h4v-13h6v-25h-6v-3h-8
			v-5h-11v-6h15v-4h21v-4h19v-6h21v6h-4v8h-4v14h-4v9h-5v11h-4v5h-4v10h-4v3h-3v11h3v-4h4v-7h4v-8h4v-5h5v-5h4v-4h4v-7h4v-3h4v-6h3
			v-3h8v-5h4v-6h9v-4h4v-4h12v-6h24v6h12v4h3v4h4v39h-4v5h-3v5h-4v10h-4v13h4v-9h4v-4h3v-7h4v-3h4v-10h4v-5h4v-4h5v-7h4v-3h4v-6h4
			v-3h4v-5h7v-6h4v-4h8v-4h13v-6h23v6h9v4h4v4h4v6h4v38h-4v8h-4v15h-4v10h-6v10h-3v13h-4v10h-4v15h-4v9h-4v10h-3v12h-4v7h-4v23h4v5
			h7v-5h12v-5h4v-4h3v-6h10v-4h4v-4h4v-7h3v-3h4V1010z M1671,600h-4v17h-4v16h-4v12h-4v16h-4v11h-35v-5h4v-17h4v-11h4v-17h4v-11h4
			v-17h3v-16h4v-12h4v-16h4v-11h4v-17h4v-17h4v-11h4v-17h4v-11h4v-22h-4v-6h-4v-6h-8v-5h-8v-6h16v-5h19v-6h20v-5h19v5h-4v11h-4v11
			h-3v17h-4v11h-4v6h-4v6h-4v11h-4v11h4v-6h4v-5h4v-11h4v-6h4v-6h3v-5h4v-6h4v-5h4v-6h4v-6h8v-5h4v-6h8v-5h3v-6h12v-5h27v5h8v6h4v5
			h4v6h4v45h-4v16h-4v11h-4v12h-4v16h-4v12h-4v11h-3v16h-4v12h-4v16h-4v11h-4v17h-4v17h4v6h12v-6h7v-6h4v-5h4v-6h4v-5h8v-6h4v-6h4
			v-5h4v5h-4v6h-4v11h-4v6h-4v5h-4v6h-4v6h-4v5h-4v6h-3v5h-8v6h-8v5h-12v6h-11v-6h-8v-5h-4v-6h-4v-33h4v-17h4v-17h4v-11h4v-11h4v-11
			h3v-17h4v-11h4v-17h4v-11h4v-11h4v-17h4v-11h4v-17h-4v-5h-4v-6h-23v6h-8v5h-4v6h-8v5h-4v6h-4v6h-4v5h-4v6h-3v5h-4v6h-4v11h-4v6h-4
			v5h-4v6h-4v11h-4v11h-4v17h-4v11h-3v17h-4V600z M1826,906h-4v11h-25v-4h-3v-10h-4v-15h11v-11h-4v-9h-3v-3h-8v-5h-28v5h-8v3h-4v6
			h-4v32h4v7h4v4h4v4h4v5h3v5h4v5h6v5h4v10h3v3h4v4h4v6h4v5h4v3h3v9h4v44h-4v10h-3v10h-4v3h-4v7h-4v4h-7v5h-10v5h-11v5h-36v-5h-12
			v-5h-7v-5h-8v-4h-6v-7h-3v-3h-4v-14h-4v-21h4v-8h4v-4h3v-6h17v6h4v4h4v23h-8v15h4v5h4v3h4v7h36v-7h8v-3h3v-5h4v-9h6v-24h-6v-9h-4
			v-6h-3v-4h-4v-7h-4v-2h-4v-7h-4v-3h-3v-5h-4v-6h-4v-4h-6v-3h-4v-10h-3v-5h-4v-10h-4v-38h4v-14h4v-6h3v-8h10v-6h4v-4h7v-4h12v-6h32
			v6h11v4h8v4h6v6h4v5h3v3h4v9h4V906z M1998,477h-4v6h-4v5h-3v6h-4v5h-4v6h-4v6h-8v5h-8v6h-11v5h-12v6h-20v6h-43v5h-3v6h11v44h4v17
			h4v6h4v5h4v6h4v5h4v6h15v6h12v-6h16v-6h7v-5h4v-6h4v-5h8v-6h4v-6h4v6h-4v6h-4v11h-4v5h-4v6h-4v6h-4v5h-4v6h-3v5h-8v6h-8v5h-12v6
			h-31v-6h-8v-5h-8v-6h-7v-5h-4v-6h-4v-5h-4v-12h-4v-11h-4v-17h-4v-61h4v-17h4v-16h4v-12h4v-11h4v-5h4v-11h4v-6h3v-6h4v-5h4v-6h4v-5
			h4v-6h4v-6h4v-5h8v-6h7v-5h8v-6h12v-5h39v5h8v6h8v5h3v6h4v5h4V477z"/>
		<rect x="1070" y="483" fill="#0F0F0F" width="4" height="11"/>
		<polygon fill="#0F0F0F" points="1472,633 1476,633 1476,645 1479,645 1479,650 1487,650 1487,656 1507,656 1507,650 1518,650 
			1518,645 1522,645 1522,639 1526,639 1526,633 1530,633 1530,628 1534,628 1534,622 1538,622 1538,617 1542,617 1542,605 
			1546,605 1546,600 1550,600 1550,589 1554,589 1554,578 1557,578 1557,561 1561,561 1561,544 1565,544 1565,516 1569,516 
			1569,466 1565,466 1565,449 1561,449 1561,438 1554,438 1554,432 1546,432 1546,427 1530,427 1530,432 1518,432 1518,438 
			1515,438 1515,444 1507,444 1507,449 1503,449 1503,460 1499,460 1499,466 1495,466 1495,472 1491,472 1491,483 1487,483 
			1487,494 1483,494 1483,505 1479,505 1479,522 1476,522 1476,539 1472,539 1472,561 1468,561 1468,622 1472,622 		"/>
		<polygon fill="#0F0F0F" points="1963,432 1959,432 1959,427 1951,427 1951,421 1940,421 1940,427 1928,427 1928,432 1924,432 
			1924,438 1920,438 1920,444 1912,444 1912,455 1909,455 1909,460 1905,460 1905,466 1901,466 1901,477 1897,477 1897,488 
			1893,488 1893,499 1889,499 1889,516 1885,516 1885,522 1905,522 1905,516 1924,516 1924,511 1936,511 1936,505 1944,505 
			1944,499 1951,499 1951,494 1955,494 1955,488 1959,488 1959,483 1963,483 1963,477 1967,477 1967,438 1963,438 		"/>
		<rect x="1686" y="505" fill="#0F0F0F" width="4" height="6"/>
		<polygon fill="#0F0F0F" points="922.124,297.468 920.769,297.439 920.882,292.016 919.527,291.987 919.583,289.277 
			918.229,289.249 918.257,287.893 916.902,287.864 916.93,286.509 915.573,286.48 915.602,285.125 912.889,285.068 
			912.917,283.712 904.785,283.542 904.756,284.898 902.046,284.841 902.018,286.197 899.306,286.14 899.249,288.851 
			897.894,288.823 897.865,290.179 896.51,290.15 896.453,292.861 895.097,292.833 894.983,298.256 893.627,298.228 
			893.542,302.293 922.01,302.89 		"/>
		<polygon fill="#0F0F0F" points="1046,633 1054,633 1054,639 1058,639 1058,645 1070,645 1070,650 1101,650 1101,645 1109,645 
			1109,639 1117,639 1117,633 1121,633 1121,628 1124,628 1124,622 1128,622 1128,617 1132,617 1132,611 1136,611 1136,600 
			1140,600 1140,594 1144,594 1144,583 1148,583 1148,572 1152,572 1152,561 1156,561 1156,544 1160,544 1160,527 1163,527 
			1163,460 1160,460 1160,449 1156,449 1156,444 1152,444 1152,438 1132,438 1132,444 1124,444 1124,449 1117,449 1117,455 
			1113,455 1113,460 1109,460 1109,466 1105,466 1105,472 1101,472 1101,477 1097,477 1097,483 1093,483 1093,488 1089,488 
			1089,494 1085,494 1085,499 1082,499 1082,511 1078,511 1078,516 1074,516 1074,527 1070,527 1070,539 1066,539 1066,550 
			1062,550 1062,561 1058,561 1058,572 1054,572 1054,589 1050,589 1050,600 1046,600 1046,617 1043,617 1043,622 1046,622 		"/>
		<polygon fill="#0F0F0F" points="850,615 869,615 869,609 881,609 881,603 888,603 888,598 896,598 896,592 900,592 900,587 
			904,587 904,581 908,581 908,576 912,576 912,536 908,536 908,531 904,531 904,525 896,525 896,520 885,520 885,525 873,525 
			873,531 869,531 869,536 865,536 865,542 857,542 857,553 853,553 853,559 850,559 850,564 846,564 846,576 842,576 842,587 
			838,587 838,598 834,598 834,615 830,615 830,620 850,620 		"/>
		<rect x="1062" y="505" fill="#0F0F0F" width="4" height="6"/>
		<rect x="1690" y="494" fill="#0F0F0F" width="4" height="11"/>
	</g>
</g>
<g id="Calque_2" display="none">
	<rect x="525.5" y="433.5" display="inline" fill="none" stroke="#E72D00" stroke-miterlimit="10" width="1278" height="720"/>
</g>
</svg>
