<?xml version="1.0" encoding="utf-8"?>
<!-- Generator: Adobe Illustrator 16.0.0, SVG Export Plug-In . SVG Version: 6.00 Build 0)  -->
<!DOCTYPE svg PUBLIC "-//W3C//DTD SVG 1.1//EN" "http://www.w3.org/Graphics/SVG/1.1/DTD/svg11.dtd">
<svg version="1.1" xmlns="http://www.w3.org/2000/svg" xmlns:xlink="http://www.w3.org/1999/xlink" x="0px" y="0px" width="1805px"
	 height="3101px" viewBox="0 0 1805 3101" enable-background="new 0 0 1805 3101" xml:space="preserve">
<g id="Calque_1">
	<g>
		<rect x="978" y="2020" fill="#0F0F0F" width="4" height="9"/>
		<rect x="493" y="1336" fill="#0F0F0F" width="3" height="12"/>
		<rect x="1095" y="2029" fill="#0F0F0F" width="4" height="5"/>
		<rect x="974" y="2029" fill="#0F0F0F" width="4" height="5"/>
		<rect x="489" y="1348" fill="#0F0F0F" width="4" height="5"/>
		<polygon fill="#0F0F0F" points="1095,1025 1114,1025 1114,1020 1126,1020 1126,1014 1134,1014 1134,1009 1141,1009 1141,1003 
			1145,1003 1145,997 1149,997 1149,992 1153,992 1153,986 1157,986 1157,947 1153,947 1153,942 1149,942 1149,936 1141,936 
			1141,930 1130,930 1130,936 1118,936 1118,942 1114,942 1114,947 1110,947 1110,953 1102,953 1102,964 1098,964 1098,969 
			1095,969 1095,975 1091,975 1091,986 1087,986 1087,997 1083,997 1083,1009 1079,1009 1079,1025 1075,1025 1075,1031 1095,1031 		
			"/>
		<polygon fill="#0F0F0F" points="526,935 528,935 528,937 529,937 529,938 533,938 533,939 539,939 539,938 541,938 541,937 
			544,937 544,935 545,935 545,934 547,934 547,933 548,933 548,931 550,931 550,929 551,929 551,910 550,910 550,911 545,911 
			545,912 541,912 541,914 537,914 537,915 535,915 535,916 532,916 532,918 529,918 529,919 528,919 528,920 526,920 526,923 
			525,923 525,933 526,933 		"/>
		<polygon fill="#0F0F0F" points="569,1715 567,1715 567,1710 566,1710 566,1707 564,1707 564,1705 563,1705 563,1704 562,1704 
			562,1702 559,1702 559,1701 550,1701 550,1702 547,1702 547,1704 544,1704 544,1707 543,1707 543,1708 542,1708 542,1711 
			540,1711 540,1717 539,1717 539,1721 569,1721 		"/>
		<polygon fill="#0F0F0F" points="353,912 354,912 354,918 356,918 356,922 357,922 357,924 358,924 358,927 360,927 360,929 
			361,929 361,927 362,927 362,924 364,924 364,923 365,923 365,922 366,922 366,920 368,920 368,919 371,919 371,918 384,918 
			384,919 387,919 387,920 388,920 388,922 390,922 390,923 391,923 391,924 392,924 392,927 394,927 394,929 395,929 395,931 
			396,931 396,934 399,934 399,933 400,933 400,931 402,931 402,930 403,930 403,927 404,927 404,926 406,926 406,922 407,922 
			407,919 408,919 408,912 410,912 410,887 408,887 408,880 407,880 407,876 406,876 406,873 404,873 404,870 403,870 403,868 
			402,868 402,865 400,865 400,863 399,863 399,862 398,862 398,861 396,861 396,859 395,859 395,858 392,858 392,857 391,857 
			391,855 385,855 385,854 375,854 375,855 371,855 371,857 368,857 368,858 366,858 366,859 364,859 364,861 362,861 362,862 
			361,862 361,863 360,863 360,866 358,866 358,868 357,868 357,870 356,870 356,873 354,873 354,878 353,878 353,884 352,884 
			352,905 353,905 		"/>
		<polygon fill="#0F0F0F" points="401.181,2131.472 406.437,2133.473 406.938,2132.162 409.565,2133.163 410.066,2131.849 
			412.692,2132.85 413.193,2131.537 414.508,2132.037 415.007,2130.724 416.32,2131.225 416.822,2129.909 418.136,2130.411 
			418.636,2129.096 419.952,2129.598 420.952,2126.97 422.265,2127.47 423.769,2123.529 425.083,2124.031 427.084,2118.776 
			425.771,2118.278 426.772,2115.647 425.458,2115.147 426.459,2112.521 425.145,2112.02 426.146,2109.392 424.833,2108.89 
			425.334,2107.578 424.021,2107.076 424.521,2105.762 423.207,2105.262 423.708,2103.947 385.611,2089.43 385.109,2090.742 
			383.795,2090.242 383.294,2091.556 381.981,2091.056 380.979,2093.681 379.667,2093.184 378.165,2097.122 376.851,2096.621 
			373.347,2105.817 374.66,2106.317 373.658,2108.946 374.972,2109.446 373.971,2112.072 375.283,2112.572 374.784,2113.887 
			376.097,2114.388 375.597,2115.703 376.909,2116.204 376.409,2117.518 377.723,2118.018 377.223,2119.331 379.85,2120.332 
			379.349,2121.646 381.978,2122.648 381.478,2123.961 386.732,2125.964 386.23,2127.277 400.679,2132.786 		"/>
		<rect x="485" y="1359" fill="#0F0F0F" width="4" height="5"/>
		<polygon fill="#0F0F0F" points="469,1487 477,1487 477,1493 481,1493 481,1498 493,1498 493,1504 524,1504 524,1498 532,1498 
			532,1493 539,1493 539,1487 543,1487 543,1482 547,1482 547,1476 551,1476 551,1470 555,1470 555,1465 559,1465 559,1454 
			563,1454 563,1448 567,1448 567,1437 571,1437 571,1426 574,1426 574,1415 578,1415 578,1398 582,1398 582,1381 586,1381 
			586,1314 582,1314 582,1303 578,1303 578,1297 574,1297 574,1292 555,1292 555,1297 547,1297 547,1303 539,1303 539,1309 
			535,1309 535,1314 532,1314 532,1320 528,1320 528,1325 524,1325 524,1331 520,1331 520,1336 516,1336 516,1342 512,1342 
			512,1348 508,1348 508,1353 504,1353 504,1364 500,1364 500,1370 496,1370 496,1381 493,1381 493,1392 489,1392 489,1403 
			485,1403 485,1415 481,1415 481,1426 477,1426 477,1442 473,1442 473,1454 469,1454 469,1470 465,1470 465,1476 469,1476 		"/>
		<polygon fill="#0F0F0F" points="1386,1286 1382,1286 1382,1281 1374,1281 1374,1275 1362,1275 1362,1281 1351,1281 1351,1286 
			1347,1286 1347,1292 1343,1292 1343,1297 1335,1297 1335,1309 1331,1309 1331,1314 1327,1314 1327,1320 1323,1320 1323,1331 
			1320,1331 1320,1342 1316,1342 1316,1353 1312,1353 1312,1370 1308,1370 1308,1375 1327,1375 1327,1370 1347,1370 1347,1364 
			1359,1364 1359,1359 1366,1359 1366,1353 1374,1353 1374,1348 1378,1348 1378,1342 1382,1342 1382,1336 1386,1336 1386,1331 
			1390,1331 1390,1292 1386,1292 		"/>
		<polygon fill="#0F0F0F" points="1424,1608 1423,1608 1423,1605 1421,1605 1421,1603 1420,1603 1420,1602 1419,1602 1419,1600 
			1416,1600 1416,1599 1407,1599 1407,1600 1404,1600 1404,1602 1401,1602 1401,1605 1400,1605 1400,1606 1399,1606 1399,1609 
			1397,1609 1397,1615 1396,1615 1396,1619 1426,1619 1426,1613 1424,1613 		"/>
		<polygon fill="#0F0F0F" points="994,1656 997,1656 997,1657 1005,1657 1005,1656 1010,1656 1010,1654 1011,1654 1011,1653 
			1012,1653 1012,1652 1014,1652 1014,1650 1015,1650 1015,1647 1017,1647 1017,1643 1018,1643 1018,1637 1020,1637 1020,1623 
			1018,1623 1018,1616 1017,1616 1017,1612 1015,1612 1015,1609 1014,1609 1014,1606 1012,1606 1012,1605 1011,1605 1011,1603 
			1010,1603 1010,1602 1008,1602 1008,1600 1004,1600 1004,1599 997,1599 997,1600 993,1600 993,1602 991,1602 991,1603 990,1603 
			990,1605 988,1605 988,1606 987,1606 987,1608 986,1608 986,1612 984,1612 984,1617 983,1617 983,1634 984,1634 984,1642 
			986,1642 986,1646 987,1646 987,1649 988,1649 988,1650 990,1650 990,1652 991,1652 991,1653 993,1653 993,1654 994,1654 		"/>
		<rect x="1113" y="1348" fill="#0F0F0F" width="4" height="11"/>
		<polygon fill="#0F0F0F" points="894,1487 898,1487 898,1498 902,1498 902,1504 910,1504 910,1509 929,1509 929,1504 941,1504 
			941,1498 945,1498 945,1493 949,1493 949,1487 953,1487 953,1482 957,1482 957,1476 961,1476 961,1470 965,1470 965,1459 
			968,1459 968,1454 972,1454 972,1442 976,1442 976,1431 980,1431 980,1415 984,1415 984,1398 988,1398 988,1370 992,1370 
			992,1320 988,1320 988,1303 984,1303 984,1292 976,1292 976,1286 968,1286 968,1281 953,1281 953,1286 941,1286 941,1292 
			937,1292 937,1297 929,1297 929,1303 926,1303 926,1314 922,1314 922,1320 918,1320 918,1325 914,1325 914,1336 910,1336 
			910,1348 906,1348 906,1359 902,1359 902,1375 898,1375 898,1392 894,1392 894,1415 890,1415 890,1476 894,1476 		"/>
		<path fill="#0F0F0F" d="M0,0v3101h1805V0H0z M1200,1109h4v-17h4v-17h4v-11h4v-16h3v-12h4v-16h4v-11h4v-17h4v-11h4v-17h4v-11h4v-17
			h4v-11h3v-17h4v-11h4v-17h4v-11h4v-17h4v-17h4v-16h-4v-6h-4v-5h-8v-6h-8v-6h24v-5h19v-6h24v-5h4v11h-4v17h-4v11h-4v16h-4v17h-4v11
			h-4v17h-4v11h-4v17h-3v11h-4v17h-4v11h-4v17h-4v11h-4v17h-4v11h-4v17h-4v16h-4v12h-3v16h-4v11h-4v17h-4v11h-4v17h-4v28h4v6h8v-6h8
			v-6h7v-5h4v-6h4v-5h4v-6h4v-5h4v-6h4v11h-4v6h-4v5h-4v6h-4v5h-4v6h-4v6h-4v5h-3v6h-4v5h-4v6h-8v5h-16v6h-7v-6h-12v-5h-4v-11h-4
			v-28h4v-17h4V1109z M1401,1264v5h8v6h4v6h4v5h4v45h-4v5h-4v6h-4v6h-4v5h-4v6h-3v5h-8v6h-8v5h-12v6h-11v6h-20v5h-43v6h-4v5h12v45h4
			v17h4v5h4v6h4v6h3v5h4v6h16v5h12v-5h15v-6h8v-5h4v-6h4v-6h8v-5h4v-6h3v6h-3v5h-4v12h-4v5h-4v6h-4v5h-4v6h-4v5h-4v6h-8v6h-7v5h-12
			v6h-31v-6h-8v-5h-8v-6h-8v-6h-4v-5h-3v-6h-4v-11h-4v-11h-4v-17h-4v-61h4v-17h4v-17h4v-11h4v-11h3v-6h4v-11h4v-5h4v-6h4v-5h4v-6h4
			v-6h4v-5h4v-6h4v-5h7v-6h8v-6h8v-5h12v-6h39v6H1401z M1428,1561v1h2v7h-2v2h-1v1h-3v1h-1v2h-3v1h-3v2h-3v1h-3v2h-3v1h-1v1h-3v2h-3
			v-2h2v-2h1v-2h2v-1h1v-3h1v-2h2v-2h1v-2h2v-3h1v-1h2v-1h1v-2h1v-1h2v-2h7v2H1428z M1352,1600v3h4v46h1v3h2v1h10v-1h3v-2h1v-1h1v3
			h-1v2h-1v2h-2v3h-3v1h-1v1h-4v2h-9v-2h-3v-1h-2v-1h-2v-3h-1v-4h-2v-52h-10v-1h2v-1h1v-2h2v-1h1v-2h1v-1h2v-2h1v-1h2v-1h1v-2h2v-3
			h1v-1h1v-1h2v-3h1v-3h2v-3h1v23h20v5H1352z M1375.918,1645.854v1.42h-1.42v-1.42H1375.918z M1294,1661v-1h-3v-1h-3v-2h-3v-1h-1v-2
			h-2v-1h-1v-3h-2v-1h-1v-3h-1v-3h-2v-6h-1v-17h1v-4h2v-4h1v-3h1v-1h2v-3h1v-2h2v-1h1v-2h1v-1h3v-1h2v-2h3v-1h5v-2h14v2h5v1h3v2h1v1
			h3v1h1v3h2v3h1v7h-1v2h-2v1h-1v1h-6v-1h-3v-1h-1v-7h3v-3h-2v-3h-3v-2h-2v-1h-10v1h-3v2h-3v1h-1v2h-2v3h-1v2h-2v5h-1v19h1v6h2v3h1
			v3h2v1h1v2h1v1h2v2h3v1h4v1h7v-1h6v-1h3v-2h1v-1h1v-2h2v-1h1v-2h2v-1h1v1h-1v3h-2v3h-1v3h-2v1h-1v2h-1v1h-2v2h-1v1h-3v1h-4v2h-13
			v-2H1294z M1176,1613v-5h-2v-2h-1v-1h-2v-2h-4v-1h-7v1h-4v2h-3v1h-1v2h-2v1h-1v1h-2v43h2v1h1v2h2v1h5v4h-34v-4h7v-1h2v-2h1v-1h2
			v-47h-2v-1h-1v-2h-3v-1h-3v-2h-3v-1h6v-1h4v-2h6v-1h6v-2h2v10h-1v2h-1v3h-2v4h2v-2h1v-2h1v-2h2v-1h1v-3h2v-2h2v-1h2v-1h1v-2h3v-1
			h4v-2h13v2h3v1h3v2h1v1h2v1h1v3h2v5h1v45h1v1h2v2h1v1h7v4h-35v-4h7v-1h1v-2h2v-4h1v-37H1176z M1195,1521v5h-12v6h-12v-6h-8v-5h-3
			v-6h-4v-33h4v-17h3v-17h4v-11h4v-11h4v-11h4v-17h4v-11h4v-17h4v-11h4v-11h4v-17h3v-11h4v-17h-4v-6h-3v-5h-24v5h-8v6h-4v6h-7v5h-4
			v6h-4v5h-4v6h-4v5h-4v6h-4v6h-4v11h-4v5h-3v6h-4v5h-4v12h-4v11h-4v17h-4v11h-4v16h-4v12h-4v16h-4v17h-3v11h-4v17h-4v11h-35v-5h4
			v-17h4v-11h3v-17h4v-11h4v-17h4v-17h4v-11h4v-17h4v-11h4v-17h4v-16h3v-11h4v-17h4v-11h4v-23h-4v-5h-4v-6h-7v-5h-8v-6h15v-6h20v-5
			h19v-6h20v6h-4v11h-4v11h-4v17h-4v11h-4v6h-4v5h-3v11h-4v12h4v-6h3v-6h4v-11h4v-5h4v-6h4v-5h4v-6h4v-6h4v-5h4v-6h7v-5h4v-6h8v-6h4
			v-5h12v-6h27v6h8v5h4v6h4v6h4v44h-4v17h-4v11h-4v11h-4v17h-4v11h-4v11h-4v17h-4v11h-4v17h-3v11h-4v17h-4v17h4v5h11v-5h8v-6h4v-5h4
			v-6h4v-6h8v-5h4v-6h3v-5h4v5h-4v6h-3v11h-4v6h-4v5h-4v6h-4v5h-4v6h-4v5h-4v6h-8v6H1195z M1093,1613v-5h-1v-2h-1v-1h-2v-2h-4v-1h-7
			v1h-4v2h-3v1h-2v2h-1v1h-2v1h-1v43h1v1h2v2h1v1h6v4h-34v-4h7v-1h1v-2h2v-1h1v-47h-1v-1h-2v-2h-2v-1h-3v-2h-3v-1h6v-1h4v-2h5v-1h6
			v-2h3v10h-1v2h-2v3h-1v4h1v-2h2v-2h1v-2h1v-1h2v-3h1v-2h3v-1h2v-1h1v-2h3v-1h4v-2h13v2h3v1h2v2h2v1h1v1h2v3h1v5h2v45h1v1h1v2h2v1
			h7v4h-36v-4h8v-1h1v-2h1v-4h2v-37H1093z M1111,875h4v-6h4v-6h4v-5h4v-6h4v-11h4v-6h4v-5h4v-6h3v-5h4v-6h4v-11h4v-6h4v-5h4v-6h8v-5
			h15v5h8v28h-4v11h-4v6h-8v5h-7v6h-8v6h-8v5h-8v6h-7v5h-8v6h-8v6h-8v5h-8V875z M1048,997h4v-5h4v-11h3v-6h4v-6h4v-5h4v-6h4v-5h4v-6
			h4v-5h4v-6h8v-6h7v-5h8v-6h12v-5h39v5h8v6h7v5h4v6h4v6h4v44h-4v6h-4v5h-4v6h-3v6h-4v5h-4v6h-8v5h-8v6h-12v5h-11v6h-20v6h-43v5h-4
			v6h12v44h4v17h4v6h4v5h4v6h4v5h4v6h15v6h12v-6h15v-6h8v-5h4v-6h4v-5h8v-6h4v-5h4v5h-4v6h-4v11h-4v5h-4v6h-4v6h-4v5h-4v6h-4v5h-7v6
			h-8v5h-12v6h-31v-6h-8v-5h-8v-6h-7v-5h-4v-6h-4v-5h-4v-12h-4v-11h-4v-16h-4v-62h4v-17h4v-16h4v-11h4V997z M990,1661v-1h-4v-1h-2
			v-2h-3v-1h-1v-2h-2v-1h-1v-1h-1v-2h-2v-3h-1v-3h-2v-4h-1v-6h-2v-11h2v-7h1v-3h2v-3h1v-2h2v-2h1v-3h1v-1h2v-2h1v-1h3v-1h3v-2h3v-1
			h4v-2h14v2h4v1h5v2h1v1h3v1h1v2h2v1h1v2h2v1h1v3h2v3h1v3h1v5h2v14h-2v6h-1v4h-1v3h-2v2h-1v1h-2v3h-1v1h-2v2h-1v1h-3v2h-3v1h-3v1
			h-4v2h-14v-2H990z M903,1137h4v-22h4v-17h4v-17h4v-11h4v-17h4v-17h4v-11h4v-16h4v-17h3v-11h4v-17h4v-17h4v-5h-35v-6h8v-6h8v-5h7
			v-6h4v-5h8v-6h4v-6h8v-5h4v-6h4v-5h4v-6h7v-5h4v-6h4v-6h4v-5h4v-6h4v-5h4v-6h4v-6h4v-5h3v5h-3v12h-4v16h-4v17h-4v11h-4v17h-4v11
			h51v6h-4v17h-66v11h11v5h-4v11h-4v17h-3v11h-4v17h-4v11h-4v17h-4v17h-4v11h-4v17h-4v11h-4v17h-4v22h4v5h8v6h4v-6h12v-5h8v-6h3v-5
			h4v-6h4v-5h4v-6h4v11h-4v6h-4v11h-4v5h-4v6h-3v6h-4v5h-4v6h-4v5h-4v6h-8v5h-35v-5h-4v-6h-4v-5h-4v-17h-4V1137z M867,1348h4v-6h4
			v-11h4v-6h4v-11h4v-5h3v-6h4v-6h4v-5h8v-6h4v-5h4v-6h8v-6h11v-5h12v-6h35v6h12v5h8v6h4v6h3v5h4v6h4v11h4v11h4v17h4v56h-4v22h-4v17
			h-4v11h-4v11h-4v6h-3v11h-4v5h-4v6h-4v6h-4v5h-4v6h-4v5h-4v6h-4v5h-7v6h-8v6h-8v5h-12v6h-35v-6h-12v-5h-7v-6h-4v-6h-4v-5h-4v-6h-4
			v-5h-4v-11h-4v-17h-4v-73h4v-17h4v-16h4V1348z M926,1661v-1h-3v-1h-3v-2h-3v-1h-1v-2h-1v-1h-2v-3h-1v-1h-2v-3h-1v-3h-2v-6h-1v-17
			h1v-4h2v-4h1v-3h2v-1h1v-3h2v-2h1v-1h1v-2h2v-1h3v-1h1v-2h3v-1h6v-2h14v2h4v1h3v2h1v1h3v1h2v3h1v3h1v7h-1v2h-1v1h-2v1h-6v-1h-2v-1
			h-2v-7h3v-3h-1v-3h-3v-2h-3v-1h-10v1h-3v2h-3v1h-1v2h-2v3h-1v2h-1v5h-2v19h2v6h1v3h1v3h2v1h1v2h2v1h1v2h3v1h4v1h7v-1h6v-1h3v-2h1
			v-1h2v-2h1v-1h2v-2h1v-1h1v1h-1v3h-1v3h-2v3h-1v1h-2v2h-1v1h-2v2h-1v1h-3v1h-4v2h-13v-2H926z M810,905h1v-4h2v-4h1v-2h1v-2h2v-2h1
			v-2h1v-1h2v-1h1v-2h3v-1h1v-2h3v-1h4v-1h12v1h4v1h3v2h3v1h1v2h1v1h2v1h1v3h1v1h2v4h1v7h2v4h-48v3h5v9h2v4h1v3h2v3h1v1h1v2h2v1h1v1
			h3v2h4v1h8v-1h5v-2h3v-1h1v-1h2v-2h1v-1h1v-1h2v-3h1v3h-1v4h-2v2h-1v2h-1v1h-2v1h-1v2h-1v1h-2v1h-2v2h-4v1h-13v-1h-5v-2h-3v-1h-3
			v-1h-2v-2h-2v-1h-1v-1h-1v-2h-2v-2h-1v-3h-1v-3h-2v-4h-1V905z M769,941h7v-2h1v-1h2v-1h1v-79h-1v-1h-2v-2h-2v-1h-3v-1h-3v-2h6v-1
			h6v-1h6v-2h5v88h2v3h1v1h1v2h7v4h-34V941z M659,911h2v-7h1v-4h1v-3h2v-2h1v-2h2v-2h1v-2h1v-1h2v-1h1v-2h3v-1h2v-2h3v-1h4v-1h15v1
			h5v1h2v-24h-2v-1h-1v-2h-3v-1h-2v-1h-3v-2h5v-1h7v-1h6v-2h5v88h1v3h3v1h3v2h3v1h-2v1h-9v2h-10v1h-1v-9h1v-3h2v-1h1v-4h-1v1h-2v3
			h-1v1h-2v1h-1v3h-1v1h-2v2h-2v1h-2v1h-2v2h-3v1h-11v-1h-5v-2h-3v-1h-1v-1h-2v-2h-1v-1h-1v-1h-2v-2h-1v-2h-2v-3h-1v-3h-1v-7h-2V911
			z M656,1426h4v-17h4v-17h4v-11h4v-17h4v-11h4v-17h4v-11h4v-16h3v-12h4v-16h4v-12h4v-16h4v-17h4v-11h4v-17h4v-11h4v-22h4v-6h-4v-11
			h-4v-6h-8v-5h-8v-6h20v-5h23v-6h23v-6h4v12h-4v16h-3v11h-4v17h-4v11h-4v17h-4v11h-4v17h-4v11h-4v17h-4v11h-4v17h-3v11h-4v11h-4v6
			h-4v11h-4v5h-4v12h4v-6h4v-6h4v-5h4v-11h4v-6h3v-5h4v-6h4v-6h4v-5h8v-6h4v-5h4v-6h8v-6h7v-5h12v-6h23v6h12v5h4v6h4v17h4v17h-4v22
			h-4v11h-4v17h-4v11h-4v17h-4v11h-3v11h-4v17h-4v11h-4v11h-4v17h-4v33h12v-5h8v-6h7v-5h4v-6h4v-6h4v-5h8v-6h4v6h-4v5h-4v6h-4v6h-4
			v5h-4v6h-4v5h-4v6h-3v5h-4v6h-4v6h-8v5h-16v6h-7v-6h-12v-5h-4v-12h-4v-22h4v-17h4v-16h4v-12h4v-16h4v-11h3v-17h4v-11h4v-12h4v-16
			h4v-11h4v-17h4v-11h4v-17h-4v-11h-24v5h-7v6h-8v6h-4v5h-4v6h-4v5h-4v6h-4v5h-4v6h-3v6h-4v5h-4v6h-4v11h-4v5h-4v6h-4v11h-4v11h-4
			v17h-4v17h-3v11h-4v17h-4v11h-4v17h-4v11h-4v17h-4v5h-31v-17h4v-11h4v-16h4v-17h4v-11h4v-17h3V1426z M799,1702v3h4v46h1v3h2v1h10
			v-1h3v-2h1v-1h2v3h-2v3h-1v1h-2v3h-3v1h-1v2h-4v1h-9v-1h-3v-2h-3v-1h-1v-3h-1v-4h-2v-52h-10v-1h2v-1h1v-2h1v-1h2v-2h1v-1h2v-2h1
			v-1h2v-1h1v-2h1v-3h2v-1h1v-2h2v-2h1v-3h2v-3h1v23h20v5H799z M823.036,1748.168v1.428h-1.428v-1.428H823.036z M750,1708v-1h-1v-2
			h-3v-1h-3v-2h-3v-1h6v-1h4v-2h6v-1h6v-2h2v59h2v3h1v1h2v2h7v4h-36v-4h7v-2h2v-1h1v-2h2v-47H750z M752,1681v-14h14v14H752z
			 M741,1890v-7h4v-10h4v-14h5v-10h43v10h-3v10h-3v7h-6v14h-4v6h-44v-6H741z M716,1764v-2h-3v-2h-1v-6h1v-3h1v-3h-1v2h-1v1h-2v3h-1
			v1h-2v2h-1v1h-2v2h-1v1h-1v1h-3v2h-3v1h-12v-1h-4v-2h-3v-1h-1v-1h-2v-2h-1v-1h-1v-6h-2v-6h2v-4h1v-3h1v-1h2v-2h1v-1h3v-2h3v-1h4
			v-1h3v-2h4v-1h5v-2h4v-1h4v-2h3v-12h-1v-3h-2v-2h-1v-1h-2v-2h-1v-1h-11v1h-5v2h-1v1h-2v2h-1v1h4v7h-1v3h-2v2h-7v-2h-1v-1h-2v-3h-1
			v-4h1v-3h2v-3h1v-2h2v-1h3v-1h1v-2h3v-1h6v-2h15v2h5v1h2v2h3v1h2v1h1v2h2v3h1v3h1v45h2v2h7v-2h1v-1h2v1h-2v3h-1v2h-1v1h-2v1h-3v2
			h-4v1h-3v-1H716z M669,1678v-7h3v-3h-2v-1h-13v1h-3v2h-1v1h-1v1h-2v5h-1v20h18v5h-23v3h5v49h1v3h2v1h1v2h7v4h-34v-4h6v-2h2v-1h2
			v-55h-10v-5h10v-7h1v-9h2v-4h1v-3h2v-2h1v-1h1v-3h3v-1h2v-2h1v-1h4v-2h5v-1h10v1h5v2h3v1h2v2h1v1h2v3h1v3h-1v4h-2v2h-1v1h-6v-1h-3
			v-2H669z M579,941h7v-2h2v-1h1v-1h1v-45h-1v-1h-1v-2h-3v-1h-3v-1h-3v-2h6v-1h4v-2h5v-1h6v-1h2v9h-1v2h-1v2h-2v4h2v-1h1v-3h1v-1h2
			v-1h1v-3h1v-1h3v-2h2v-1h1v-2h3v-1h4v-1h12v1h3v1h2v2h2v1h1v2h1v2h2v4h1v44h1v1h2v1h1v2h7v4h-34v-4h7v-2h1v-1h2v-4h1v-35h-1v-6h-2
			v-1h-1v-1h-2v-2h-4v-1h-6v1h-4v2h-3v1h-2v1h-1v2h-1v1h-2v41h2v1h1v1h1v2h6v4h-33V941z M513,927h1v-4h2v-3h1v-1h1v-1h2v-2h2v-1h3
			v-1h4v-2h3v-1h4v-1h4v-2h4v-1h4v-2h3v-12h-1v-2h-2v-2h-1v-1h-2v-1h-1v-2h-11v2h-4v1h-1v1h-2v2h-1v1h4v7h-1v2h-2v2h-6v-2h-2v-1h-1
			v-3h-1v-4h1v-2h1v-3h2v-1h1v-2h3v-1h1v-2h3v-1h5v-1h15v1h4v1h3v2h3v1h1v2h1v1h2v3h1v2h1v44h2v1h7v-1h1v-2h1v2h-1v2h-1v2h-2v1h-1v1
			h-3v2h-4v1h-3v-1h-4v-2h-2v-2h-2v-6h2v-2h1v-3h-1v1h-2v2h-1v2h-1v2h-2v1h-1v1h-2v2h-1v1h-1v1h-3v2h-3v1h-11v-1h-4v-2h-2v-1h-2v-1
			h-1v-2h-1v-1h-2v-5h-1V927z M433,885h4v-1h5v-2h6v-1h5v-1h3v50h1v3h2v2h2v2h3v1h7v-1h4v-2h3v-1h1v-1h1v-2h2v-1h1v-38h-1v-1h-2v-2
			h-2v-1h-3v-1h-3v-2h4v-1h6v-2h5v-1h6v-1h2v55h2v3h2v1h3v2h3v1h-2v1h-9v2h-10v1h-1v-9h1v-2h2v-1h1v-4h-1v1h-2v2h-1v2h-1v2h-2v1h-1
			v1h-1v2h-3v1h-1v1h-3v2h-4v1h-11v-1h-4v-2h-1v-1h-2v-1h-1v-2h-2v-1h-1v-3h-1v-39h-2v-5h-2v-2h-2v-1h-4v-1h-1V885z M426,1482h4v-12
			h4v-16h4v-12h4v-16h4v-11h4v-17h4v-17h3v-11h4v-17h4v-11h4v-17h4v-33h-4v-6h-8v-5h-7v-6h11v-6h20v-5h19v-6h20v6h-4v17h-4v11h-4v11
			h-4v6h-4v5h-4v11h-4v11h4v-5h4v-6h4v-5h4v-6h4v-11h4v-6h4v-5h8v-6h3v-5h4v-6h8v-6h8v-5h8v-6h23v6h12v5h4v6h8v6h3v11h4v11h4v17h4
			v44h-4v28h-4v17h-4v11h-3v11h-4v11h-4v6h-4v11h-4v6h-4v5h-4v6h-4v6h-4v5h-4v6h-3v5h-8v6h-4v5h-8v6h-8v6h-15v5h-39v-5h-12v-6h-8v-6
			h-8v-5h-4v11h-3v11h-4v17h-4v11h-4v17h-4v11h-4v17h-4v33h4v6h20v11h-4v6h-94v-12h4v-5h16v-6h7v-5h4v-6h4v-6h4v-16h4v-11h4v-17h4
			v-17h4v-11h4v-17h3v-11h4v-17h4V1482z M539,1728v10h1v4h2v3h1v3h1v2h2v1h1v1h2v2h3v1h4v2h8v-2h6v-1h3v-2h1v-1h2v-1h1v-2h2v-1h1v-3
			h2v3h-2v4h-1v3h-2v1h-1v2h-2v1h-1v2h-1v1h-2v1h-3v2h-4v1h-13v-1h-6v-2h-2v-1h-3v-1h-3v-2h-2v-1h-1v-2h-2v-1h-1v-3h-1v-3h-2v-3h-1
			v-4h-2v-19h2v-4h1v-4h2v-3h1v-1h1v-3h2v-2h1v-1h2v-2h1v-1h3v-1h2v-2h2v-1h5v-2h13v2h4v1h3v2h3v1h1v1h1v2h2v1h1v3h2v2h1v4h2v7h1v4
			h-50v3H539z M484,1764v-2h-3v-1h-2v-1h-2v-2h-1v-1h-2v-2h-1v-1h-2v4h2v2h1v1h2v1h-5v2h-2v1h-3v-25h5v2h2v3h1v3h2v3h1v1h2v2h1v1h3
			v2h1v1h16v-1h1v-2h2v-1h1v-3h2v-4h-2v-3h-1v-2h-2v-1h-1v-1h-3v-2h-4v-1h-4v-2h-3v-1h-5v-2h-2v-1h-3v-1h-2v-2h-3v-1h-1v-3h-1v-3h-2
			v-13h2v-3h1v-1h1v-3h2v-1h3v-2h1v-1h6v-2h8v2h5v1h3v2h2v1h2v1h1v2h2v1h1v-4h-1v-1h-2v-2h2v-1h3v-2h4v25h-6v-2h-1v-4h-2v-3h-1v-1
			h-2v-2h-1v-1h-1v-2h-2v-1h-1v-2h-5v-1h-5v1h-5v2h-1v1h-1v3h-2v4h2v3h1v3h3v2h1v1h5v1h2v2h5v1h3v2h4v1h3v2h3v1h1v1h1v2h2v1h1v5h2
			v10h-2v4h-1v1h-2v3h-1v2h-1v1h-3v1h-3v2h-4v1h-10v-1H484z M485.542,1989.082l-3.505,9.196l-1.312-0.499l-1.502,3.94l-1.315-0.501
			l-1,2.628l-1.313-0.501l-1.001,2.628l-1.315-0.501l-0.5,1.313l-1.313-0.5l-0.501,1.312l-1.312-0.499l-0.501,1.313l-1.314-0.502
			l-0.501,1.314l-1.312-0.499l-0.501,1.313l3.94,1.501l0.5-1.314l1.312,0.502l0.501-1.314l1.315,0.5l0.5-1.313l1.313,0.501
			l-1.502,3.942l1.314,0.501l-1.001,2.626l1.314,0.501l-1.003,2.626l-23.646-9.012l2.003-5.253l2.627,1l0.501-1.315l2.628,1.002
			l0.5-1.313l2.626,1.001l0.502-1.313l2.627,1.002l0.501-1.315l1.313,0.503l0.501-1.312l1.313,0.5l0.501-1.314l1.313,0.5
			l1.001-2.627l1.315,0.501l0.501-1.314l1.312,0.502l5.507-14.451l-1.312-0.499l0.5-1.314l-1.314-0.5l0.502-1.315l-1.313-0.499
			l0.499-1.314l-2.626-1.003l0.5-1.315l-3.941-1.502l-0.5,1.316l-2.629-1.002l-0.501,1.314l-1.313-0.5l-0.499,1.312l-1.314-0.499
			l-0.502,1.313l-1.312-0.501l-1.001,2.626l-1.314-0.5l-1.502,3.944l-1.314-0.502l-1.502,3.939l-1.314-0.5l-1.001,2.627l-1.313-0.5
			l-1.501,3.94l-1.313-0.502l-1.001,2.63l-1.315-0.503l-0.999,2.628l-1.313-0.499l-0.502,1.312l-1.314-0.499l-1.002,2.625
			l-1.314-0.499l-0.5,1.313l-2.625-1.002l-0.502,1.315l-2.626-1.003l-0.5,1.312l-11.824-4.503l0.501-1.314l-2.628-1.002l0.499-1.313
			l-1.312-0.501l0.501-1.314l-2.629-1.002l0.504-1.312l-1.314-0.501l1.002-2.628l-1.316-0.501l0.5-1.313l-1.313-0.501l2.005-5.254
			l-1.314-0.502l3.004-7.88l1.313,0.501l1.502-3.942l1.313,0.501l1.001-2.629l1.315,0.501l1.001-2.625l1.312,0.499l0.5-1.312
			l1.314,0.5l0.501-1.314l1.312,0.5l0.501-1.312l1.314,0.499l0.5-1.312l-3.941-1.503l-0.5,1.314l-1.312-0.502l-0.5,1.315
			l-1.317-0.503l0.502-1.312l-1.314-0.502l1.001-2.627l-1.312-0.5l1.502-3.941l22.332,8.512l-2.004,5.257l-1.312-0.5l-0.5,1.312
			l-3.941-1.503l-0.501,1.312l-2.627-0.999l-0.501,1.314l-1.312-0.5l-0.502,1.312l-1.312-0.499l-0.502,1.313l-1.313-0.5l-0.5,1.31
			l-1.313-0.499l-0.503,1.312l-1.313-0.502l-0.5,1.317l-1.314-0.501l-1.502,3.938l-1.313-0.499l-2.002,5.255l1.314,0.501
			l-1.501,3.94l1.313,0.501l-0.501,1.313l1.312,0.5l-0.5,1.314l2.627,1.002l-0.499,1.312l3.939,1.501l0.501-1.312l2.628,1.002
			l0.5-1.314l2.629,1.004l1-2.631l1.313,0.502l0.501-1.313l1.314,0.5l1.501-3.94l1.315,0.501l1.002-2.626l1.312,0.5l1.502-3.939
			l1.312,0.499l1-2.631l1.315,0.502l1.502-3.938l1.313,0.502l1.001-2.63l1.315,0.501l1-2.627l1.313,0.502l0.501-1.315l1.312,0.501
			l0.502-1.315l1.314,0.501l0.499-1.313l1.314,0.502l0.5-1.315l3.941,1.504l0.501-1.314l9.195,3.505l-0.499,1.314l3.94,1.502
			l-0.5,1.314l1.313,0.5l-0.5,1.312l2.625,1l-0.499,1.315l1.312,0.5l-0.5,1.315l1.314,0.501l-1,2.627l1.312,0.499l-1.002,2.631
			l1.314,0.499l-1.5,3.94L485.542,1989.082z M464.011,2045.578l-4.508,11.823l-1.314-0.501l-2.002,5.256l-1.313-0.5l-1.002,2.625
			l-1.312-0.499l-1.002,2.627l-1.314-0.5l-1.002,2.626l-1.312-0.5l-0.5,1.314l-1.313-0.501l-0.501,1.312l-1.313-0.501l-0.502,1.316
			l-1.313-0.501l-0.501,1.312l-2.628-1.002l-0.499,1.315l-2.629-1.004l-0.5,1.315l-2.626-1l-0.501,1.311l-3.942-1.502l-0.5,1.313
			l-17.076-6.508l0.501-1.314l-3.943-1.503l0.5-1.312l-3.94-1.501l0.5-1.313l-2.628-1.002l0.501-1.315l-1.312-0.498l0.5-1.314
			l-2.629-1l0.501-1.315l-1.314-0.503l0.5-1.312l-1.313-0.5l0.501-1.313l-1.313-0.502l0.5-1.312l-1.315-0.502l1.001-2.627
			l-1.312-0.501l0.501-1.312l-1.315-0.501l1-2.628l-1.312-0.501l1.502-3.941l-1.314-0.502l4.506-11.821l1.312,0.502l1.502-3.943
			l1.313,0.502l1.002-2.627l1.316,0.501l1.002-2.628l1.312,0.5l0.501-1.313l1.313,0.5l0.502-1.312l1.313,0.5l0.5-1.312l1.312,0.501
			l0.501-1.314l2.628,1.002l0.501-1.315l1.315,0.5l0.5-1.312l3.941,1.501l0.5-1.312l6.568,2.503l0.5-1.313l3.941,1.502
			l-17.523,45.978l2.627,1.001l2.002-5.254l9.198,3.508l0.5-1.315l3.939,1.5l0.501-1.312l2.628,1.002l0.5-1.312l2.625,1.001
			l0.5-1.315l1.316,0.502l0.501-1.312l1.313,0.5l0.5-1.317l1.314,0.502l0.501-1.313l1.314,0.5l1-2.627l1.313,0.502l1.503-3.944
			l1.315,0.502l3.003-7.883l-1.313-0.498l2.003-5.256l-1.313-0.501l1.001-2.627l-1.315-0.501l0.502-1.313l-1.315-0.499l0.5-1.314
			l-1.312-0.5l0.5-1.313l-1.316-0.5l0.502-1.316l-1.313-0.503l0.502-1.312l-2.631-1.002l0.502-1.312l2.63,1.002l-0.501,1.312
			l3.939,1.502l-0.5,1.314l2.628,1.003l-0.502,1.314l1.313,0.5l-0.5,1.312l1.314,0.502l-0.501,1.312l1.313,0.501l-0.5,1.314
			l1.314,0.5l-0.502,1.312l1.315,0.501l-0.501,1.313l1.314,0.502l-1.002,2.628l1.314,0.499l-1.502,3.941L464.011,2045.578z M342,924
			v-2h-1v-3h-2v-3h-1v-4h-1v-7h-2v-14h2v-7h1v-4h1v-4h2v-3h1v-3h1v-1h2v-3h1v-1h1v-2h2v-1h1v-1h2v-2h1v-1h1v-1h2v-2h2v-1h3v-1h3v-2
			h2v-1h6v-1h18v1h5v1h4v2h3v1h2v1h2v2h2v1h2v1h1v2h2v1h1v1h1v2h2v3h1v1h1v3h2v2h1v3h1v4h2v7h1v17h-1v7h-2v4h-1v3h-1v3h-2v2h-1v3h-1
			v2h-2v1h-1v3h-1v1h-2v1h-3v2h-1v1h-1v1h-3v2h-1v1h1v3h1v1h2v3h1v1h1v3h2v3h1v1h2v1h8v-1h2v1h-1v2h-1v1h-2v1h-1v2h-1v1h-4v2h-9v-2
			h-4v-1h-1v-2h-1v-1h-2v-1h-1v-3h-1v-3h-2v-2h-1v-3h-1v-3h-2v-1h-1v-3h-2v-3h-1v-2h-1v-3h-2v-3h-1v-2h-1v-2h-2v-1h-1v-2h-8v2h-2v3
			h-1v5h1v1h2v2h3v1h2v1h4v2h7v2h1v3h-12v-1h-5v-2h-4v-1h-3v-1h-3v-2h-1v-1h-3v-1h-1v-2h-1v-1h-2v-1h-1v-2h-2v-1h-1v-1h-1v-2h-2v-3
			H342z M381.726,2139.103l0.499-1.315l-3.94-1.502l0.5-1.312l-2.625-1.001l0.498-1.314l-2.628-0.999l0.501-1.315l-1.315-0.501
			l0.503-1.316l-2.628-1.003l0.501-1.309l-1.315-0.502l0.501-1.314l-1.313-0.501l0.501-1.312l-1.314-0.501l0.501-1.313l-1.313-0.501
			l1-2.628l-1.313-0.5l1.002-2.627l-1.315-0.502l1.001-2.629l-1.312-0.5l1.501-3.94l-1.314-0.501l5.508-14.449l1.313,0.5
			l2.002-5.256l1.314,0.501l0.5-1.313l-23.647-9.013l-0.5,1.313l-1.314-0.502l-0.5,1.316l-1.313-0.5l-1.002,2.627l-1.315-0.501
			l-0.999,2.627l-1.313-0.5l-1.002,2.626l-1.313-0.499l2.001-5.255l-1.311-0.5l2.502-6.568l-1.314-0.502l2.004-5.255l-1.314-0.503
			l2.002-5.254l85.393,32.548l0.5-1.315l2.629,1.001l0.999-2.625l1.314,0.502l1.001-2.631l1.313,0.501l1.003-2.627l1.314,0.502
			l-0.502,1.312l1.313,0.501l-3.505,9.194l1.314,0.502l-3.506,9.197l1.313,0.5l-0.5,1.312l-9.195-3.504l0.5-1.313l-2.627-1.001
			l0.5-1.315l-1.312-0.499l0.5-1.315l-3.94-1.501l-0.501,1.313l1.313,0.502l-0.501,1.312l2.627,1.003l-0.5,1.312l1.313,0.5
			l-0.5,1.312l1.315,0.502l-0.5,1.314l2.626,1.002l-0.5,1.312l1.313,0.5l-0.502,1.314l1.313,0.501l-1.001,2.627l1.315,0.5
			l-0.501,1.315l1.312,0.5l-1,2.627l1.315,0.503l-1.001,2.625l1.312,0.501l-4.004,10.509l-1.314-0.501l-2.003,5.256l-1.313-0.501
			l-1.002,2.628l-1.312-0.5l-0.501,1.314l-1.314-0.503l-0.501,1.314l-1.312-0.502l-0.503,1.315l-1.312-0.503l-0.5,1.314
			l-1.314-0.503l-0.503,1.317l-1.312-0.501l-0.5,1.314l-2.629-1.001l-0.5,1.312l-2.627-1.002l-0.5,1.313l-2.627-1.002l-0.5,1.315
			l-6.569-2.505l-0.5,1.312l-9.195-3.504l0.499-1.314L381.726,2139.103z M610,1971h-4v16h-5v9h-5v13h-4v15h-6v10h-4v13h-3v10h-5v15
			h-4v12h-4v11h-6v15h-4v10h-6v14h-4v14h-4v10h-5v14h-3v8h-4v15h-5v17h-5v5h-4v11h-6v11h-4v3h-5v10h-4v4h-5v6h-3v6h-9v3h-9v7h-10v3
			h-45v-3h-9v-7h-4v-3h-4v-6h-4v-23h4v-11h8v-4h20v4h3v4h5v10h-5v10h-10v16h29v-6h7v-6h5v-4h4v-7h6v-6h5v-11h4v-11h4v-11h5v-19h3
			v-15h5v-14h4v-10h5v-14h4v-10h6v-14h4v-15h5v-11h5v-12h4v-15h3v-10h5v-13h4v-10h4v-15h6v-13h4v-9h6v-16h4v-3h-36v-5h3v-10h5v-4h32
			v-6h5v-9h3v-10h4v-13h6v-9h4v-12h5v-3h5v-11h4v-3h5v-4h4v-7h3v-3h5v-7h5v-3h5v-4h10v-6h8v-6h49v6h9v6h5v4h4v3h4v31h-4v7h-9v6h-16
			v-6h-6v-3h-6v-18h6v-7h9v-10h-3v-3h-30v3h-7v7h-5v3h-4v7h-4v4h-7v10h-3v7h-5v15h-5v16h-5v13h-3v15h54v4h-6v15h-57V1971z M762,1953
			h-4v10h-4v14h-5v10h-4v14h-4v8h-4v15h-7v10h-4v13h-4v10h-4v15h-5v10h-4v9h-5v14h-4v15h-3v23h3v5h9v-5h9v-5h8v-4h4v-6h7v-4h4v-4h4
			v-7h4v-3h5v10h-5v4h-4v4h-4v6h-4v4h-7v5h-4v5h-4v3h-4v7h-5v4h-9v5h-4v5h-20v5h-13v-5h-7v-5h-5v-5h-4v-28h4v-14h5v-15h3v-10h4v-13
			h6v-10h4v-15h3v-10h5v-13h6v-10h6v-8h3v-15h4v-14h5v-7h-5v-9h-4v-3h-9v-5h-11v-6h17v-4h25v-4h23v-6h17V1953z M888,1949h-4v14h-5v8
			h-3v16h-4v9h-8v13h-4v11h-4v14h-4v13h-4v10h-5v15h-5v10h-3v13h-4v10h-4v15h-8v23h8v5h8v-5h8v-5h9v-4h4v-6h4v-4h4v-4h8v-7h4v-3h3
			v10h-3v4h-4v4h-8v6h-4v4h-4v5h-4v5h-4v3h-5v7h-5v4h-3v5h-8v5h-20v5h-10v-5h-12v-5h-4v-9h-6v-24h6v-14h4v-10h6v-15h3v-13h3v-10h6
			v-15h4v-10h5v-13h4v-10h3v-15h8v-8h4v-14h4v-10h3v-14h5v-10h5v-14h4v-11h4v-14h4v-9h4v-15h8v-14h4v-14h-4v-3h-8v-7h-8v-3h-8v-4h28
			v-6h21v-6h27v-3h5v9h-5v13h-4v10h-3v14h-7v14h-4v12h-6v12h-3v10h-3v15h-6V1949z M1248,2113h-6v7h-3v4h-4v10h-5v4h-4v5h-8v5h-3v3
			h-3v7h-6v4h-8v5h-8v5h-15v5h-14v-5h-7v-5h-5v-5h-4v-34h4v-15h5v-8h3v-14h4v-9h5v-15h5v-10h4v-13h6v-10h4v-14h5v-14h5v-10h3v-19h-3
			v-6h-24v6h-10v3h-4v7h-8v4h-4v5h-5v5h-5v5h-4v3h-6v7h-4v4h-4v9h-5v5h-3v5h-4v8h-6v7h-4v7h-4v14h-6v9h-4v17h-5v12h-4v11h-3v14h-5
			v10h-5v14h-4v10h-40v-5h3v-16h6v-8h3v-15h4v-15h5v-8h4v-14h7v-9h4v-15h4v-13h4v-10h5v-15h5v-9h3v-14h4v-35h-25v6h-11v3h-4v7h-9v4
			h-3v5h-6v5h-3v5h-4v3h-6v7h-5v4h-5v9h-4v5h-5v5h-4v8h-4v7h-4v7h-5v14h-4v9h-4v17h-6v12h-5v15h-4v10h-5v13h-4v16h-3v5h-40v-5h3v-9
			h3v-15h6v-9h4v-14h7v-10h3v-15h4v-11h5v-12h5v-15h3v-10h4v-13h5v-10h4v-15h5v-13h6v-25h-6v-3h-9v-5h-12v-6h16v-4h24v-4h21v-6h23v6
			h-3v8h-4v14h-6v9h-5v11h-5v5h-4v10h-5v3h-4v11h4v-4h5v-7h4v-8h5v-5h5v-5h6v-4h4v-7h3v-3h6v-6h3v-3h9v-5h4v-6h11v-4h4v-4h14v-6h26
			v6h14v4h3v4h5v39h-5v5h-3v5h-4v10h-6v13h6v-9h4v-4h3v-7h5v-3h4v-10h4v-5h6v-4h4v-7h5v-3h5v-6h4v-3h5v-5h7v-6h5v-4h9v-4h15v-6h25v6
			h11v4h4v4h5v6h4v38h-4v8h-5v15h-4v10h-8v10h-3v13h-3v10h-6v15h-4v9h-4v10h-3v12h-5v7h-5v23h5v5h8v-5h14v-5h3v-4h3v-6h12v-4h5v-4h4
			v-7h3v-3h6V2113z M1250,1661h-5v2h-12v-2h-6v-1h-3v-1h-3v-2h-3v-1h-1v-2h-2v-1h-1v-1h-1v-3h-2v-3h-1v-3h-2v-4h-1v-19h1v-4h2v-4h1
			v-3h2v-1h1v-3h1v-2h2v-1h1v-2h2v-1h3v-1h1v-2h3v-1h4v-2h13v2h4v1h3v2h3v1h1v1h2v2h1v1h2v3h1v2h1v4h2v7h1v4h-50v3h6v10h2v4h1v3h1v3
			h2v1h1v2h2v1h1v2h3v1h4v1h9v-1h5v-1h3v-2h2v-1h1v-2h2v-1h1v-2h1v-2h2v2h-2v5h-1v3h-1v1h-2v1h-1v2h-2v1h-1v2h-2v1h-2V1661z
			 M1423,2009h-5v11h-28v-4h-3v-10h-5v-15h12v-11h-4v-9h-3v-3h-9v-5h-32v5h-10v3h-3v6h-4v32h4v7h3v4h6v4h4v5h4v5h4v5h6v5h6v10h3v3h4
			v4h5v6h4v5h5v3h3v9h4v44h-4v10h-3v10h-5v3h-4v7h-5v4h-7v5h-12v5h-12v5h-41v-5h-13v-5h-8v-5h-9v-4h-7v-7h-3v-3h-5v-14h-4v-21h4v-8
			h5v-4h3v-6h19v6h5v4h5v23h-10v15h5v5h5v3h3v7h40v-7h10v-3h4v-5h4v-9h6v-24h-6v-9h-4v-6h-4v-4h-4v-7h-6v-2h-3v-7h-4v-3h-5v-5h-4v-6
			h-4v-4h-7v-3h-4v-10h-4v-5h-5v-10h-3v-38h3v-14h5v-6h4v-8h11v-6h4v-4h9v-4h13v-6h36v6h12v4h9v4h7v6h5v5h2v3h5v9h5V2009z
			 M1440,1623h-50v3h6v10h1v4h2v3h1v3h1v1h2v2h1v1h2v2h3v1h4v1h8v-1h6v-1h3v-2h1v-1h2v-2h1v-1h2v-2h1v-2h1v2h-1v5h-1v3h-2v1h-1v1h-2
			v2h-1v1h-2v2h-1v1h-3v1h-4v2h-13v-2h-6v-1h-2v-1h-3v-2h-3v-1h-1v-2h-2v-1h-1v-1h-2v-3h-1v-3h-2v-3h-1v-4h-1v-19h1v-4h1v-4h2v-3h1
			v-1h2v-3h1v-2h2v-1h1v-2h1v-1h3v-1h2v-2h2v-1h5v-2h13v2h4v1h3v2h2v1h2v1h1v2h2v1h1v3h2v2h1v4h1v7h2V1623z M1461,986h-4v6h-4v5h-4
			v6h-3v6h-4v5h-4v6h-8v5h-8v6h-11v5h-12v6h-20v6h-43v5h-3v6h11v44h4v17h4v6h4v5h4v6h4v5h4v6h15v6h12v-6h16v-6h7v-5h4v-6h4v-5h8v-6
			h4v-5h4v5h-4v6h-4v11h-4v5h-4v6h-4v6h-4v5h-4v6h-3v5h-8v6h-8v5h-12v6h-31v-6h-8v-5h-8v-6h-7v-5h-4v-6h-4v-5h-4v-12h-4v-11h-4v-16
			h-4v-62h4v-17h4v-16h4v-11h4v-12h4v-5h4v-11h4v-6h3v-6h4v-5h4v-6h4v-5h4v-6h4v-5h4v-6h8v-6h7v-5h8v-6h12v-5h39v5h8v6h7v5h4v6h4v6
			h4V986z M1470,813h-4v11h-4v6h-7v5h-8v6h-8v6h-8v5h-8v6h-7v5h-8v6h-8v6h-8v5h-8v-5h4v-6h4v-6h4v-5h4v-6h4v-11h4v-6h4v-5h4v-6h3v-5
			h4v-6h4v-11h4v-6h4v-5h4v-6h8v-5h15v5h8V813z"/>
		<polygon fill="#0F0F0F" points="674,924 676,924 676,927 677,927 677,930 678,930 678,931 680,931 680,933 681,933 681,934 
			682,934 682,935 685,935 685,937 689,937 689,938 695,938 695,937 697,937 697,935 700,935 700,934 703,934 703,933 704,933 
			704,931 705,931 705,930 707,930 707,891 705,891 705,889 704,889 704,888 701,888 701,887 697,887 697,885 688,885 688,887 
			685,887 685,888 682,888 682,889 681,889 681,891 680,891 680,892 678,892 678,893 677,893 677,896 676,896 676,899 674,899 
			674,904 673,904 673,919 674,919 		"/>
		<polygon fill="#0F0F0F" points="852,899 851,899 851,893 849,893 849,891 848,891 848,889 847,889 847,888 845,888 845,887 
			842,887 842,885 834,885 834,887 832,887 832,888 829,888 829,891 828,891 828,892 826,892 826,895 825,895 825,900 823,900 
			823,904 852,904 		"/>
		<polygon fill="#0F0F0F" points="1426,942 1422,942 1422,936 1414,936 1414,930 1403,930 1403,936 1391,936 1391,942 1387,942 
			1387,947 1383,947 1383,953 1375,953 1375,964 1372,964 1372,969 1368,969 1368,975 1364,975 1364,986 1360,986 1360,997 
			1356,997 1356,1009 1352,1009 1352,1025 1348,1025 1348,1031 1368,1031 1368,1025 1387,1025 1387,1020 1399,1020 1399,1014 
			1407,1014 1407,1009 1414,1009 1414,1003 1418,1003 1418,997 1422,997 1422,992 1426,992 1426,986 1430,986 1430,947 1426,947 		
			"/>
		<polygon fill="#0F0F0F" points="1251,1613 1250,1613 1250,1608 1248,1608 1248,1605 1247,1605 1247,1603 1245,1603 1245,1602 
			1244,1602 1244,1600 1241,1600 1241,1599 1233,1599 1233,1600 1230,1600 1230,1602 1227,1602 1227,1605 1225,1605 1225,1606 
			1224,1606 1224,1609 1223,1609 1223,1615 1221,1615 1221,1619 1251,1619 		"/>
		<polygon fill="#0F0F0F" points="709,1728 704,1728 704,1730 700,1730 700,1731 696,1731 696,1732 693,1732 693,1734 690,1734 
			690,1735 687,1735 687,1737 686,1737 686,1738 684,1738 684,1741 683,1741 683,1751 684,1751 684,1754 686,1754 686,1755 
			687,1755 687,1757 692,1757 692,1758 697,1758 697,1757 700,1757 700,1755 703,1755 703,1754 704,1754 704,1752 706,1752 
			706,1751 707,1751 707,1750 709,1750 709,1747 710,1747 710,1727 709,1727 		"/>
		<rect x="1109" y="1359" fill="#0F0F0F" width="4" height="5"/>
		<rect x="703" y="1348" fill="#0F0F0F" width="4" height="11"/>
		<polygon fill="#0F0F0F" points="420.034,2022.802 419.533,2024.112 414.278,2022.11 413.777,2023.424 411.149,2022.424 
			410.647,2023.736 409.333,2023.236 408.833,2024.549 407.521,2024.05 407.02,2025.364 405.707,2024.863 404.705,2027.489 
			403.391,2026.99 400.387,2034.87 401.701,2035.371 400.7,2037.999 402.012,2038.498 401.011,2041.126 403.64,2042.129 
			403.137,2043.442 404.452,2043.943 403.95,2045.255 406.577,2046.257 406.078,2047.57 411.333,2049.575 410.833,2050.89 
			414.774,2052.392 425.287,2024.802 		"/>
		<rect x="699" y="1359" fill="#0F0F0F" width="4" height="5"/>
	</g>
</g>
<g id="Calque_2" display="none">
	<rect x="251.5" y="923.5" display="inline" fill="none" stroke="#E72D00" stroke-miterlimit="10" width="1108" height="1241"/>
</g>
</svg>
