<?xml version="1.0" encoding="utf-8"?>
<!-- Generator: Adobe Illustrator 16.0.0, SVG Export Plug-In . SVG Version: 6.00 Build 0)  -->
<!DOCTYPE svg PUBLIC "-//W3C//DTD SVG 1.1//EN" "http://www.w3.org/Graphics/SVG/1.1/DTD/svg11.dtd">
<svg version="1.1" xmlns="http://www.w3.org/2000/svg" xmlns:xlink="http://www.w3.org/1999/xlink" x="0px" y="0px" width="2025px"
	 height="2025px" viewBox="0 0 2025 2025" enable-background="new 0 0 2025 2025" xml:space="preserve">
<g id="Calque_1">
	<g>
		<rect x="1215" y="1491" fill="#0F0F0F" width="4" height="5"/>
		<rect x="609" y="810" fill="#0F0F0F" width="4" height="5"/>
		<polygon fill="#0F0F0F" points="646,397 648,397 648,399 649,399 649,400 653,400 653,401 659,401 659,400 661,400 661,399 
			664,399 664,397 665,397 665,396 667,396 667,395 668,395 668,393 670,393 670,391 671,391 671,372 670,372 670,373 665,373 
			665,374 661,374 661,376 657,376 657,377 655,377 655,378 652,378 652,380 649,380 649,381 648,381 648,382 646,382 646,385 
			645,385 645,395 646,395 		"/>
		<rect x="605" y="821" fill="#0F0F0F" width="4" height="5"/>
		<polygon fill="#0F0F0F" points="473,374 474,374 474,380 476,380 476,384 477,384 477,386 478,386 478,389 480,389 480,391 
			481,391 481,389 482,389 482,386 484,386 484,385 485,385 485,384 486,384 486,382 488,382 488,381 491,381 491,380 504,380 
			504,381 507,381 507,382 508,382 508,384 510,384 510,385 511,385 511,386 512,386 512,389 514,389 514,391 515,391 515,393 
			516,393 516,396 519,396 519,395 520,395 520,393 522,393 522,392 523,392 523,389 524,389 524,388 526,388 526,384 527,384 
			527,381 528,381 528,374 530,374 530,349 528,349 528,342 527,342 527,338 526,338 526,335 524,335 524,332 523,332 523,330 
			522,330 522,327 520,327 520,325 519,325 519,324 518,324 518,323 516,323 516,321 515,321 515,320 512,320 512,319 511,319 
			511,317 505,317 505,316 495,316 495,317 491,317 491,319 488,319 488,320 486,320 486,321 484,321 484,323 482,323 482,324 
			481,324 481,325 480,325 480,328 478,328 478,330 477,330 477,332 476,332 476,335 474,335 474,340 473,340 473,346 472,346 
			472,367 473,367 		"/>
		<rect x="1229" y="821" fill="#0F0F0F" width="4" height="5"/>
		<polygon fill="#0F0F0F" points="540.034,1484.802 539.533,1486.112 534.278,1484.11 533.777,1485.424 531.149,1484.424 
			530.647,1485.736 529.333,1485.236 528.833,1486.549 527.521,1486.05 527.02,1487.364 525.707,1486.863 524.705,1489.489 
			523.391,1488.99 520.387,1496.87 521.701,1497.371 520.7,1499.999 522.012,1500.498 521.011,1503.126 523.64,1504.129 
			523.137,1505.442 524.452,1505.943 523.95,1507.255 526.577,1508.257 526.078,1509.57 531.333,1511.575 530.833,1512.89 
			534.774,1514.392 545.287,1486.802 		"/>
		<polygon fill="#0F0F0F" points="589,949 597,949 597,955 601,955 601,960 613,960 613,966 644,966 644,960 652,960 652,955 
			659,955 659,949 663,949 663,944 667,944 667,938 671,938 671,932 675,932 675,927 679,927 679,916 683,916 683,910 687,910 
			687,899 691,899 691,888 694,888 694,877 698,877 698,860 702,860 702,843 706,843 706,776 702,776 702,765 698,765 698,759 
			694,759 694,754 675,754 675,759 667,759 667,765 659,765 659,771 655,771 655,776 652,776 652,782 648,782 648,787 644,787 
			644,793 640,793 640,798 636,798 636,804 632,804 632,810 628,810 628,815 624,815 624,826 620,826 620,832 616,832 616,843 
			613,843 613,854 609,854 609,865 605,865 605,877 601,877 601,888 597,888 597,904 593,904 593,916 589,916 589,932 585,932 
			585,938 589,938 		"/>
		<polygon fill="#0F0F0F" points="689,1177 687,1177 687,1172 686,1172 686,1169 684,1169 684,1167 683,1167 683,1166 682,1166 
			682,1164 679,1164 679,1163 670,1163 670,1164 667,1164 667,1166 664,1166 664,1169 663,1169 663,1170 662,1170 662,1173 
			660,1173 660,1179 659,1179 659,1183 689,1183 		"/>
		<rect x="613" y="798" fill="#0F0F0F" width="3" height="12"/>
		<polygon fill="#0F0F0F" points="1114,1118 1117,1118 1117,1119 1125,1119 1125,1118 1130,1118 1130,1116 1131,1116 1131,1115 
			1132,1115 1132,1114 1134,1114 1134,1112 1135,1112 1135,1109 1137,1109 1137,1105 1138,1105 1138,1099 1140,1099 1140,1085 
			1138,1085 1138,1078 1137,1078 1137,1074 1135,1074 1135,1071 1134,1071 1134,1068 1132,1068 1132,1067 1131,1067 1131,1065 
			1130,1065 1130,1064 1128,1064 1128,1062 1124,1062 1124,1061 1117,1061 1117,1062 1113,1062 1113,1064 1111,1064 1111,1065 
			1110,1065 1110,1067 1108,1067 1108,1068 1107,1068 1107,1070 1106,1070 1106,1074 1104,1074 1104,1079 1103,1079 1103,1096 
			1104,1096 1104,1104 1106,1104 1106,1108 1107,1108 1107,1111 1108,1111 1108,1112 1110,1112 1110,1114 1111,1114 1111,1115 
			1113,1115 1113,1116 1114,1116 		"/>
		<polygon fill="#0F0F0F" points="972,361 971,361 971,355 969,355 969,353 968,353 968,351 967,351 967,350 965,350 965,349 
			962,349 962,347 954,347 954,349 952,349 952,350 949,350 949,353 948,353 948,354 946,354 946,357 945,357 945,362 943,362 
			943,366 972,366 		"/>
		<polygon fill="#0F0F0F" points="794,386 796,386 796,389 797,389 797,392 798,392 798,393 800,393 800,395 801,395 801,396 
			802,396 802,397 805,397 805,399 809,399 809,400 815,400 815,399 817,399 817,397 820,397 820,396 823,396 823,395 824,395 
			824,393 825,393 825,392 827,392 827,353 825,353 825,351 824,351 824,350 821,350 821,349 817,349 817,347 808,347 808,349 
			805,349 805,350 802,350 802,351 801,351 801,353 800,353 800,354 798,354 798,355 797,355 797,358 796,358 796,361 794,361 
			794,366 793,366 793,381 794,381 		"/>
		<polygon fill="#0F0F0F" points="1014,949 1018,949 1018,960 1022,960 1022,966 1030,966 1030,971 1049,971 1049,966 1061,966 
			1061,960 1065,960 1065,955 1069,955 1069,949 1073,949 1073,944 1077,944 1077,938 1081,938 1081,932 1085,932 1085,921 
			1088,921 1088,916 1092,916 1092,904 1096,904 1096,893 1100,893 1100,877 1104,877 1104,860 1108,860 1108,832 1112,832 
			1112,782 1108,782 1108,765 1104,765 1104,754 1096,754 1096,748 1088,748 1088,743 1073,743 1073,748 1061,748 1061,754 
			1057,754 1057,759 1049,759 1049,765 1046,765 1046,776 1042,776 1042,782 1038,782 1038,787 1034,787 1034,798 1030,798 
			1030,810 1026,810 1026,821 1022,821 1022,837 1018,837 1018,854 1014,854 1014,877 1010,877 1010,938 1014,938 		"/>
		<rect x="823" y="810" fill="#0F0F0F" width="4" height="11"/>
		<polygon fill="#0F0F0F" points="1215,487 1234,487 1234,482 1246,482 1246,476 1254,476 1254,471 1261,471 1261,465 1265,465 
			1265,459 1269,459 1269,454 1273,454 1273,448 1277,448 1277,409 1273,409 1273,404 1269,404 1269,398 1261,398 1261,392 
			1250,392 1250,398 1238,398 1238,404 1234,404 1234,409 1230,409 1230,415 1222,415 1222,426 1218,426 1218,431 1215,431 
			1215,437 1211,437 1211,448 1207,448 1207,459 1203,459 1203,471 1199,471 1199,487 1195,487 1195,493 1215,493 		"/>
		<polygon fill="#0F0F0F" points="829,1190 824,1190 824,1192 820,1192 820,1193 816,1193 816,1194 813,1194 813,1196 810,1196 
			810,1197 807,1197 807,1199 806,1199 806,1200 804,1200 804,1203 803,1203 803,1213 804,1213 804,1216 806,1216 806,1217 
			807,1217 807,1219 812,1219 812,1220 817,1220 817,1219 820,1219 820,1217 823,1217 823,1216 824,1216 824,1214 826,1214 
			826,1213 827,1213 827,1212 829,1212 829,1209 830,1209 830,1189 829,1189 		"/>
		<rect x="1233" y="810" fill="#0F0F0F" width="4" height="11"/>
		<rect x="819" y="821" fill="#0F0F0F" width="4" height="5"/>
		<polygon fill="#0F0F0F" points="521.181,1593.472 526.437,1595.473 526.938,1594.162 529.565,1595.163 530.066,1593.849 
			532.692,1594.85 533.193,1593.537 534.508,1594.037 535.007,1592.724 536.32,1593.225 536.822,1591.909 538.136,1592.411 
			538.636,1591.096 539.952,1591.598 540.952,1588.97 542.265,1589.47 543.769,1585.529 545.083,1586.031 547.084,1580.776 
			545.771,1580.278 546.772,1577.647 545.458,1577.147 546.459,1574.521 545.145,1574.02 546.146,1571.392 544.833,1570.89 
			545.334,1569.578 544.021,1569.076 544.521,1567.762 543.207,1567.262 543.708,1565.947 505.611,1551.43 505.109,1552.742 
			503.795,1552.242 503.294,1553.556 501.981,1553.056 500.979,1555.681 499.667,1555.184 498.165,1559.122 496.851,1558.621 
			493.347,1567.817 494.66,1568.317 493.658,1570.946 494.972,1571.446 493.971,1574.072 495.283,1574.572 494.784,1575.887 
			496.097,1576.388 495.597,1577.703 496.909,1578.204 496.409,1579.518 497.723,1580.018 497.223,1581.331 499.85,1582.332 
			499.349,1583.646 501.978,1584.648 501.478,1585.961 506.732,1587.964 506.23,1589.277 520.679,1594.786 		"/>
		<polygon fill="#0F0F0F" points="1371,1075 1370,1075 1370,1070 1368,1070 1368,1067 1367,1067 1367,1065 1365,1065 1365,1064 
			1364,1064 1364,1062 1361,1062 1361,1061 1353,1061 1353,1062 1350,1062 1350,1064 1347,1064 1347,1067 1345,1067 1345,1068 
			1344,1068 1344,1071 1343,1071 1343,1077 1341,1077 1341,1081 1371,1081 		"/>
		<rect x="1094" y="1491" fill="#0F0F0F" width="4" height="5"/>
		<polygon fill="#0F0F0F" points="1546,404 1542,404 1542,398 1534,398 1534,392 1523,392 1523,398 1511,398 1511,404 1507,404 
			1507,409 1503,409 1503,415 1495,415 1495,426 1492,426 1492,431 1488,431 1488,437 1484,437 1484,448 1480,448 1480,459 
			1476,459 1476,471 1472,471 1472,487 1468,487 1468,493 1488,493 1488,487 1507,487 1507,482 1519,482 1519,476 1527,476 
			1527,471 1534,471 1534,465 1538,465 1538,459 1542,459 1542,454 1546,454 1546,448 1550,448 1550,409 1546,409 		"/>
		<polygon fill="#0F0F0F" points="1544,1070 1543,1070 1543,1067 1541,1067 1541,1065 1540,1065 1540,1064 1539,1064 1539,1062 
			1536,1062 1536,1061 1527,1061 1527,1062 1524,1062 1524,1064 1521,1064 1521,1067 1520,1067 1520,1068 1519,1068 1519,1071 
			1517,1071 1517,1077 1516,1077 1516,1081 1546,1081 1546,1075 1544,1075 		"/>
		<rect x="1098" y="1482" fill="#0F0F0F" width="4" height="9"/>
		<path fill="#0F0F0F" d="M0,0v2025h2025V0H0z M1320,571h4v-17h4v-17h4v-11h4v-16h3v-12h4v-16h4v-11h4v-17h4v-11h4v-17h4v-11h4v-17
			h4v-11h3v-17h4v-11h4v-17h4v-11h4v-17h4v-17h4v-16h-4v-6h-4v-5h-8v-6h-8v-6h24v-5h19v-6h24v-5h4v11h-4v17h-4v11h-4v16h-4v17h-4v11
			h-4v17h-4v11h-4v17h-3v11h-4v17h-4v11h-4v17h-4v11h-4v17h-4v11h-4v17h-4v16h-4v12h-3v16h-4v11h-4v17h-4v11h-4v17h-4v28h4v6h8v-6h8
			v-6h7v-5h4v-6h4v-5h4v-6h4v-5h4v-6h4v11h-4v6h-4v5h-4v6h-4v5h-4v6h-4v6h-4v5h-3v6h-4v5h-4v6h-8v5h-16v6h-7v-6h-12v-5h-4v-11h-4
			v-28h4v-17h4V571z M1521,726v5h8v6h4v6h4v5h4v45h-4v5h-4v6h-4v6h-4v5h-4v6h-3v5h-8v6h-8v5h-12v6h-11v6h-20v5h-43v6h-4v5h12v45h4
			v17h4v5h4v6h4v6h3v5h4v6h16v5h12v-5h15v-6h8v-5h4v-6h4v-6h8v-5h4v-6h3v6h-3v5h-4v12h-4v5h-4v6h-4v5h-4v6h-4v5h-4v6h-8v6h-7v5h-12
			v6h-31v-6h-8v-5h-8v-6h-8v-6h-4v-5h-3v-6h-4v-11h-4v-11h-4v-17h-4v-61h4v-17h4v-17h4v-11h4v-11h3v-6h4v-11h4v-5h4v-6h4v-5h4v-6h4
			v-6h4v-5h4v-6h4v-5h7v-6h8v-6h8v-5h12v-6h39v6H1521z M1548,1023v1h2v7h-2v2h-1v1h-3v1h-1v2h-3v1h-3v2h-3v1h-3v2h-3v1h-1v1h-3v2h-3
			v-2h2v-2h1v-2h2v-1h1v-3h1v-2h2v-2h1v-2h2v-3h1v-1h2v-1h1v-2h1v-1h2v-2h7v2H1548z M1472,1062v3h4v46h1v3h2v1h10v-1h3v-2h1v-1h1v3
			h-1v2h-1v2h-2v3h-3v1h-1v1h-4v2h-9v-2h-3v-1h-2v-1h-2v-3h-1v-4h-2v-52h-10v-1h2v-1h1v-2h2v-1h1v-2h1v-1h2v-2h1v-1h2v-1h1v-2h2v-3
			h1v-1h1v-1h2v-3h1v-3h2v-3h1v23h20v5H1472z M1495.918,1107.854v1.42h-1.42v-1.42H1495.918z M1414,1123v-1h-3v-1h-3v-2h-3v-1h-1v-2
			h-2v-1h-1v-3h-2v-1h-1v-3h-1v-3h-2v-6h-1v-17h1v-4h2v-4h1v-3h1v-1h2v-3h1v-2h2v-1h1v-2h1v-1h3v-1h2v-2h3v-1h5v-2h14v2h5v1h3v2h1v1
			h3v1h1v3h2v3h1v7h-1v2h-2v1h-1v1h-6v-1h-3v-1h-1v-7h3v-3h-2v-3h-3v-2h-2v-1h-10v1h-3v2h-3v1h-1v2h-2v3h-1v2h-2v5h-1v19h1v6h2v3h1
			v3h2v1h1v2h1v1h2v2h3v1h4v1h7v-1h6v-1h3v-2h1v-1h1v-2h2v-1h1v-2h2v-1h1v1h-1v3h-2v3h-1v3h-2v1h-1v2h-1v1h-2v2h-1v1h-3v1h-4v2h-13
			v-2H1414z M1296,1075v-5h-2v-2h-1v-1h-2v-2h-4v-1h-7v1h-4v2h-3v1h-1v2h-2v1h-1v1h-2v43h2v1h1v2h2v1h5v4h-34v-4h7v-1h2v-2h1v-1h2
			v-47h-2v-1h-1v-2h-3v-1h-3v-2h-3v-1h6v-1h4v-2h6v-1h6v-2h2v10h-1v2h-1v3h-2v4h2v-2h1v-2h1v-2h2v-1h1v-3h2v-2h2v-1h2v-1h1v-2h3v-1
			h4v-2h13v2h3v1h3v2h1v1h2v1h1v3h2v5h1v45h1v1h2v2h1v1h7v4h-35v-4h7v-1h1v-2h2v-4h1v-37H1296z M1315,983v5h-12v6h-12v-6h-8v-5h-3
			v-6h-4v-33h4v-17h3v-17h4v-11h4v-11h4v-11h4v-17h4v-11h4v-17h4v-11h4v-11h4v-17h3v-11h4v-17h-4v-6h-3v-5h-24v5h-8v6h-4v6h-7v5h-4
			v6h-4v5h-4v6h-4v5h-4v6h-4v6h-4v11h-4v5h-3v6h-4v5h-4v12h-4v11h-4v17h-4v11h-4v16h-4v12h-4v16h-4v17h-3v11h-4v17h-4v11h-35v-5h4
			v-17h4v-11h3v-17h4v-11h4v-17h4v-17h4v-11h4v-17h4v-11h4v-17h4v-16h3v-11h4v-17h4v-11h4v-23h-4v-5h-4v-6h-7v-5h-8v-6h15v-6h20v-5
			h19v-6h20v6h-4v11h-4v11h-4v17h-4v11h-4v6h-4v5h-3v11h-4v12h4v-6h3v-6h4v-11h4v-5h4v-6h4v-5h4v-6h4v-6h4v-5h4v-6h7v-5h4v-6h8v-6h4
			v-5h12v-6h27v6h8v5h4v6h4v6h4v44h-4v17h-4v11h-4v11h-4v17h-4v11h-4v11h-4v17h-4v11h-4v17h-3v11h-4v17h-4v17h4v5h11v-5h8v-6h4v-5h4
			v-6h4v-6h8v-5h4v-6h3v-5h4v5h-4v6h-3v11h-4v6h-4v5h-4v6h-4v5h-4v6h-4v5h-4v6h-8v6H1315z M1213,1075v-5h-1v-2h-1v-1h-2v-2h-4v-1h-7
			v1h-4v2h-3v1h-2v2h-1v1h-2v1h-1v43h1v1h2v2h1v1h6v4h-34v-4h7v-1h1v-2h2v-1h1v-47h-1v-1h-2v-2h-2v-1h-3v-2h-3v-1h6v-1h4v-2h5v-1h6
			v-2h3v10h-1v2h-2v3h-1v4h1v-2h2v-2h1v-2h1v-1h2v-3h1v-2h3v-1h2v-1h1v-2h3v-1h4v-2h13v2h3v1h2v2h2v1h1v1h2v3h1v5h2v45h1v1h1v2h2v1
			h7v4h-36v-4h8v-1h1v-2h1v-4h2v-37H1213z M1231,337h4v-6h4v-6h4v-5h4v-6h4v-11h4v-6h4v-5h4v-6h3v-5h4v-6h4v-11h4v-6h4v-5h4v-6h8v-5
			h15v5h8v28h-4v11h-4v6h-8v5h-7v6h-8v6h-8v5h-8v6h-7v5h-8v6h-8v6h-8v5h-8V337z M1168,459h4v-5h4v-11h3v-6h4v-6h4v-5h4v-6h4v-5h4v-6
			h4v-5h4v-6h8v-6h7v-5h8v-6h12v-5h39v5h8v6h7v5h4v6h4v6h4v44h-4v6h-4v5h-4v6h-3v6h-4v5h-4v6h-8v5h-8v6h-12v5h-11v6h-20v6h-43v5h-4
			v6h12v44h4v17h4v6h4v5h4v6h4v5h4v6h15v6h12v-6h15v-6h8v-5h4v-6h4v-5h8v-6h4v-5h4v5h-4v6h-4v11h-4v5h-4v6h-4v6h-4v5h-4v6h-4v5h-7v6
			h-8v5h-12v6h-31v-6h-8v-5h-8v-6h-7v-5h-4v-6h-4v-5h-4v-12h-4v-11h-4v-16h-4v-62h4v-17h4v-16h4v-11h4V459z M1110,1123v-1h-4v-1h-2
			v-2h-3v-1h-1v-2h-2v-1h-1v-1h-1v-2h-2v-3h-1v-3h-2v-4h-1v-6h-2v-11h2v-7h1v-3h2v-3h1v-2h2v-2h1v-3h1v-1h2v-2h1v-1h3v-1h3v-2h3v-1
			h4v-2h14v2h4v1h5v2h1v1h3v1h1v2h2v1h1v2h2v1h1v3h2v3h1v3h1v5h2v14h-2v6h-1v4h-1v3h-2v2h-1v1h-2v3h-1v1h-2v2h-1v1h-3v2h-3v1h-3v1
			h-4v2h-14v-2H1110z M1023,599h4v-22h4v-17h4v-17h4v-11h4v-17h4v-17h4v-11h4v-16h4v-17h3v-11h4v-17h4v-17h4v-5h-35v-6h8v-6h8v-5h7
			v-6h4v-5h8v-6h4v-6h8v-5h4v-6h4v-5h4v-6h7v-5h4v-6h4v-6h4v-5h4v-6h4v-5h4v-6h4v-6h4v-5h3v5h-3v12h-4v16h-4v17h-4v11h-4v17h-4v11
			h51v6h-4v17h-66v11h11v5h-4v11h-4v17h-3v11h-4v17h-4v11h-4v17h-4v17h-4v11h-4v17h-4v11h-4v17h-4v22h4v5h8v6h4v-6h12v-5h8v-6h3v-5
			h4v-6h4v-5h4v-6h4v11h-4v6h-4v11h-4v5h-4v6h-3v6h-4v5h-4v6h-4v5h-4v6h-8v5h-35v-5h-4v-6h-4v-5h-4v-17h-4V599z M987,810h4v-6h4v-11
			h4v-6h4v-11h4v-5h3v-6h4v-6h4v-5h8v-6h4v-5h4v-6h8v-6h11v-5h12v-6h35v6h12v5h8v6h4v6h3v5h4v6h4v11h4v11h4v17h4v56h-4v22h-4v17h-4
			v11h-4v11h-4v6h-3v11h-4v5h-4v6h-4v6h-4v5h-4v6h-4v5h-4v6h-4v5h-7v6h-8v6h-8v5h-12v6h-35v-6h-12v-5h-7v-6h-4v-6h-4v-5h-4v-6h-4v-5
			h-4v-11h-4v-17h-4v-73h4v-17h4v-16h4V810z M1046,1123v-1h-3v-1h-3v-2h-3v-1h-1v-2h-1v-1h-2v-3h-1v-1h-2v-3h-1v-3h-2v-6h-1v-17h1
			v-4h2v-4h1v-3h2v-1h1v-3h2v-2h1v-1h1v-2h2v-1h3v-1h1v-2h3v-1h6v-2h14v2h4v1h3v2h1v1h3v1h2v3h1v3h1v7h-1v2h-1v1h-2v1h-6v-1h-2v-1
			h-2v-7h3v-3h-1v-3h-3v-2h-3v-1h-10v1h-3v2h-3v1h-1v2h-2v3h-1v2h-1v5h-2v19h2v6h1v3h1v3h2v1h1v2h2v1h1v2h3v1h4v1h7v-1h6v-1h3v-2h1
			v-1h2v-2h1v-1h2v-2h1v-1h1v1h-1v3h-1v3h-2v3h-1v1h-2v2h-1v1h-2v2h-1v1h-3v1h-4v2h-13v-2H1046z M930,367h1v-4h2v-4h1v-2h1v-2h2v-2
			h1v-2h1v-1h2v-1h1v-2h3v-1h1v-2h3v-1h4v-1h12v1h4v1h3v2h3v1h1v2h1v1h2v1h1v3h1v1h2v4h1v7h2v4h-48v3h5v9h2v4h1v3h2v3h1v1h1v2h2v1h1
			v1h3v2h4v1h8v-1h5v-2h3v-1h1v-1h2v-2h1v-1h1v-1h2v-3h1v3h-1v4h-2v2h-1v2h-1v1h-2v1h-1v2h-1v1h-2v1h-2v2h-4v1h-13v-1h-5v-2h-3v-1
			h-3v-1h-2v-2h-2v-1h-1v-1h-1v-2h-2v-2h-1v-3h-1v-3h-2v-4h-1V367z M889,403h7v-2h1v-1h2v-1h1v-79h-1v-1h-2v-2h-2v-1h-3v-1h-3v-2h6
			v-1h6v-1h6v-2h5v88h2v3h1v1h1v2h7v4h-34V403z M779,373h2v-7h1v-4h1v-3h2v-2h1v-2h2v-2h1v-2h1v-1h2v-1h1v-2h3v-1h2v-2h3v-1h4v-1h15
			v1h5v1h2v-24h-2v-1h-1v-2h-3v-1h-2v-1h-3v-2h5v-1h7v-1h6v-2h5v88h1v3h3v1h3v2h3v1h-2v1h-9v2h-10v1h-1v-9h1v-3h2v-1h1v-4h-1v1h-2v3
			h-1v1h-2v1h-1v3h-1v1h-2v2h-2v1h-2v1h-2v2h-3v1h-11v-1h-5v-2h-3v-1h-1v-1h-2v-2h-1v-1h-1v-1h-2v-2h-1v-2h-2v-3h-1v-3h-1v-7h-2V373
			z M776,888h4v-17h4v-17h4v-11h4v-17h4v-11h4v-17h4v-11h4v-16h3v-12h4v-16h4v-12h4v-16h4v-17h4v-11h4v-17h4v-11h4v-22h4v-6h-4v-11
			h-4v-6h-8v-5h-8v-6h20v-5h23v-6h23v-6h4v12h-4v16h-3v11h-4v17h-4v11h-4v17h-4v11h-4v17h-4v11h-4v17h-4v11h-4v17h-3v11h-4v11h-4v6
			h-4v11h-4v5h-4v12h4v-6h4v-6h4v-5h4v-11h4v-6h3v-5h4v-6h4v-6h4v-5h8v-6h4v-5h4v-6h8v-6h7v-5h12v-6h23v6h12v5h4v6h4v17h4v17h-4v22
			h-4v11h-4v17h-4v11h-4v17h-4v11h-3v11h-4v17h-4v11h-4v11h-4v17h-4v33h12v-5h8v-6h7v-5h4v-6h4v-6h4v-5h8v-6h4v6h-4v5h-4v6h-4v6h-4
			v5h-4v6h-4v5h-4v6h-3v5h-4v6h-4v6h-8v5h-16v6h-7v-6h-12v-5h-4v-12h-4v-22h4v-17h4v-16h4v-12h4v-16h4v-11h3v-17h4v-11h4v-12h4v-16
			h4v-11h4v-17h4v-11h4v-17h-4v-11h-24v5h-7v6h-8v6h-4v5h-4v6h-4v5h-4v6h-4v5h-4v6h-3v6h-4v5h-4v6h-4v11h-4v5h-4v6h-4v11h-4v11h-4
			v17h-4v17h-3v11h-4v17h-4v11h-4v17h-4v11h-4v17h-4v5h-31v-17h4v-11h4v-16h4v-17h4v-11h4v-17h3V888z M919,1164v3h4v46h1v3h2v1h10
			v-1h3v-2h1v-1h2v3h-2v3h-1v1h-2v3h-3v1h-1v2h-4v1h-9v-1h-3v-2h-3v-1h-1v-3h-1v-4h-2v-52h-10v-1h2v-1h1v-2h1v-1h2v-2h1v-1h2v-2h1
			v-1h2v-1h1v-2h1v-3h2v-1h1v-2h2v-2h1v-3h2v-3h1v23h20v5H919z M943.036,1210.168v1.428h-1.428v-1.428H943.036z M870,1170v-1h-1v-2
			h-3v-1h-3v-2h-3v-1h6v-1h4v-2h6v-1h6v-2h2v59h2v3h1v1h2v2h7v4h-36v-4h7v-2h2v-1h1v-2h2v-47H870z M872,1143v-14h14v14H872z
			 M861,1352v-7h4v-10h4v-14h5v-10h43v10h-3v10h-3v7h-6v14h-4v6h-44v-6H861z M836,1226v-2h-3v-2h-1v-6h1v-3h1v-3h-1v2h-1v1h-2v3h-1
			v1h-2v2h-1v1h-2v2h-1v1h-1v1h-3v2h-3v1h-12v-1h-4v-2h-3v-1h-1v-1h-2v-2h-1v-1h-1v-6h-2v-6h2v-4h1v-3h1v-1h2v-2h1v-1h3v-2h3v-1h4
			v-1h3v-2h4v-1h5v-2h4v-1h4v-2h3v-12h-1v-3h-2v-2h-1v-1h-2v-2h-1v-1h-11v1h-5v2h-1v1h-2v2h-1v1h4v7h-1v3h-2v2h-7v-2h-1v-1h-2v-3h-1
			v-4h1v-3h2v-3h1v-2h2v-1h3v-1h1v-2h3v-1h6v-2h15v2h5v1h2v2h3v1h2v1h1v2h2v3h1v3h1v45h2v2h7v-2h1v-1h2v1h-2v3h-1v2h-1v1h-2v1h-3v2
			h-4v1h-3v-1H836z M789,1140v-7h3v-3h-2v-1h-13v1h-3v2h-1v1h-1v1h-2v5h-1v20h18v5h-23v3h5v49h1v3h2v1h1v2h7v4h-34v-4h6v-2h2v-1h2
			v-55h-10v-5h10v-7h1v-9h2v-4h1v-3h2v-2h1v-1h1v-3h3v-1h2v-2h1v-1h4v-2h5v-1h10v1h5v2h3v1h2v2h1v1h2v3h1v3h-1v4h-2v2h-1v1h-6v-1h-3
			v-2H789z M699,403h7v-2h2v-1h1v-1h1v-45h-1v-1h-1v-2h-3v-1h-3v-1h-3v-2h6v-1h4v-2h5v-1h6v-1h2v9h-1v2h-1v2h-2v4h2v-1h1v-3h1v-1h2
			v-1h1v-3h1v-1h3v-2h2v-1h1v-2h3v-1h4v-1h12v1h3v1h2v2h2v1h1v2h1v2h2v4h1v44h1v1h2v1h1v2h7v4h-34v-4h7v-2h1v-1h2v-4h1v-35h-1v-6h-2
			v-1h-1v-1h-2v-2h-4v-1h-6v1h-4v2h-3v1h-2v1h-1v2h-1v1h-2v41h2v1h1v1h1v2h6v4h-33V403z M633,389h1v-4h2v-3h1v-1h1v-1h2v-2h2v-1h3
			v-1h4v-2h3v-1h4v-1h4v-2h4v-1h4v-2h3v-12h-1v-2h-2v-2h-1v-1h-2v-1h-1v-2h-11v2h-4v1h-1v1h-2v2h-1v1h4v7h-1v2h-2v2h-6v-2h-2v-1h-1
			v-3h-1v-4h1v-2h1v-3h2v-1h1v-2h3v-1h1v-2h3v-1h5v-1h15v1h4v1h3v2h3v1h1v2h1v1h2v3h1v2h1v44h2v1h7v-1h1v-2h1v2h-1v2h-1v2h-2v1h-1v1
			h-3v2h-4v1h-3v-1h-4v-2h-2v-2h-2v-6h2v-2h1v-3h-1v1h-2v2h-1v2h-1v2h-2v1h-1v1h-2v2h-1v1h-1v1h-3v2h-3v1h-11v-1h-4v-2h-2v-1h-2v-1
			h-1v-2h-1v-1h-2v-5h-1V389z M553,347h4v-1h5v-2h6v-1h5v-1h3v50h1v3h2v2h2v2h3v1h7v-1h4v-2h3v-1h1v-1h1v-2h2v-1h1v-38h-1v-1h-2v-2
			h-2v-1h-3v-1h-3v-2h4v-1h6v-2h5v-1h6v-1h2v55h2v3h2v1h3v2h3v1h-2v1h-9v2h-10v1h-1v-9h1v-2h2v-1h1v-4h-1v1h-2v2h-1v2h-1v2h-2v1h-1
			v1h-1v2h-3v1h-1v1h-3v2h-4v1h-11v-1h-4v-2h-1v-1h-2v-1h-1v-2h-2v-1h-1v-3h-1v-39h-2v-5h-2v-2h-2v-1h-4v-1h-1V347z M546,944h4v-12
			h4v-16h4v-12h4v-16h4v-11h4v-17h4v-17h3v-11h4v-17h4v-11h4v-17h4v-33h-4v-6h-8v-5h-7v-6h11v-6h20v-5h19v-6h20v6h-4v17h-4v11h-4v11
			h-4v6h-4v5h-4v11h-4v11h4v-5h4v-6h4v-5h4v-6h4v-11h4v-6h4v-5h8v-6h3v-5h4v-6h8v-6h8v-5h8v-6h23v6h12v5h4v6h8v6h3v11h4v11h4v17h4
			v44h-4v28h-4v17h-4v11h-3v11h-4v11h-4v6h-4v11h-4v6h-4v5h-4v6h-4v6h-4v5h-4v6h-3v5h-8v6h-4v5h-8v6h-8v6h-15v5h-39v-5h-12v-6h-8v-6
			h-8v-5h-4v11h-3v11h-4v17h-4v11h-4v17h-4v11h-4v17h-4v33h4v6h20v11h-4v6h-94v-12h4v-5h16v-6h7v-5h4v-6h4v-6h4v-16h4v-11h4v-17h4
			v-17h4v-11h4v-17h3v-11h4v-17h4V944z M659,1190v10h1v4h2v3h1v3h1v2h2v1h1v1h2v2h3v1h4v2h8v-2h6v-1h3v-2h1v-1h2v-1h1v-2h2v-1h1v-3
			h2v3h-2v4h-1v3h-2v1h-1v2h-2v1h-1v2h-1v1h-2v1h-3v2h-4v1h-13v-1h-6v-2h-2v-1h-3v-1h-3v-2h-2v-1h-1v-2h-2v-1h-1v-3h-1v-3h-2v-3h-1
			v-4h-2v-19h2v-4h1v-4h2v-3h1v-1h1v-3h2v-2h1v-1h2v-2h1v-1h3v-1h2v-2h2v-1h5v-2h13v2h4v1h3v2h3v1h1v1h1v2h2v1h1v3h2v2h1v4h2v7h1v4
			h-50v3H659z M604,1226v-2h-3v-1h-2v-1h-2v-2h-1v-1h-2v-2h-1v-1h-2v4h2v2h1v1h2v1h-5v2h-2v1h-3v-25h5v2h2v3h1v3h2v3h1v1h2v2h1v1h3
			v2h1v1h16v-1h1v-2h2v-1h1v-3h2v-4h-2v-3h-1v-2h-2v-1h-1v-1h-3v-2h-4v-1h-4v-2h-3v-1h-5v-2h-2v-1h-3v-1h-2v-2h-3v-1h-1v-3h-1v-3h-2
			v-13h2v-3h1v-1h1v-3h2v-1h3v-2h1v-1h6v-2h8v2h5v1h3v2h2v1h2v1h1v2h2v1h1v-4h-1v-1h-2v-2h2v-1h3v-2h4v25h-6v-2h-1v-4h-2v-3h-1v-1
			h-2v-2h-1v-1h-1v-2h-2v-1h-1v-2h-5v-1h-5v1h-5v2h-1v1h-1v3h-2v4h2v3h1v3h3v2h1v1h5v1h2v2h5v1h3v2h4v1h3v2h3v1h1v1h1v2h2v1h1v5h2
			v10h-2v4h-1v1h-2v3h-1v2h-1v1h-3v1h-3v2h-4v1h-10v-1H604z M605.542,1451.082l-3.505,9.196l-1.312-0.499l-1.502,3.94l-1.315-0.501
			l-1,2.628l-1.313-0.501l-1.001,2.628l-1.315-0.501l-0.5,1.313l-1.313-0.5l-0.501,1.312l-1.312-0.499l-0.501,1.313l-1.314-0.502
			l-0.501,1.314l-1.312-0.499l-0.501,1.313l3.94,1.501l0.5-1.314l1.312,0.502l0.501-1.314l1.315,0.5l0.5-1.313l1.313,0.501
			l-1.502,3.942l1.314,0.501l-1.001,2.626l1.314,0.501l-1.003,2.626l-23.646-9.012l2.003-5.253l2.627,1l0.501-1.315l2.628,1.002
			l0.5-1.313l2.626,1.001l0.502-1.313l2.627,1.002l0.501-1.315l1.313,0.503l0.501-1.312l1.313,0.5l0.501-1.314l1.313,0.5
			l1.001-2.627l1.315,0.501l0.501-1.314l1.312,0.502l5.507-14.451l-1.312-0.499l0.5-1.314l-1.314-0.5l0.502-1.315l-1.313-0.499
			l0.499-1.314l-2.626-1.003l0.5-1.315l-3.941-1.502l-0.5,1.316l-2.629-1.002l-0.501,1.314l-1.313-0.5l-0.499,1.312l-1.314-0.499
			l-0.502,1.313l-1.312-0.501l-1.001,2.626l-1.314-0.5l-1.502,3.944l-1.314-0.502l-1.502,3.939l-1.314-0.5l-1.001,2.627l-1.313-0.5
			l-1.501,3.94l-1.313-0.502l-1.001,2.63l-1.315-0.503l-0.999,2.628l-1.313-0.499l-0.502,1.312l-1.314-0.499l-1.002,2.625
			l-1.314-0.499l-0.5,1.313l-2.625-1.002l-0.502,1.315l-2.626-1.003l-0.5,1.312l-11.824-4.503l0.501-1.314l-2.628-1.002l0.499-1.313
			l-1.312-0.501l0.501-1.314l-2.629-1.002l0.504-1.312l-1.314-0.501l1.002-2.628l-1.316-0.501l0.5-1.313l-1.313-0.501l2.005-5.254
			l-1.314-0.502l3.004-7.88l1.313,0.501l1.502-3.942l1.313,0.501l1.001-2.629l1.315,0.501l1.001-2.625l1.312,0.499l0.5-1.312
			l1.314,0.5l0.501-1.314l1.312,0.5l0.501-1.312l1.314,0.499l0.5-1.312l-3.941-1.503l-0.5,1.314l-1.312-0.502l-0.5,1.315
			l-1.317-0.503l0.502-1.312l-1.314-0.502l1.001-2.627l-1.312-0.5l1.502-3.941l22.332,8.512l-2.004,5.257l-1.312-0.5l-0.5,1.312
			l-3.941-1.503l-0.501,1.312l-2.627-0.999l-0.501,1.314l-1.312-0.5l-0.502,1.312l-1.312-0.499l-0.502,1.313l-1.313-0.5l-0.5,1.31
			l-1.313-0.499l-0.503,1.312l-1.313-0.502l-0.5,1.317l-1.314-0.501l-1.502,3.938l-1.313-0.499l-2.002,5.255l1.314,0.501
			l-1.501,3.94l1.313,0.501l-0.501,1.313l1.312,0.5l-0.5,1.314l2.627,1.002l-0.499,1.312l3.939,1.501l0.501-1.312l2.628,1.002
			l0.5-1.314l2.629,1.004l1-2.631l1.313,0.502l0.501-1.313l1.314,0.5l1.501-3.94l1.315,0.501l1.002-2.626l1.312,0.5l1.502-3.939
			l1.312,0.499l1-2.631l1.315,0.502l1.502-3.938l1.313,0.502l1.001-2.63l1.315,0.501l1-2.627l1.313,0.502l0.501-1.315l1.312,0.501
			l0.502-1.315l1.314,0.501l0.499-1.313l1.314,0.502l0.5-1.315l3.941,1.504l0.501-1.314l9.195,3.505l-0.499,1.314l3.94,1.502
			l-0.5,1.314l1.313,0.5l-0.5,1.312l2.625,1l-0.499,1.315l1.312,0.5l-0.5,1.315l1.314,0.501l-1,2.627l1.312,0.499l-1.002,2.631
			l1.314,0.499l-1.5,3.94L605.542,1451.082z M584.011,1507.578l-4.508,11.823l-1.314-0.501l-2.002,5.256l-1.313-0.5l-1.002,2.625
			l-1.312-0.499l-1.002,2.627l-1.314-0.5l-1.002,2.626l-1.312-0.5l-0.5,1.314l-1.313-0.501l-0.501,1.312l-1.313-0.501l-0.502,1.316
			l-1.313-0.501l-0.501,1.312l-2.628-1.002l-0.499,1.315l-2.629-1.004l-0.5,1.315l-2.626-1l-0.501,1.311l-3.942-1.502l-0.5,1.313
			l-17.076-6.508l0.501-1.314l-3.943-1.503l0.5-1.312l-3.94-1.501l0.5-1.313l-2.628-1.002l0.501-1.315l-1.312-0.498l0.5-1.314
			l-2.629-1l0.501-1.315l-1.314-0.503l0.5-1.312l-1.313-0.5l0.501-1.313l-1.313-0.502l0.5-1.312l-1.315-0.502l1.001-2.627
			l-1.312-0.501l0.501-1.312l-1.315-0.501l1-2.628l-1.312-0.501l1.502-3.941l-1.314-0.502l4.506-11.821l1.312,0.502l1.502-3.943
			l1.313,0.502l1.002-2.627l1.316,0.501l1.002-2.628l1.312,0.5l0.501-1.313l1.313,0.5l0.502-1.312l1.313,0.5l0.5-1.312l1.312,0.501
			l0.501-1.314l2.628,1.002l0.501-1.315l1.315,0.5l0.5-1.312l3.941,1.501l0.5-1.312l6.568,2.503l0.5-1.313l3.941,1.502
			l-17.523,45.978l2.627,1.001l2.002-5.254l9.198,3.508l0.5-1.315l3.939,1.5l0.501-1.312l2.628,1.002l0.5-1.312l2.625,1.001
			l0.5-1.315l1.316,0.502l0.501-1.312l1.313,0.5l0.5-1.317l1.314,0.502l0.501-1.313l1.314,0.5l1-2.627l1.313,0.502l1.503-3.944
			l1.315,0.502l3.003-7.883l-1.313-0.498l2.003-5.256l-1.313-0.501l1.001-2.627l-1.315-0.501l0.502-1.313l-1.315-0.499l0.5-1.314
			l-1.312-0.5l0.5-1.313l-1.316-0.5l0.502-1.316l-1.313-0.503l0.502-1.312l-2.631-1.002l0.502-1.312l2.63,1.002l-0.501,1.312
			l3.939,1.502l-0.5,1.314l2.628,1.003l-0.502,1.314l1.313,0.5l-0.5,1.312l1.314,0.502l-0.501,1.312l1.313,0.501l-0.5,1.314
			l1.314,0.5l-0.502,1.312l1.315,0.501l-0.501,1.313l1.314,0.502l-1.002,2.628l1.314,0.499l-1.502,3.941L584.011,1507.578z M462,386
			v-2h-1v-3h-2v-3h-1v-4h-1v-7h-2v-14h2v-7h1v-4h1v-4h2v-3h1v-3h1v-1h2v-3h1v-1h1v-2h2v-1h1v-1h2v-2h1v-1h1v-1h2v-2h2v-1h3v-1h3v-2
			h2v-1h6v-1h18v1h5v1h4v2h3v1h2v1h2v2h2v1h2v1h1v2h2v1h1v1h1v2h2v3h1v1h1v3h2v2h1v3h1v4h2v7h1v17h-1v7h-2v4h-1v3h-1v3h-2v2h-1v3h-1
			v2h-2v1h-1v3h-1v1h-2v1h-3v2h-1v1h-1v1h-3v2h-1v1h1v3h1v1h2v3h1v1h1v3h2v3h1v1h2v1h8v-1h2v1h-1v2h-1v1h-2v1h-1v2h-1v1h-4v2h-9v-2
			h-4v-1h-1v-2h-1v-1h-2v-1h-1v-3h-1v-3h-2v-2h-1v-3h-1v-3h-2v-1h-1v-3h-2v-3h-1v-2h-1v-3h-2v-3h-1v-2h-1v-2h-2v-1h-1v-2h-8v2h-2v3
			h-1v5h1v1h2v2h3v1h2v1h4v2h7v2h1v3h-12v-1h-5v-2h-4v-1h-3v-1h-3v-2h-1v-1h-3v-1h-1v-2h-1v-1h-2v-1h-1v-2h-2v-1h-1v-1h-1v-2h-2v-3
			H462z M501.726,1601.103l0.499-1.315l-3.94-1.502l0.5-1.312l-2.625-1.001l0.498-1.314l-2.628-0.999l0.501-1.315l-1.315-0.501
			l0.503-1.316l-2.628-1.003l0.501-1.309l-1.315-0.502l0.501-1.314l-1.313-0.501l0.501-1.312l-1.314-0.501l0.501-1.313l-1.313-0.501
			l1-2.628l-1.313-0.5l1.002-2.627l-1.315-0.502l1.001-2.629l-1.312-0.5l1.501-3.94l-1.314-0.501l5.508-14.449l1.313,0.5
			l2.002-5.256l1.314,0.501l0.5-1.313l-23.647-9.013l-0.5,1.313l-1.314-0.502l-0.5,1.316l-1.313-0.5l-1.002,2.627l-1.315-0.501
			l-0.999,2.627l-1.313-0.5l-1.002,2.626l-1.313-0.499l2.001-5.255l-1.311-0.5l2.502-6.568l-1.314-0.502l2.004-5.255l-1.314-0.503
			l2.002-5.254l85.393,32.548l0.5-1.315l2.629,1.001l0.999-2.625l1.314,0.502l1.001-2.631l1.313,0.501l1.003-2.627l1.314,0.502
			l-0.502,1.312l1.313,0.501l-3.505,9.194l1.314,0.502l-3.506,9.197l1.313,0.5l-0.5,1.312l-9.195-3.504l0.5-1.313l-2.627-1.001
			l0.5-1.315l-1.312-0.499l0.5-1.315l-3.94-1.501l-0.501,1.313l1.313,0.502l-0.501,1.312l2.627,1.003l-0.5,1.312l1.313,0.5
			l-0.5,1.312l1.315,0.502l-0.5,1.314l2.626,1.002l-0.5,1.312l1.313,0.5l-0.502,1.314l1.313,0.501l-1.001,2.627l1.315,0.5
			l-0.501,1.315l1.312,0.5l-1,2.627l1.315,0.503l-1.001,2.625l1.312,0.501l-4.004,10.509l-1.314-0.501l-2.003,5.256l-1.313-0.501
			l-1.002,2.628l-1.312-0.5l-0.501,1.314l-1.314-0.503l-0.501,1.314l-1.312-0.502l-0.503,1.315l-1.312-0.503l-0.5,1.314
			l-1.314-0.503l-0.503,1.317l-1.312-0.501l-0.5,1.314l-2.629-1.001l-0.5,1.312l-2.627-1.002l-0.5,1.313l-2.627-1.002l-0.5,1.315
			l-6.569-2.505l-0.5,1.312l-9.195-3.504l0.499-1.314L501.726,1601.103z M730,1433h-4v16h-5v9h-5v13h-4v15h-6v10h-4v13h-3v10h-5v15
			h-4v12h-4v11h-6v15h-4v10h-6v14h-4v14h-4v10h-5v14h-3v8h-4v15h-5v17h-5v5h-4v11h-6v11h-4v3h-5v10h-4v4h-5v6h-3v6h-9v3h-9v7h-10v3
			h-45v-3h-9v-7h-4v-3h-4v-6h-4v-23h4v-11h8v-4h20v4h3v4h5v10h-5v10h-10v16h29v-6h7v-6h5v-4h4v-7h6v-6h5v-11h4v-11h4v-11h5v-19h3
			v-15h5v-14h4v-10h5v-14h4v-10h6v-14h4v-15h5v-11h5v-12h4v-15h3v-10h5v-13h4v-10h4v-15h6v-13h4v-9h6v-16h4v-3h-36v-5h3v-10h5v-4h32
			v-6h5v-9h3v-10h4v-13h6v-9h4v-12h5v-3h5v-11h4v-3h5v-4h4v-7h3v-3h5v-7h5v-3h5v-4h10v-6h8v-6h49v6h9v6h5v4h4v3h4v31h-4v7h-9v6h-16
			v-6h-6v-3h-6v-18h6v-7h9v-10h-3v-3h-30v3h-7v7h-5v3h-4v7h-4v4h-7v10h-3v7h-5v15h-5v16h-5v13h-3v15h54v4h-6v15h-57V1433z M882,1415
			h-4v10h-4v14h-5v10h-4v14h-4v8h-4v15h-7v10h-4v13h-4v10h-4v15h-5v10h-4v9h-5v14h-4v15h-3v23h3v5h9v-5h9v-5h8v-4h4v-6h7v-4h4v-4h4
			v-7h4v-3h5v10h-5v4h-4v4h-4v6h-4v4h-7v5h-4v5h-4v3h-4v7h-5v4h-9v5h-4v5h-20v5h-13v-5h-7v-5h-5v-5h-4v-28h4v-14h5v-15h3v-10h4v-13
			h6v-10h4v-15h3v-10h5v-13h6v-10h6v-8h3v-15h4v-14h5v-7h-5v-9h-4v-3h-9v-5h-11v-6h17v-4h25v-4h23v-6h17V1415z M1008,1411h-4v14h-5
			v8h-3v16h-4v9h-8v13h-4v11h-4v14h-4v13h-4v10h-5v15h-5v10h-3v13h-4v10h-4v15h-8v23h8v5h8v-5h8v-5h9v-4h4v-6h4v-4h4v-4h8v-7h4v-3h3
			v10h-3v4h-4v4h-8v6h-4v4h-4v5h-4v5h-4v3h-5v7h-5v4h-3v5h-8v5h-20v5h-10v-5h-12v-5h-4v-9h-6v-24h6v-14h4v-10h6v-15h3v-13h3v-10h6
			v-15h4v-10h5v-13h4v-10h3v-15h8v-8h4v-14h4v-10h3v-14h5v-10h5v-14h4v-11h4v-14h4v-9h4v-15h8v-14h4v-14h-4v-3h-8v-7h-8v-3h-8v-4h28
			v-6h21v-6h27v-3h5v9h-5v13h-4v10h-3v14h-7v14h-4v12h-6v12h-3v10h-3v15h-6V1411z M1368,1575h-6v7h-3v4h-4v10h-5v4h-4v5h-8v5h-3v3
			h-3v7h-6v4h-8v5h-8v5h-15v5h-14v-5h-7v-5h-5v-5h-4v-34h4v-15h5v-8h3v-14h4v-9h5v-15h5v-10h4v-13h6v-10h4v-14h5v-14h5v-10h3v-19h-3
			v-6h-24v6h-10v3h-4v7h-8v4h-4v5h-5v5h-5v5h-4v3h-6v7h-4v4h-4v9h-5v5h-3v5h-4v8h-6v7h-4v7h-4v14h-6v9h-4v17h-5v12h-4v11h-3v14h-5
			v10h-5v14h-4v10h-40v-5h3v-16h6v-8h3v-15h4v-15h5v-8h4v-14h7v-9h4v-15h4v-13h4v-10h5v-15h5v-9h3v-14h4v-35h-25v6h-11v3h-4v7h-9v4
			h-3v5h-6v5h-3v5h-4v3h-6v7h-5v4h-5v9h-4v5h-5v5h-4v8h-4v7h-4v7h-5v14h-4v9h-4v17h-6v12h-5v15h-4v10h-5v13h-4v16h-3v5h-40v-5h3v-9
			h3v-15h6v-9h4v-14h7v-10h3v-15h4v-11h5v-12h5v-15h3v-10h4v-13h5v-10h4v-15h5v-13h6v-25h-6v-3h-9v-5h-12v-6h16v-4h24v-4h21v-6h23v6
			h-3v8h-4v14h-6v9h-5v11h-5v5h-4v10h-5v3h-4v11h4v-4h5v-7h4v-8h5v-5h5v-5h6v-4h4v-7h3v-3h6v-6h3v-3h9v-5h4v-6h11v-4h4v-4h14v-6h26
			v6h14v4h3v4h5v39h-5v5h-3v5h-4v10h-6v13h6v-9h4v-4h3v-7h5v-3h4v-10h4v-5h6v-4h4v-7h5v-3h5v-6h4v-3h5v-5h7v-6h5v-4h9v-4h15v-6h25v6
			h11v4h4v4h5v6h4v38h-4v8h-5v15h-4v10h-8v10h-3v13h-3v10h-6v15h-4v9h-4v10h-3v12h-5v7h-5v23h5v5h8v-5h14v-5h3v-4h3v-6h12v-4h5v-4h4
			v-7h3v-3h6V1575z M1370,1123h-5v2h-12v-2h-6v-1h-3v-1h-3v-2h-3v-1h-1v-2h-2v-1h-1v-1h-1v-3h-2v-3h-1v-3h-2v-4h-1v-19h1v-4h2v-4h1
			v-3h2v-1h1v-3h1v-2h2v-1h1v-2h2v-1h3v-1h1v-2h3v-1h4v-2h13v2h4v1h3v2h3v1h1v1h2v2h1v1h2v3h1v2h1v4h2v7h1v4h-50v3h6v10h2v4h1v3h1v3
			h2v1h1v2h2v1h1v2h3v1h4v1h9v-1h5v-1h3v-2h2v-1h1v-2h2v-1h1v-2h1v-2h2v2h-2v5h-1v3h-1v1h-2v1h-1v2h-2v1h-1v2h-2v1h-2V1123z
			 M1543,1471h-5v11h-28v-4h-3v-10h-5v-15h12v-11h-4v-9h-3v-3h-9v-5h-32v5h-10v3h-3v6h-4v32h4v7h3v4h6v4h4v5h4v5h4v5h6v5h6v10h3v3h4
			v4h5v6h4v5h5v3h3v9h4v44h-4v10h-3v10h-5v3h-4v7h-5v4h-7v5h-12v5h-12v5h-41v-5h-13v-5h-8v-5h-9v-4h-7v-7h-3v-3h-5v-14h-4v-21h4v-8
			h5v-4h3v-6h19v6h5v4h5v23h-10v15h5v5h5v3h3v7h40v-7h10v-3h4v-5h4v-9h6v-24h-6v-9h-4v-6h-4v-4h-4v-7h-6v-2h-3v-7h-4v-3h-5v-5h-4v-6
			h-4v-4h-7v-3h-4v-10h-4v-5h-5v-10h-3v-38h3v-14h5v-6h4v-8h11v-6h4v-4h9v-4h13v-6h36v6h12v4h9v4h7v6h5v5h2v3h5v9h5V1471z
			 M1560,1085h-50v3h6v10h1v4h2v3h1v3h1v1h2v2h1v1h2v2h3v1h4v1h8v-1h6v-1h3v-2h1v-1h2v-2h1v-1h2v-2h1v-2h1v2h-1v5h-1v3h-2v1h-1v1h-2
			v2h-1v1h-2v2h-1v1h-3v1h-4v2h-13v-2h-6v-1h-2v-1h-3v-2h-3v-1h-1v-2h-2v-1h-1v-1h-2v-3h-1v-3h-2v-3h-1v-4h-1v-19h1v-4h1v-4h2v-3h1
			v-1h2v-3h1v-2h2v-1h1v-2h1v-1h3v-1h2v-2h2v-1h5v-2h13v2h4v1h3v2h2v1h2v1h1v2h2v1h1v3h2v2h1v4h1v7h2V1085z M1581,448h-4v6h-4v5h-4
			v6h-3v6h-4v5h-4v6h-8v5h-8v6h-11v5h-12v6h-20v6h-43v5h-3v6h11v44h4v17h4v6h4v5h4v6h4v5h4v6h15v6h12v-6h16v-6h7v-5h4v-6h4v-5h8v-6
			h4v-5h4v5h-4v6h-4v11h-4v5h-4v6h-4v6h-4v5h-4v6h-3v5h-8v6h-8v5h-12v6h-31v-6h-8v-5h-8v-6h-7v-5h-4v-6h-4v-5h-4v-12h-4v-11h-4v-16
			h-4v-62h4v-17h4v-16h4v-11h4v-12h4v-5h4v-11h4v-6h3v-6h4v-5h4v-6h4v-5h4v-6h4v-5h4v-6h8v-6h7v-5h8v-6h12v-5h39v5h8v6h7v5h4v6h4v6
			h4V448z M1590,275h-4v11h-4v6h-7v5h-8v6h-8v6h-8v5h-8v6h-7v5h-8v6h-8v6h-8v5h-8v-5h4v-6h4v-6h4v-5h4v-6h4v-11h4v-6h4v-5h4v-6h3v-5
			h4v-6h4v-11h4v-6h4v-5h4v-6h8v-5h15v5h8V275z"/>
		<polygon fill="#0F0F0F" points="1506,748 1502,748 1502,743 1494,743 1494,737 1482,737 1482,743 1471,743 1471,748 1467,748 
			1467,754 1463,754 1463,759 1455,759 1455,771 1451,771 1451,776 1447,776 1447,782 1443,782 1443,793 1440,793 1440,804 
			1436,804 1436,815 1432,815 1432,832 1428,832 1428,837 1447,837 1447,832 1467,832 1467,826 1479,826 1479,821 1486,821 
			1486,815 1494,815 1494,810 1498,810 1498,804 1502,804 1502,798 1506,798 1506,793 1510,793 1510,754 1506,754 		"/>
	</g>
</g>
<g id="Calque_2" display="none">
	<rect x="378.5" y="469.5" display="inline" fill="none" stroke="#E72D00" stroke-miterlimit="10" width="1108" height="1241"/>
</g>
</svg>
